<mxfile host="Electron" modified="2023-07-29T08:31:55.651Z" agent="Mozilla/5.0 (Macintosh; Intel Mac OS X 10_15_7) AppleWebKit/537.36 (KHTML, like Gecko) draw.io/21.6.5 Chrome/114.0.5735.243 Electron/25.3.1 Safari/537.36" etag="gTj4FtP-84gKVVeYqJdH" version="21.6.5" type="device">
  <diagram name="Seite-1" id="Y66TBtBqmqm9ZgNLSIv4">
    <mxGraphModel dx="954" dy="612" grid="1" gridSize="10" guides="1" tooltips="1" connect="1" arrows="1" fold="1" page="1" pageScale="1" pageWidth="827" pageHeight="1169" math="0" shadow="0">
      <root>
        <mxCell id="0" />
        <mxCell id="1" parent="0" />
        <mxCell id="Dnd6SaUCVXXJT1RzdSpy-1" value="Stream-aligned Product Teams" style="rounded=0;whiteSpace=wrap;html=1;fillColor=#E6E6E6;" vertex="1" parent="1">
          <mxGeometry x="40" y="120" width="760" height="40" as="geometry" />
        </mxCell>
        <mxCell id="Dnd6SaUCVXXJT1RzdSpy-2" value="Foundational Basis" style="rounded=0;whiteSpace=wrap;html=1;fillColor=#E6E6E6;" vertex="1" parent="1">
          <mxGeometry x="40" y="400" width="760" height="40" as="geometry" />
        </mxCell>
        <mxCell id="Dnd6SaUCVXXJT1RzdSpy-3" value="" style="shape=image;verticalLabelPosition=bottom;labelBackgroundColor=default;verticalAlign=top;aspect=fixed;imageAspect=0;image=data:image/png,iVBORw0KGgoAAAANSUhEUgAAAGwAAABCCAYAAACywDOLAAAAAXNSR0IArs4c6QAAAIRlWElmTU0AKgAAAAgABQESAAMAAAABAAEAAAEaAAUAAAABAAAASgEbAAUAAAABAAAAUgEoAAMAAAABAAIAAIdpAAQAAAABAAAAWgAAAAAAAACQAAAAAQAAAJAAAAABAAOgAQADAAAAAQABAACgAgAEAAAAAQAAAGygAwAEAAAAAQAAAEIAAAAAlRKq7gAAAAlwSFlzAAAWJQAAFiUBSVIk8AAAGtRJREFUeAHtnQt4VcW1gGf23icPCG9fKEKAENAIBLlqrQ8CWqxatdUPrv1uba/Wtl5t++nXq99tvQ/uV9ve2tpr31Xru96roH61L60KBKy1qCEaCZgQFDDyigRJCHmcs/fcf+2TfbL3OfuEhIKP2wzfzp5ZM7NmZq1Za9asmX3QarBh0SK7Yn3zqK7CwrFauyOV54zQRpVo4xUY5SaVZbUZT7Urx2lTTmFL05on22nCDLaZD3v5uXPnJvao4vEFPYkjPeUdpS09Tlmq0Lhe0lhmt1bWLtfSe4q6u1vr61/YM1Aa6YESZu7ci4btTb17qa3t86hzgme8o3iP1loVG6Ns4oLL8MeFO52k9milm5XWqz3L+mVTzYpN5MeGY+fOHVbijbhYGbOAQfnBeFZKK7PG21f8cFPTk92xFWOAM+aePdO49meM5Y3xsz0mi9attrJ+saF2xZaYKvlAekblgtON8hYbZYb5/RJM2mos0W2319TUJOMqCqPaUyMupf0rocZUSHIUPSihbO/I/FoetOkEL4zSu6DhOmP0MtPR/ExTU1O/Y+2XYRUVFQWp4qMmq5R7NQivgQklBu4MKtAbQpul1b+pYal7G55/XiQuEspnLzjOWKm7GeB5MC2TB3W2a2Nd3/DqyqUZYD+Rysqq0fu1ecx4MD4cpA9a/WZj7apLwuD+4mWnnT/S6t7/KuMtDZejT296nj67qa66OQyvqqpydrTp2Z7nfYcRLGAcMokHHlBX9PJ5Kvxz4yfn16glS7y4ymGuR/JlpvQUHHGZSXnLPaO+xmwYPLMEozDAmJGeZ35o9ieWzpq1UCQzEryijnZmXH327IFYRzPDTzsW6Y5UyJPoNGYOs3liTrb0wVMLSquqinLy8gDs7n3zyZqUnQ3DdhS6R+6KwFkmmvd4l8KsR+nzuYNmliCDwdQ922j9zbLHq4+N4A8l8jKsq6tghKX0PMoex5NNyxCKgUeN5y3ssnpuyybcnIkTOyyj68DUmYUNsJkxyus4Mgsem6TsiQz6iLhMhKykoNU9Iy4vDma0cxl8jowbdQhdTXV9/bKecJ3yjbtOtrS+m7xS4JE6oXIefUiRlidWeqQs9kCZrfRwiccFJw4oMHf4MG2SHvnMzlBghgEx21Bfa5GKBq3NTld5SdvoQkpCWF3Bez7dLmR0oZp+1DLGW1iwRy8i9WCQuWzZMrdszrxGy1NbgM0I4PLWRp+Q9LzxRCUvbygrO79Q6f1ToFasJpCeWNq6mNfyvEh6M0S9bduLpMSMXank4+H6M2eeOYZF52GYJetUJECrFO2+xLMSWmxS2t4r7LQ8UwwNj2I+lEO/06hUmSZVDr0i+CSRl2G27RivpzvA0MNyu59Z9Bgdu2PjK6tfysEUBqAiypt23k7lLzLmgnAW8aMYyHkVFaf/HuuoNcgzbnKTshIbKB9hGAM8Dq4dr9SSF3nyzsxUYeeYQk9PwiKLHxMUMdr+OO1BsixOBJ3ofW9pTU4tsArGB4MPssGwpbH2+ZogLe8uO/F1ZbwpYZgfh16epS5vWrvqtzl5WYCyWVUTbK1uZnCX07XdxqRiDRqpllcldrdYHejTpxjeDyxtL+5M9kxtqK2+uvGVVf0zS7AiMT17rBsRxm9Qf7+AwgGmz+2xi6aFYZvq/twCLV8FllVeF6CaK0qrqrMZH66uHNs91tOmLALMTmgzdfr0M0Ra+w2OdhZmM0s0i6f0PVTMZFVUVJUAvSwESuPVKmk51sKBMEsqiAHT8Gr1dWyMZmnPXH7sOGdrGlHu3/jZKEjSpvRjROUZdNi8ubpryrhzlzlucgEz84IwAtJTMHsnAkNqMgQwrqXW2J7VgtqcFJSHuSITp4/Y7RYD6wrg2W/Lco7BQCkNwUUa3+HJGDmocNsUF1QC2xYqlxO1bP0xz3UjcHrhOqbzgTAwaakJpHPWV9p5qeHllWLxDSZ4m15a/ZZUaOinVl4J66fOgLMmjkhto/O1VIgs0szWAmzeUtadiNSgFl6GfdujDUAqpeaknIKRUXhfyl+/jCeqdFQGqlUXknkH6QyTseKYHuasTJmYyOSTTjtaed7saBajUKr+9Vf+sjkMt2xvLLMpjoY7w+UOZTyusUOGv7q6WhbdzTAoZ+/lYrIXFnYmwo011lS/gxdgPTCfS0EexDrSaHdWkM5+9xS3D2OdmyWLUxAwMPYq21RD6i0BTNCys/870uGifdnECgqK52AMjAgD0YZU0Dlrkec4KTIifZV6WJOiPQ5LOKwMkx7DrF0MKmtdEotNF3cWOTmbSyyoP+LGEXUWCWioj0UAoUTCWFiGeq6vPnvhUHG9m7IaaZsJ0McfbcyE8plnTg5Vj0Zd81HwiPrNBNI9yrNWZAC9EbcrxcaevKzgee6cGZVVn8sCH5LkYWcYLqxO5mCu1WPiLVTjWCvwRUb2Y8IIJrK4xGKDtpwjKTAlyJT9EtuBp7tau3ejAlkSQkKgUZu2EyutZWVlhcayKsATUdVMOvaIqTcD/MG76bXVzUjsG0E69LZcZe6bVjn/phDskEQPO8MYbIhaB+6zqEXqPBOWCr+W1pNLT6k6Jg6DrZMnorKGhfNcL/Vsc/MLXUo7EFTvy+QZNVLUZyYdipiRE47HRBdDIkMX+iL8Xu0Ww/ysQBZzS39XJkhOEGPJuN8pr5z3UvnseTdMq6yqXLTI97nmFB0MIK+VmA9JaWlVUWK0OYthzIdIJ9AtPAs+T9qQhLcYwnqE58Wu4d2vNr/wQidmqjiDBxVQi/d6lv6USFZf0ImClKoi/XAfLB1ztXV2dCnxWpvqnhNjB8PRvAH5dxLzN7asYsVa2WUyDrFkw7i0x6bfeBG3ED3oRH2vbVqzpo/poUpNtdWPlldW/Q7d/4l4R4GRNfNkpm1P3caqndMqzU89L3k/25hdITQDjg6IYexdRrjDnSo8EVcw4I/BqNG86V/OUsPcxC9O88X7E8lps+c1eMbsZjDjBtwjChaoPSu61BgxVDKLv7RFu58ClsMw2jsji7mrKedzu8cymxLGN+OnApOAf8mbUDRai7RuFoAf2OzbTS0zPKODCZiGG7WJY6ONJGIGmy6ijHUNvtsnaHBuLyT7ZUGtIvo4CWm/1bIS/1k+Z94LxP/AYcKfR1n7Xs7n/c9BlA3ITpfPPHeKGZZYql21jAYXwaXRPqMisz9UC3gvI7EAzUlQeR7vPnM7VDRftK6uroN6z+WoRaT66FkLh4frTU07k8sDWK96+kOQLh2tmsGzlXSG4BAWz4kqDcrIu/yNljH0+0T6WhSC4ztQG/anUk0hWE608dUV27Bur6DtZ5icOflRAK1j1MiJAr7VW5G8p9u9ES+VzV6wMFouPiXCkCcssXCZfETZyUdAzIJvCvMUPCxgOR/KHjukGDPGSkX2SI7VJdZjSFOYpOWavwSdkq2FZanXqJuxVCHSeLjHbGda9AaOXtl4qxOCdO+7Q3ymzSEXWlZ+kDQb167e4Ho9n4Fp/wHTNoRQB2Xi3uJNLoG+s5HQx5C6H4mbKq5gAMvLsBmV1ROxrr+PVIkOzgwsqChvOreFRXkZ68cPSN5CodtQWw+yB1oFfLsQnHe4yoDjOuGIWoss9KhXi39nRpAYK7rWGdXcZVtvhcvAiBqjrI4ARnq40t4MXEsZabUsMx7mTAvKyJu+78Qj8+cwrL+4rEuNl8y7pTDlzDeOfR70+TU40BYDoIEwzqhrLdt8b/JJ5xydr53QzIwWwSy9lobOYAZEM2RPpfVyCHDbxtqVqK0+VRMtqPTUU86e4CT1ZVhlN4HmgD68cP2eZKqVtQdi6YuQ7iALG8Y7hYRQwJSdj4d+R+cZmR6kCfNyqri7O6gg72TSfi3hpPbShzQhqI0En9htq9Fk7/NPiV1TzrhQ93012Uw0m/auV/ogA4hx8LhOYeQo9bQ8orIt3X2hpawLWa/YMphS4GG1S7I3+Iee+nLHTtYDuSUAh9+xEjaRIwMyrs5hFi4mJOhXrpW4oql25SoQZdaFMNLeuBHfmDGuEP3dmPx+QcOTLfuh68qsyckmQU8qrajyCW+/3VUKLzOmvs9FjjPKCgsj+7431y3fBR82ZxqEK5SdaTs2riU4tq8IAmrRJOHAFgvrsGlNWxg42Pimuqd3bXx11b0lTvunLSt1Dv1fiNT9jGdPHC4xnsi7YULF6X7fssvEMqzAcS5lgOk7EeEaWjcXpMwtb9Q8uzcM7i+OSSxSHNtOf/Xq6+uTUGwdDGmNljNHJhJmpsA4hD8tJBAyv7o4vn+NdSvquaUo69ZfIEQfKiMHs65vwjtOAhUJrpB4UdbldkrGeOmreHAxsQIbap/f1li36jlOPL7sae9MOPMo2CKTqxf72OKCgn+IaymWkNignwh3Pl2R+Wap5evWpT3KccjiYByzioV4MAYLZ+bOFgiJhukL2KDc1tL+xherDnM+JORabbJtvZ3SYT76lWFVtcb6yAQc0OwQfSOjx9aT4FV5Jo8ICHYkPJUxXsJ5hyBummqfW59U+gv0KWdS+FJmZCnIDaERhDK1mh5K+VGLWzQmFSVedpnYtMGEFu9CTjC253Ixqp9gp9xtEFLWkD6usAHGJK6YMeOcceD1GZdGwYTCf6iV0xKH0u0YVoO3PtWXB0u0OV3SluWx8Q57IcCl9a/r66v39ZU/9LHNr1S/y/Wp/7LYu2YHtMuUbJik4xnGvjeuME7ZbFUTVywDE28CiRkQJsIwf/prPZYzlrxGjyDxCaY5nonqexyFanKq2J2PxIfOooxcHWvsKNoXuzZwvtdGxT8FnUtrEO1vdJkNF4Q1CuMU5/R9QdnD+bZNcitaI6eJfDM5lmEUFi9DJHBzCi+PNzkC7D+hE+PYM2l1LlISZYxMbqXH2splc33A8Ar9aQ6XYj0qRW1fGJFcrfYhKptwh0XcTeF6LEpPIDkZEEyaNP3ks2YBOjkDTEfeen3typos2GFJWm4C46KvT5lGjNmaiYcisQxje/96qEw6ylrBrDtHjsVz8mIAbACP0ylnCerrpNxsXHzKTE2qRMRhm1tOqQ67vZEBvUleRi0yI8dD7PN5xCzvDXqn9jwpx3SID5ZtP0VmWEvYxtU3M6EyGsBnqFG/iceQDTV6+vSLR2RDB5PmlP0acSGHg/QBF5lsC3JCLMNA8NvwTAxqQaDynoS+lnR8PTJkTzNl7pkTOYx/AtPs44Bipo8PnKBTUa9F0E74va2mBg+FJ+tYTwiOEWPEtM9IKOpuWzJRsClUJifaWLOygZZ3hDNg4OLw9oUxGgyBx8Nl8sU5PvmaV7x3Dx7535fPPuvU9GRelLsgxSAQOk2bc9Y1TL7P0WSkBMluuyv5QATYm4iqql6g1971hFVS9A7JI7IqDYP3N06rPHs8PLt/pN1eL+aqHNHbo9tKvaTz0TZPLbQ98wkIGkhiMH0iTJY+Mim+DP4DEodN/LO2ZX0FaZU1MTdouR5uthw/vGd7vxxjMVVm3lraPS6bSAFSVHWD0+2tD9L9vS3LOs64KRnKBdDjnGTCbJg2exf459WkuGeJ2t68P9He+sWai7rqF9Xr9etbil3Lm+zZ+iNtrpKr6fNCdPKb6hWUBxoant8W13Ysw2SzOL2y6g5kA3WRzX3/oub1SO317amSFLOrGzfdMOUW0BaKTha7vsBs1Q+xhO/jFPZqwBmJ8DWX0fPL51Sd21hb/WxfldzYaHv/i7QlAxiXmwvEqE5cQey/VoSswNiSMktWUyHWZPaJpZkcdmHOGp4HWwhsCiFVJQC5Y3iVg+EiqqXEHaEeqlxpVCMb4gKA/mFBMIdD1Xuj1F3npfStuTlpSGTWhws5dupO0k+mmw3npOOy/2G6OjB0OA/LB3JAa0GAoUl8iv+TshL/yg7/m8TfDvIybwqBRwbZb/CPHiz9h97Zl1MWFbbPS7kDMhIsz1sLgnyMFXF5oa5uVF7DJdy48Vy5/tA36FAmDl3u8kAjWZ+gD1l84CMTOj+zGN8GxnL9phOPfDOEKhLNy7D6mj9tdT19E029QI3YTkUwhRKoCrqnbmt4peqzeEW2bqh5bjsIbvDhveXonHgf5FLq90NV80a5OvGw1nmWB6P2JgqduryVQxloASxOHas5mXBvckejiYuVYcMkVDsa1Z2pn+BDqUFqoxkHkWJC13jGWtRYu3K53OvMhyIPBdLF9+zcvGv0ccc/Yxl7P/Qtg8h5LCLk0O+0bub9sGW5X2qofe5BnAsZRu/esfn1scdMAo+aSxn58OEGJ/XO7S0tLXk7F+506463dlF/FPXF07GPZ2/6UbuUZX7c8HL1qnD5fPGjj5jS7Tlyzd2ayp9uet4Bnnbi221t3aW63Kd2734rbODkQ6Wk3IKzT71vR2vni0xswcPtLT2WJ68gBMgoK5MaerA3tK3vFqZS//J63eqtQX6+90CnhpQzJ1TOv4B79J8mfiqtjRIVqG1rJ7K/Rml3ac8o50+bq6PH7tkNV3FvncdbkudzmuzyuekllmIBr2pp8fsu5125ZQ4I0WrRIkstk3L5Z/MBseQW0GVzPzrFShWcD9N4vDnQaDzSk1ZRsmQY08oyVotkPl6Qch5bt265ePYHHAbKsAEjHCoYpUBFxaKCzqI9xcN7utjGtvX4p+nRIkOpIQoMUWCIAkMUGKLAEAWGKPDBo8CQlfge8wTDXqt7ud+f5IqC4ds17V8MOpZuyJUM8ZW6wDo4m9jFkWozqe1At6g3+RmNJYozv6HwnlDALGH3dYw6TRWoL8CEU2HWETxyrFMEg3L5kHY5cIuAs0nLv7n8EzVV3a3NvVTw/MPAFrVH1egb4e5QOGQUMHcgTZaq4rkBOs/rO9UbZBOOaqHuTAtuy7nSvSSe4JbePeanObdfB4l5qHhAAfNLVYZau5/0Q7ibD55ZgtDAHaNGOQjldrVX3Q5IZsBiRPZCcxdpW92jJquten5ez7agGQr9UUDzKwqeOodH1NpO1FsX8S4Iz3UGqG7x5qsW4BZwUY9H8fDJrlzBi79p5utOpKqE7M9T+V8pfISvUTXLnFa/BvZj/QXiQ2HQFEDCJjHxx2NgtEPHdt4dsGc/n7L36MXotqxgfgQXiv2LRRfBwp9FRMVRbbD6pMhiZ+5RnwHNt2Ha8T4uydX+l/i3g+pBvjXchqVyMM7WrK4NJfujAAaKAwe2QGmxHoUHcglvM+nKCMMkz9yPBZNSP4dxJzMr0iFd6m24/iyVf6muUs9zOhDk9hYaeh1KCiCdr8OD9P1QOazR3NV31adyGBY0SoWlsOQSpK0ggPlv+b0kS60g7zvk1aovqTaQDDEvQqT+E72q71iYcDk0LEOevqWv6vtWGssygUS9DYPS9y7l1NLj44ht6pv5GbaUdW2fugL23Exx2eT1hXStbhqUryyWw8Cl+vP8xsZQ6JcCvbbCYgqJIJwOTeVjernmUc8WuTJYbjD6JgDbCu3TlOaglVKL2cH9Ni/DgpapLLdj7wS5/LRdbvl0g8LOl+jEtyizij37vrhFNcD5t/KW810OSROYCxOhy1cY93U8NnSKBoe7M5+Xm1fpgHa7EIb9LvOZhOa6uqWu0FerdbG3poKK8sZCrGFzfSHieSUNfQNQCY33BYmLM0XLKTR7Oc3MaFNrYPQqyj3DrNj4t7beme/xweA4JOhudR40ke/X5KvRYRG6AYAJXTx3Ikn/LslM0GohsHQQgZDPh131lgByJSZdLPaveQgztZOPwo36SM4sya6RbkjY+Rrlf868eohZ1A5AbjOEWZ5d80OZNktZ69sUH+ypaxnd38OIERmiZ49IDDaNr9BhOl+pfhemh7mbep6q5klfH7f4CtVWX2GN+19BMyiGSQWYNgamfZomv8oznefAQawcbrPS2jqetcRrgdSyJ1mnr2Ol/JAFmXTqp6wzw/l6JsWSobmPKARO/xpq//az9n805gGY8N/sfBvDzBIywLDzkaa7wMXPDvLXQku56h/1l9K/wTVohgW0xdIZyVz4Niivy+jaIHMgb9nbCxMTPuMepcqTdCr3Tv9AcL0HZXzLLoGas7mxa/m+13L6P3BdIZS2sfOoq6/0P6GK7TUMu5VJ8FUyCyn7Ls9NaKa7gsIHzbAAASboyXTkn+j8J3nEAz24ID0IemFwP/O7GHRyI1DxtMi1r23AtuEfaMFN/Q5M3T+4BgZW2p+ADv138KmLd0LcQ3wlQx/KwDCN+GTghcDFxB544Bo5OPhkiv3rfnWf/qpv8cXW961DjUtQfldLaGKz721Vnww75ANSxSIYKNC3hn7B+uao71HnUgYkSvBQhDT706qB3zeBbFrtYCCbQb6FNJdCYWr67KgVSd9LH7p4d9OD9LKdoE4PrBZjSX5nSr4XsHyf3UTKyseGZTyTeEaTb/OWVqT//d7ZJL//IBjES2Spr6P0H+yPUQEipOtixvILnvH+pfakOiFb6xwShgUNyhuT9FQ6eRXD5telOcEZrMSFkeWLh3st8eDJVz4MD/oTSEmQDpc52Hi6X51Uf5HJ8DiE/xWmeOtA0PkSXsRPxfMz6IxHcFyJhf5Idt3w0LPzDjrtS9wDaiwz/RKQ3AzTptD5/78hPWHksPE3TNZv817POjWg+/kBUcydvoW5lLon8lwPo38Y5IXfB9yHhQsPNN6779pN+XvYkzyCsjmXgfCzR+oUYFN5RPV8uEN6qrdC3NcYzQrY8whfzjUc9KAsdm78mAeK/EZU+N358BwWCYtrzPdAT2RL4KqZ5F/FQEVfj/hQMU6olb51XUe/72IMf2T3tV1/9q8/pff3cSks73a1l3UrGUdDgb1nDMvuAGvdWBh2Lj1YyHMS8YmUkQO8D4b0pSkjeqCN/omXYRPr0mrMmaf4T03Wk35fwvvGsGC0UESrO5hZCf9jvSmohHmwbAGSeDKzWe6bDHyvEyA9mLdQQh5DDyyYI94GxeOoOpj0DufF7+KcHdBXLdQ7bOF9Z1i+kbG/49MdFmLb/6rxJBg4FULKPk98mSXUE9+c/DxFIY+Y4PJzELlBZES2BWKuy6/OyDG9/LKb/OoAv1oEY/hvs/yjDflPDsTJWocbqIW8D2SIG+IHsqPoeBv9PgxyD4dNw5CDYghdyLsIVowgLj8/VATR+S89fAbKOJIwpJunw69teMtRhYPZbMG0Dp4j+K5r8fsvOR9Iog916q+nwP8BeHnpYZHrNnAAAAAASUVORK5CYII=;" vertex="1" parent="1">
          <mxGeometry x="483.65" y="405.33000000000004" width="48" height="29.33" as="geometry" />
        </mxCell>
        <mxCell id="Dnd6SaUCVXXJT1RzdSpy-4" value="" style="rounded=0;whiteSpace=wrap;html=1;" vertex="1" parent="1">
          <mxGeometry x="40" y="160" width="760" height="120" as="geometry" />
        </mxCell>
        <mxCell id="Dnd6SaUCVXXJT1RzdSpy-5" value="" style="rounded=0;whiteSpace=wrap;html=1;" vertex="1" parent="1">
          <mxGeometry x="40" y="280" width="760" height="120" as="geometry" />
        </mxCell>
        <mxCell id="Dnd6SaUCVXXJT1RzdSpy-6" value="Platform Interfaces" style="text;html=1;strokeColor=none;fillColor=none;align=center;verticalAlign=middle;whiteSpace=wrap;rounded=0;" vertex="1" parent="1">
          <mxGeometry x="40" y="200" width="70" height="40" as="geometry" />
        </mxCell>
        <mxCell id="Dnd6SaUCVXXJT1RzdSpy-7" value="Platform Capabilities" style="text;html=1;strokeColor=none;fillColor=none;align=center;verticalAlign=middle;whiteSpace=wrap;rounded=0;" vertex="1" parent="1">
          <mxGeometry x="40" y="320" width="70" height="40" as="geometry" />
        </mxCell>
        <mxCell id="Dnd6SaUCVXXJT1RzdSpy-9" value="" style="rounded=0;whiteSpace=wrap;html=1;" vertex="1" parent="1">
          <mxGeometry x="110" y="170" width="160" height="100" as="geometry" />
        </mxCell>
        <mxCell id="Dnd6SaUCVXXJT1RzdSpy-10" value="Documentation" style="text;html=1;strokeColor=none;fillColor=none;align=center;verticalAlign=middle;whiteSpace=wrap;rounded=0;" vertex="1" parent="1">
          <mxGeometry x="110" y="170" width="160" height="20" as="geometry" />
        </mxCell>
        <mxCell id="Dnd6SaUCVXXJT1RzdSpy-11" value="" style="shape=image;verticalLabelPosition=bottom;labelBackgroundColor=default;verticalAlign=top;aspect=fixed;imageAspect=0;image=data:image/png,iVBORw0KGgoAAAANSUhEUgAAAIYAAABMCAYAAACoCs9DAAAAAXNSR0IArs4c6QAAAIRlWElmTU0AKgAAAAgABQESAAMAAAABAAEAAAEaAAUAAAABAAAASgEbAAUAAAABAAAAUgEoAAMAAAABAAIAAIdpAAQAAAABAAAAWgAAAAAAAACQAAAAAQAAAJAAAAABAAOgAQADAAAAAQABAACgAgAEAAAAAQAAAIagAwAEAAAAAQAAAEwAAAAA0WdXMAAAAAlwSFlzAAAWJQAAFiUBSVIk8AAADVBJREFUeAHtnHnMXUUZh6EgLa3SUgEpLbZ0owW0rEYWDYvSyiIIsgkiIgbiEgX1DxOiILLEQBBi1H8QGmNli6ZEoJTWVpYYIOxKoVRbSqFAwbIvUtDn+biTTA/3LN/33XPuPfT8kuc7Z+bMnXnPzDvrve1GGzVqaqCpgaYGitbAxkUTfoDSbcq7jIKxMAWmw3jYEj4Eb8OLsAKWwFJ4GoxbBxuENhTH2ITWHAmz4EiYAdvBcBgCaXqXB6+DjvEAzIV58BK8A41qXAO7YPvl8Az8rwOYz2Vgvo1qWAPbYvPFsAbs3Z1wipCH+Zmv+VtOoxrUwFBsPAKWg1NBaMwyruZvOZZnuY16tAY+jF2XQNkOkXQyy3P0sPxGPVQDLiDHwRxINlqVYcvXjqwFLY8bVVEDNsJkuBGqdIK0srTDbXDjHFRCN7UDhV8LaQ3VjXjt0a5GXaqBMZR7IXSj8fPKvAC7tK+W8uCnrvoIhh8O54EnlkndRYTnDf8BdwxbQCfe15PRJ2AhXAVvwVRIak8iHoN/wX+TD5twOTXgie0+8BCk9dyjo6K34v5YuBvehPgznknY2Dawz7zakMbHuxvjHoZTYRsI0gHi/OJ77dNO7a2Vamdwq3bHcz0TvpdR2+4Onko835LwV+FL8Dw8AqvAw6qXQQfxuxRHI51pLOwEY2ABXAGrIdZmBByVRsSR0b2j1qXgKNOoxBqw4fy+4zmIe2d8/xrPTNdOdgYb0+d5HcPnTj9OVVm7jGU8j0eX2Bbt1N40e3jUe8p62d6z9j2LHC1mwtYpBtooYRpol8TnTgvrwPsshbwcSWz4NJlXmrTzYBiflqCJ70wNHEo2K8BGS8OGctqoSk5FaSOGNq4A7a6N6jZijKZmd4W83ufwPwPypgqSDFpTyMH1SFZZ2qvd2l8L1c0xJlCre+XUrD3Ur8YfB+/LlotRf9CTV5Z2T4BGJdSA32KuABshDbebX4YqtTeFvQppNhm/ArS/FqrTiOFOYnsYl1GzLjo9O7g+I00Zj/5OpgvARW2atFt8j55XnRzDxaQVm3V66Wgxp0u1PptyLT9N2q1jV7koTrMlN75OjjGSt4lPHNu9nD12cbsHFcTdSRmenGZJ+32PnledHMPvOlz9p8l5XMdYnpag5Hi3rJ6AOp2lSft9j55XnRxjc2oz7xdS9ti8XltWo+iYb4DXNGm/79HzqpNjeKQ8NKdGnce7+U6WnXWeof21OBrvZiXmtPH7HtsTs46lbZBhMOJ9n6wmwu9TLDvLMcLpaDUWDaKUOjmG31dkrfqtBkcMdy7dkLsNF5ZZdar9vkfPK+sles1452+/Gs+Sw/QuWQlKfObX83lnFNrve/S86uQYL1Gbz+fUqMP5QTlpynp8IBlbfpa03/foedXJMdZSm6tzatQeOxOG56Qr4/FRZJo3Ymi/79HzqpNj2NNWQdZ21IWfZwXfhip1HIVNAdc4adJu7a/FiJH2Er0a/wUMWwLuUNJw5W/lT4WsHQKPOyJ/iPMkhB1Hml3+jFD7a6E6jRhWqA1wf07N6gyeLt4MY6Es5zDfLeEmcCeUV84DpFkJjUqoAX+keybk9c7Qa1eQdhZ4vtFJucjcD3TSUFbWVXu/D558NiqpBg4k3wchNITfj/wDzoUrIfkjYc8O5sNhMAYGevLo+sEvwT4H18NrEGzIu2rvAdCoxBpwergAQmPY8LeDX2nbeNPgHgjPw9V0/4Z5cCE4kjgVZMkpaX/4GfwFHgfPIUKeRa/aq92NSqwB5/KDYBmEhlnH/aPgaKI+Bk9DeJ68ukP4DoyELLnt/Rp4MJXMo2hYO7W3UQU14JD+Y9AhQgN5vxRCz/SfL74ePQ/pvC6A3aCIppPoWog/X/Rem7TTnUut5NBbR9ngr8KOsEPrBYZwdXFnI8wFncR0OoCLT5+rt+FqWATmkSedQEc8OC9hm+eLifs1OIU1qqgGhlLOoeBpYtyDXyE8FYJmcHMW2EAXwfEwDop2Cn8/cSIU3QkFW7TrENDORhXXgItHTzldM4QGcfi+CmK5LgnE8UXubdhjwXxDGXlX7fkWjIZGXaqBbSn35+AUERrMRjwbdBwdYjDSMY6Doo5huvNhDNRWRYfTXn5BzxP+2TJw39bV9YQ7FI+gJ4I914baGWaCZx95v88kSZ8895gG/rcKYZ3S9yDlzyXE/xKeTXneRFdcA56KngNh1Mi6fp10I6CI+jNinEeGtfixb5EX/yClcfdxAjwHWY5xKs+LOoZ5umD1199pea7hmQtUF6qNerQGXFM4fdwKThntGrO/jqGztXMM1zWLYTIMdi1DFo2qqgF3E36PktxqnkacZx5F5IjxFYjz8P5RcJRoHIJKqKNcI7imWARrwUWnC0nji8hvUg8Fp6cX4TY4HT7Q08aG5O2OEGPB3v4UvA5FNZyEftZdnJ/1EK1RUwMbXg30yojhcO1Zg992eu8hkecTDv32bBeQjSqsgW46hmW7e3CB6DehEyDM2zqCO4qX4UG4DhaA64MgHch1wlvg7qC/8sTU71R0RuX0sBSeNhDJbe0kGAfa7O7ENA/BQOWUZNnuZoLTeyDmu/reG7TcGTwGNqqVk8W9PD8SlI2zM/wG7oLfwsehvzqJD3hiakO77ngcjEtqOhHXgOlEB5oDg5HOeDH4zqH8edxvBz2hTbtkxTcp14opekpoD32iZet4ru4KzmiFdRIr2rOG/mgIiQN+zl6s0yVlXJwuvk+m7U/YfFTy+l5sl/92wzEcPi8Ej7CTWkeEI4g92IbaDKw4HWMlqDEwo+/uvT/uGHQOvzBbC77TD+EwsDf6+b/CZRBPRQQbpdVANxzjHIyxh8e90wabDTeBTqCDeLDkT/Q+BU45oVE9S3gSgpyTV4PrEWW+Dv/7GmjpWa46WaOCNVC1Y9i7j4C43DWEnRqcY9+ApG5NRCwjfCVMgz3gYTgXHB3S5FzeqB81EDdQPz424KSf4ZMeNMW6nMAd0M4p4nTh3qlmIewDTkeOFMbFqqsjOO257nLHZCdyy74KitYNSTujqh3j0wmz/c3lfAjTROJx2+D2xJ4MR4FrESvtNvgJ7Ag6XzyNEOz7lfbNXHWge+BS6I/zpKU9nny+C05nNupy+AG8AGoS/Aic2szD8n8FiyGpcUScDZ+Hj4JrLNOvhPPhOqhMVTqGc7/Df6ylBKzEd1qRprGCvSZlxZrOEUcH2B2UB2DPgJX5B9gNknJhKspeaG9MaisiToP9QRuC/NyMEIiuppkMjlxB9vShIcB1FOwBe7biXDvdAHH+rUd9zqMDJWUevwNHR6+VqErH8IW2SbyVC017W9Dh3LibsJHiXmpFPgJ/BHtRO5lm83YPCsZZ8Z9tUfAjlSSzk4yAi+Aa0LFLV9WO4QvGepXAu1HETtwfAmOjuHCrUy2CeEcSnnm1N66EYeDoYUMHWZkvgCPOaoidkWBPyLp4GO5rWbM/151b9zrH1mDHuboVV+qlasdIThHthtSBvrANfxLofL+AYyBoMTfO32vANYkL1r2gneKRKjxP2h3iO3m9k8y+AY6itovTz5/A6SnIEc1Ro52NIU1HrlU7huuBWPZqF1lBNsBgnMWG95wjuYo37DpEgpKNrWPNg7sh2GQD2DCzoN06g+iOyVHMUcMynS4dGXWWoyFoUrgp+1q1YzybeKHtCccHT1cRXtiKO5nrsTASYllxZfQYR5Fb4PcQnMZynN5skLIdgyLWk47y1Hox79/qJx53LlilY1jJLiBjTSawHTwB9hLnf1EOm+0WmjZaaDjTlaEyHG8gdsbrLz9fmV2DGbYH8qK3Jz40jPCR4MKq0fo1YNsMXz+q0L+1TXxkYMGqHeMOzHQujz3/dMJfhHZTBtEDUpy/GZQ9wgQj243ASVtC2ryrU+z4RCIXppWo3YuUWbBTwxVwFoSy7RWXgTuKReAC0biZ4OJ0IEouPncjk8lg+c7dyUUwUQPSm4lP2ZC7gmX4frtDOFjjNlNusT8JS2ATcNe0H8S6n8BAHS3OJ/c+NE5uwg4mOJ+8DoepYAUoe8e+LQwPRs7LjyYymEh4LqyFB+CnMNgKtpzlEMv3mQPPgYdtTpFDoYj2JtFN8Dxo21bg1jvIuPkhUPa16qnE93H1fyJYqcnFFVGpcjooYq953gBWZKzRBCbBWNARO6HbyCQ5OjklToFxUNQpSNo33XncPwF2gHi09J0WgT8/qERFKroMQxwSD4TZsBo8kUyTFW8vvxbubiWKHUoHiJ3A++VwBjhCxM8IdkQhT3v3KZBWjucSf4OVkLSZqD6Z11K4GUyf1DoifP9Tkg/KDG9cZuYF8rbnTgCHUZkIW4CV6HD8IHjI8xB4eKUDDQd7pGsG5bphFdxnIJLv9gk4Bpy7HZY9R7kRbgF3RDvBKFCOZG6nnzQQyV48Dca34rTBNPe2wpZjPifA7uDI9Apoj42t7TuCI4iftZF1lOlgvr6r4WXgWmgm7ApORdq7EP7cuudSjbrtGMm3HEJEsMkKCz0zma6/YfOUuNf2N48i6S3Dd9DuwZQV7DWfTtUBWRXX/wEzMz33D+YapwAAAABJRU5ErkJggg==;" vertex="1" parent="1">
          <mxGeometry x="120" y="200" width="44" height="24.96" as="geometry" />
        </mxCell>
        <mxCell id="Dnd6SaUCVXXJT1RzdSpy-12" value="" style="shape=image;verticalLabelPosition=bottom;labelBackgroundColor=default;verticalAlign=top;aspect=fixed;imageAspect=0;image=data:image/png,iVBORw0KGgoAAAANSUhEUgAAAIQAAAAsCAYAAACkCxAkAAAAAXNSR0IArs4c6QAAAIRlWElmTU0AKgAAAAgABQESAAMAAAABAAEAAAEaAAUAAAABAAAASgEbAAUAAAABAAAAUgEoAAMAAAABAAIAAIdpAAQAAAABAAAAWgAAAAAAAACQAAAAAQAAAJAAAAABAAOgAQADAAAAAQABAACgAgAEAAAAAQAAAISgAwAEAAAAAQAAACwAAAAAnGmwugAAAAlwSFlzAAAWJQAAFiUBSVIk8AAAEd1JREFUeAHtXAlwVdd5/t7TvqMNtIDEJlbLYZFBZsfY4HqRx25I7Zg4dR3H7XiSNnU7bRPPxNM2k87YmbbuxHEST0saJw52PXghBgI2YEOMhZdisZhYQgZJIJCEBGiX3nv9vnPffbpP78mRFD0kqM7MfXc799z//Oc7/3b++1w+FoxweafKh+9sA861uka05Zw04LE1wC2zgYSYEW16vDE/B9yR4ERCjAuZSS6MNNLOtADbjgInmyJB9Xib4kB0JNgwIRGYmgUcqQdcIygk1FR7N9DdGwmqh9Zmb68HlZ/V4eD7R9HY1Iy5s6ZiyaJ5yM6cMLSGxljtiAAiNwVYPNmHbUfU2xFExBhi3tad+/GT/34N1afqIFEYHR2F9WuX4NEH78HsGVPGEKVDIyUigEiKA67LdWF+LnBMUmJoNI1a7e273sUL2/bA6zerPD29eOi+27HshuuQmBAfoKuxqQW79pTjZHUtoqKoddlBr9eL/e99jDkzC8YBEeCU42BWNvCVEuC7OwDy9aoop+sbUU4V4PF4jarr7u7B7etKIfXgLE0tl9Da3kHBEGwltbd3ornlsgGH2x0R88xJRkSOI0Z1YiyweibwyI0ja0dEhAt2oxJl3PrsnvCyLS01BQnxkhjB9+Pj45CWmoyrFQxiQ8QAocazkoAvLwb+eg2QTDXiDZ5QqnJVlpzsdKxYWozcnCx4qCpUeihFFhYXYfWNC67KPtlER8SGsBvXPpOgeHApsGwq8K/7gPLT0rdkILf++IgoOp1EjcDxA1/cgOyMNGx+cQdqzzTgpuUL8NUv3YrZMwtHoPXRayLigFDXYqJoZOYBP70XqGYMoYKGZt1FoLWHoCAqtMk2230cqG0GPP2RMnr8GfDNMibvuGWZ2Qyyg7XHgM+N9RuDBoTE/duVVlAoOLbpM0aU12MbXjynUeYJMsR4jQ95enrg7bUsTBlkbgGBCrusZAJm5sehuhE4S6AEmhrr3LPpu0bAoO4MGhDq8/bjPrxWYYl7nZuJzIE2ACAIBAoPB9zDvX3s9fA8cE11rHO5aTTfRQP+fnMtDj89j5IiwZyP/4weBwYPCCIgK9mFJBrXlzudBLtoVVubh3V4SPHvgoeb1ICnV3s3QdJrgYSVoqJcPKYUUT2CoqfLg/LKNkqaUMvd+aaxdNze0YWWi5fR2dUd8ErSUpKRPiGF55oufUXgb2vrgNxVu8gTmZiVjvg4umP+0kNenDnbgO17DuH4yRp00LVdXDwbG+9cgwy2G65oKaqbkvdEZQ3eOvARPj5WhebmFuPpZLH9L8wvwq1rSlCQn2OCZ2rDpqexmeLYeEqWjs7LyR68hFBDcyb6kE0j8WIHAeDosxgQFUVDwS42Q1SHxxaDrJeqivWopIOFRw8BIZUUcxVZlfvLK/Dkj7bg8LFKw3wXB+aRr9yJb39zE2Jjg1feOjq78Pqu3+JbTzwDF4GgQczkAD//9D9g0RfmmDjH9rcO4hcv/wYHP/zETCS34aEP8bGxKFu/TGwLKYp5/GZvOV58fQ+OfFKNHgJDk88g1BLf2LX3EH70X1uxqvR63Hf3zSbI1kpwvrxtLx775x8jNsaiVRN096+eHBogSqe68MYxoJK6PqSwA26CQoMvaWAGXWMuwoQVc4HgsB8MVIiGJ9prqmUmqnKghl1zTO7F+MS4GKQmxBkJKcrjYgYWuDEMbSezrqQn8UBJG0twuKDg17e//xO8tmO/6Wds9OBmxem6c3jymV/hzbffJ6As1RsdNCnVnAvRlMZdXV3Yve99VBw/iU0bN+Deu24y0kK0x/pplvsssA7cA0Ne8E92MrBmpg+/awBONwdLCfN6SQMh1EdgRPcNrAG7bE5xjT9mpyNZlTohs4SaGdmSJjwcraKRsomLNA3sZ0dnN556dgu2vPoWEhyqw361yAlXtKj2L08/jwPlH3PyWXGQ/vX6shosnorrZ8814mdbtpPd7gAQ+j83JEDo4buKXfi00YeXPgI6LWAGtylQSFLwalS0v3naDaZzUeohRZTq+J8yAOqmhOCFVdOB/3gb6ArXbvBbInJm3N0BBmGkX9jNJduDHx7Dc89vC4DBQyb5yJkcxjdSUxPRScBE95M6bbQr/v2nL+G3hypCwOCh3s3ISMXcoqmYnDcJkja19U04duIkwdBE99+NhsZmPPfLX9OuuCHs5BsyIOI5ng+VUi0QmK/S42jtMuMbxC+pDakPL/e2ZSEAWI4pf3ViOu9/zB1FRrgxjUvmpYU+7KuiKLW92KCWr40TsoVivBtbtr5p7IW0tGSsX7OEtsJylNCmMAtmA3T1xdf34vCRStoLVMtqiEX223Vzp+PL99yMm1eWICWZ+QeOIpthz4EP8TMG0SqM0XkRr+08QEkROvyhVxwNDXSYmwr8zVpgCpf+/7Pcih30V30GFFQfRnQJ5SLe3wGz40x0udyQMHBLkvCiQPboShc+rAOa2gZ6+7VxXZZ+y6VWpDN/4hdPfwdFg1gyP3u+yRiJ9dzbYOgl0zaW3USDtgxT8icGrju5lJyUgNtvvhHzmLPxzOateOWNdyhd2sTykDIsQKgVLXH/WSmwtgh4nVlM734GNLQCbUxgkcdgSV4ZmFG43M5z2QssAoiPKHD73yxTwx3lpddiqZW5OcDXaVQ/ewBo5nPXckniQP3bdx8dFBjEh710K8/UNxj1q8GU/XDL6hJ6D+tQMHnS57JKbu70wjw8vKkMVdVncJRqxAaV88FhA8JuZFom8I2VwMMEx0Wqjw6GowUIuxw768I/7ohCsz3jKQ1MZyQaVI8di4mmHnLAVcvmEiqyJy7wuTBAtpu/avey7hcWz8KyJcWD6oMGXzZHE2MHNqu0sipVo5k/mCIATMmbiAe+tAGPPfFD8thW6H1PR1eeB/70hWCm+7xU4L098CmYxNHVuZehaA+vSdT5uHl1zX+skLQVquY9DjIVBWblJuDhW7ORlzvBuGXScwaRxkXqI8RFg1MSIop2hE2FAlr3LwIKpJLeA/631kqd6yP76j7SPIhhrEKxgcGW8zQG6xi06uzqMRNEAClZOIeLaQUmDjLYdpIS41E8bwamFuRyUe58yGSLTmO0uImimWMbKD6vIolRFEm6LjBwHYIEeD3R1jmve3oZaTT3GbpmNFIY8prnFJr2oKqhB11s81sb6avKuyU6TZ6AAiFGOpAtxqjxcBdjvIwAAf6DlfQ6rueiWCXd3EOnfDhUw+Rd2kuxfXjq/8jVcc6uK2ZQNG3yoOk9XVeP1tZ2o3I1sRQ3mFdUiHwuwQ+1yKZYwKX60zX1IQZsdDYjohMYfWym/tfsVpErKJ1uXswZrGLd8hhEGafRX9fc8Q+Qj8aBi4PsZi0vreAOupMd3YGKFijULgFAjPGcKGLzbrqjBixhdEMao9mLp2hz4c8NJdfOjzNs/ft6VV1zzoTJrQgmJwUlzKTsDKRwcIda4hj9nJw7iROYklni2FHM2QYahsGXNXaW6yj3MYqDLJGvTedmo/6xrhEA/muKOyiCZ6779ZPGuL+qMhExSgpJBquuJUEcdP2/ODQqdJA9bbxwkWsWEq1WSWB2VmpKEiOO5N0Qi6KlKYlx/kke/LDBwaYSH8OuwTfMmR8U9qC5ObIKOmk2CyRue0CJsgBISKDbPmc95UJkxDukhP81AoXaNW3QwHLTBR0vA3Ogm+FnzWi7xMVGhzUK7fuft9f4JTB0Hq6YUZjJkPF9NOJi/K6hs2KIpCAoNPhGrZgBlfSwJIibhqE10PQkdMz7qRT5syb2qaOgtm1QsJ5sjPEyMAdCpImZYyPPs8C0fGwtsHSqy8zoELKC1IdmtQUKIc1tSwqpCw6sNgMK6Qnez+AXXMtn0KYIK6CIA4FC7TmXT0MIGL9gJqFj0vRSWnh9fRJjKBxSLEgBrXBDEgCEbIun7gLKrqPBEq2YenARQrU6p+iipTL8NoUBha0y+uwJgUESwnyjwWDTonz/ekZws+bM7ZKECJASpsb4pVTmWsQ47AUtjLV3dJoQwFC5Iw/lUmsHeR76ZNAopNOl+97twPdvYxwhm3aF39YTOLQJDGbhiurA2Amc2cYOMOd+I9N/TWrEqBs+V5DOwBWjj9IMYQsJc4A/bJUrcZGQDWYS6ZJtEyKurwQx/d6RNzEdcfQsbE+wi4BoaWlFJ5fPh1p6ejxousAkmjBMDzFRVeeOYjdWzgQ+PgMcZ+Cqnok11veUcjjdzJh244NTbnx6rofAsMix2ubD5KmPa/AyRyTmNNJaEFtayFS5dQTbbt7nvbFY2ujnO2eN1Jjcuv6u2WjQnp+bbYJZEvcCqNSFciIuMAsrn5lOQymSLEc+ORm2XyGAsBtWwGrlDGAFNw2gPYgiRusV39tJQDRQUhADdjF1/CAwhFNt2EXG5UZ+sqD9428wNsUQxFgrFSc+Y0f7qJJ9lM7l5BjF0Ue5TCYg0rkqKnCKtwo7V3BQa+rODwkQJk2PX6gpWSac5OsbsQE6rPHWoMvG0KZjbWrM8ir8BiaBYNQH97axqXNn0ddcslFefpChaa5X5KZxMYyutZa6bcA561/J44uX2vBRxe+CXLsMDkBWxoQg3X0laXK+S+sWUwvykMjQs4r4f4SDqoHVjB9sqT9/AS+8sjuon85nhw19AwgixMUZpbwHu9gTzM01ENkcThGsOgLVHC7MPb7e+qLrAqX0+6dgPgx2Shu7vZHY22J2oLZ0/4kfbDZJrc5ZU8R1AudHvgM9fyWui67VXPs4xAUuhbB1rrjES8yNLJiSgw2rb/i9ZDQ1X8Kv+UHz9jcPmgBiuAeGBQgNvwwwAwrFG5yA0FSnfjOBKnka/RHhp0KDr8/7tMnojFRR7sD+9yqQlZnGr7ILzP836NN9gaCLBplm2fMv78LWN/YZo82mQ/fW8rO8tFTG9cdIKS2Zj2mFuajhopQ+dRDfq07W4lkm0eqzh3UrFock+Ip09fVU7Tn8/KWd+OXW3QYMiij3ajGqXxkWIBR9jOeTynNSypeJJTgaFmC8Po/xRAbAg6N2ZA/PN7bg58xmruKn+8aXpxpLY9hW3kOzFovIlE5mRcuCDxQyMJc6e83yhUjtl30UqDMKB6nJSSjbsALVp+vN/1IIELIpjp6oxt/907NYung+/qRsLRZdP8tINmVhV312Bq8wgXfHnvfolVw2QEpmn5YsnGuSbTQ5nGXYgFDASd9oKIVOpT8o9BrFLUa9kATNEDHH53fROlrt5Izw1HEhF3/50BeROzEzSPqFr31lr25g/sPho1UmL+ISM65s6SxQ73nnA2ZXHzIZ1UralQHZrrxMSgPjKVF4K71u9fJFWMAl8J1vlYcQT40+vDKdq655NAqdyTAGFDIqzWZFLscAJIbUQS0gfX3THbht3VIod2CsFc3ob37tHpMYk+D4ExPRKTdZ3od4rg+IlLKgTwNstzmBknEV1eDf/sW9tD9say+4h8OSEGpiUb4Pc7lGcfxc8JDbkoKTkkEsvTT4fvDrI38mXansJIVq7SX9/m8VlfpTkEIaZ/f/8Xp8ld8u9P/Ypv8z1rme9PeRHdbRgCXopn1i7wd8KuyN5KREPP5XD6CQaXMv0CY4SzfycwuHIDsrA3f/0So88sCdNPH0Xnuzjuznhw2ISakuLJvObKY6ftF9wXJF7UYFCuVMusMsltl1rtS+aPoUPMW8xQ8Of2I+dTtReRrnG5q5lNxtgCJ3bu7saWTWStywYC4y01MDYvjzaMxMT0Hx/JlIptFpi+3CgpywalLudzb/U6KUf00kNSoVJntA23CLpNfX7pckK8WrtBH+Z9s+E6gS6KWpldIvugqYMld26wrcc9sqE6+QhGnjP93kUB2W8j8u7OVzfbmVzDb5BZrm8vCK8iefO8jtXSuX0ikLJJIWUIr84G53RL2I4VFuSYT+BtVw2xoLz8nrkEdVw/+qUIp/SnICcidlmYG3ATsYOoctIdS4/jxUCbEKLG1m7mPQ3wUSnSLECZLBEHSl6lxLYBDPJIXycyea7Q/h4bCNSvulExji/sYKrlFwUWzOJIZUaTcMX+bYrY7vR4sDf5CEsIlm8g5um8+vrqbxI5tafj/wKfBBTWjqnF1/fD92OfB/d6robjxFrTcAAAAASUVORK5CYII=;" vertex="1" parent="1">
          <mxGeometry x="200" y="194" width="50" height="16.67" as="geometry" />
        </mxCell>
        <mxCell id="Dnd6SaUCVXXJT1RzdSpy-13" value="" style="shape=image;verticalLabelPosition=bottom;labelBackgroundColor=default;verticalAlign=top;aspect=fixed;imageAspect=0;image=data:image/png,iVBORw0KGgoAAAANSUhEUgAAATYAAAAmCAYAAABOHbeGAAAAAXNSR0IArs4c6QAAAIRlWElmTU0AKgAAAAgABQESAAMAAAABAAEAAAEaAAUAAAABAAAASgEbAAUAAAABAAAAUgEoAAMAAAABAAIAAIdpAAQAAAABAAAAWgAAAAAAAACQAAAAAQAAAJAAAAABAAOgAQADAAAAAQABAACgAgAEAAAAAQAAATagAwAEAAAAAQAAACYAAAAAbsnuUgAAAAlwSFlzAAAWJQAAFiUBSVIk8AAALr9JREFUeAHtnQmcXUWV8KvuvW/pNXtIQidk6XQHAgENIQsBoigYFEWdkI1NHRDUj09lBHVm9IkKw4zfjIM7qIMsIdDO6AAOyOKEJQkJRBFI0t3pbJ1976TX9969t77/uW/p1/vrLKCQ+r377r21nKo6dc6pU6eWq9VJdxIDJwAD5RfMG6YSzqWWNpcapc5Sygwlm7BRusVSal1IezerI6p+7dqqhGQ//rz5FZZWj2sccfm3XUtZT1avfPDLJ6B4J0G+wzHgvOX1ixmrrFRFinYrp+Zc1aKu1N5bXoaTGZ4wDJTPnRtRBwdcrhPqy0qbqQi1cCoz5BVO/hFuw9uUPbw12ryT10CwaV+FtaMn8I7cE+GmfN9Wf+J+0p3EQL8x0INgM1rNWRZRwwbNhby2qaLkZjX+yUMqFvP7nUOnBBNUfLzXYH0uWWBNLl+nfuHGml7YEivaAzHDA2+b05Mnzwu1FDuDbG1OR8s409d6JMw2mHIN1MpYFO4g3HYYttxrjPWG5Zi1ToO3f+3aya5Sx46Xt63mxzlj3VB6I3LpBsCeISKseydt3VNY9ylO+p7EQH8w0L1gu3zNEGUXfxCGvlvblqMTBc+r6nm/9D664H/VY5Ma+5NBbtwxX20Y5HnWbEvrm7XybW3Zs0K64LHKb7u/qPHMMhVDlLyFbt68efb6emdom2U+jNrwEUeZ2fBbqTEa+SaagygYJitxU9xIGbXxfU8dTpQ4z1bOqPmNE533P2uXVTW9hUX/i8xqwsyrypXyLqZw3Qg1UCl6mDh6hhC31uDl5N9JDBx/DHQv2KLWcOXrT8PRJQwKInD4R7Wl5oQGmNf0NbX3aD/8vy3bN+9Ty96HtpK/C4WjMxiG/C0EjlALRhzF9O7zjbbOrbDUf4b+2dy9tkXtPfECLmZNmlE95rV662NK+5+nnqdRC+G1DOv1VCkJt9MXNiMzHyl3WSIeerli5rxPlyQG7V2z5p5kT4nf6f6Wcu8El7M76WIubbyCDuNF5auNWM+ilvKHJ/zkvsLD7kkzxDudKN6m+nUVbJe/Wqh8M0Fb+n1a8Y9kE4MubgBlvIjXC6ywu6q4/LSHrMptTx85WLZJVfVtJyuLtZV7vnUp8uw8kQ7Ay0gRG6KvwOtLyaSaW+6omLrDrKj7mtpPpE48chywhJY2cVvtx3yt/hYzziVAFEF1tE4qUYqAO8tTzlltJYdeAtC7VrDRphONUdBJqtl4b/J9dZuVVI/Wrnl4/9Ei+WS6kxjoLwZkuNXRRd2xlrY/qK0QWhWihamq4EIaBcKIqSoSzLS09X3LeL8eOGTb14d8YeekjkA6vlXeuq/EMfb1JFzEMCQkcACWutqjRuGHc2xLVWHQ+l7FnWq2YqKhPfj4PFVss29mKHk7DDgXiN0LNSlbSuwe4aGeawvXXhhWtA8e5erowNLxF8Ids/hLftOG8TujdmmvDHIS4Lg+0uTef1Ko/SU33TuzbF00NltFKyHRS7XxEGgi2aBTkXDyLBdyLXVXDoFTkHyVEPSnh96850Uk4a9VKPSGfaRlz857RraWfWl71IoOHBe3nVuV711CwmEZoRbcu8Gp8RkSarWYYcvgyoj6UY1ST3UTrd9eUy65uqjliHeNUeYmBOiEbgBg8tGbEV4vUOPfI6Y2KRNqtDzTJnHjBfGQSoYijlaDfGMqQMvFeE8H1rgsK3cD9N3iNe59n4qElKGjgHpw/B3k6en4mKakWvtuwcLJev6lYKCjYPvEy2WYyqdBlhNSigl6CA8dLtHghGwDf4Sc1hEe0fL0WIh6nva9LaY0uqXstsOt2hpYyOz92TD/ELS+kPTnGVi9IsBgg1OqmHTFvcbLM1CEWrzJnU4Zv41mIUPqXE1Q7IQbmCv4ge3bT9WsnrA1j1nO1XPmzFm6PXHKabayLvGV+ZD2EMnvYufGm3WIvi7jUF+TtN/+SH3xu1mTzaDj5P0txkAugyvbLpiBRnYhgsvOCCA0sqwwyvplhqfcERapcKgYTS5KnEn4fQjZ8XFCLiX5CC6Gn1KzdNzUS49VJThB1OUmoZb1GKkfAS1HEpW+Ud8xxmf5Rjv3kc9BCl9ljH3JgGTxz2tWP4DGlt/SjWXLlrl1Kx7ZWLOi4mfJcGS+CbuvnTHsqCf6wE4sdxjXj9odc1RpmaB1jhnSSQCdMfB2tWumTd+qdj2R9Twq2O1dLJMGdK3nIZjOwliS1siACfeLQOt8zwg5JFs6PFcApp5TaURNyw0DVi+OqOKegtX+UBvTx2xwrnzPglFMvV1ErtOkVpmsKf8uqvkbL+l+fdOaKrGlEXw0LuZvWaZkuNpWl2dytD1nR/OoM7WthqIhD2P1yEhjqouUXrBPa383C0oOu75Vt/GVpdsBmXe5pky5uqi1MDFGeT5atIVy6gPKPrDxlUk7cgX2hGkLRrMYdjyTJ8PBw0jlMWi09D7jWQe05dVvePmR9X1VRWCEHHug77lkRD8Y7Cow0Zx0YcxuI90ie0rFefOzEypSJsty/JEFu9ZJ55AT/6geZccCRFyQqa9l+371pZPX9nPNpS6fNX+85baPEASe0+RWZ3ZG5Fc4oyvPu3IsA44yVj4Ow8ZIp149RJmFDVDefswr+2nrvbWrH3kdePm1K5Nd5btZT5kID7OMGzKOrT3Xa7G0s7tu1UOy9CqAUz59camx3THa1+Npi1HgfhCsdJjQnYx/doYiyXUsSWrOxM+vPt3HGjN70aDCpBrva2+4r6wSlm6dolX1YKMWHKLOhzC4HhJ6SkajNVuWjYW38lMWJLeymfMKinxnotH+qZhsBxpgK7+mFNi7sb/vE/y5Yat+4wtLt3VfupRvVrA5Ef8cyHsyQq00I7Q63jsKp9ywQLgh4HoSfqm4pMdGJ3F6cTCjchFujzJYfKWXePkHRZxzLe0tAnC2riSW1e7PxEP2d7a+/DCLbt8Sp8eec90AJ9J63s64dZOyfRG0EL2KoutmRS5LvOS52bJVXcWMRU8Z5f1qw2i/VlVV9bk0ornAm6SN/qm27RHABu0hi0o/NHny2r9fuzbmnjW7dkDcM19k6HwZNsRKopQEbCFtIgksH7zobRNnLnrONv6dI6K7t/ckfAB8s2fcK2j7AgSkJLf4k21TGTdUa+8aFjp/HJgEBzlxY4mgZbXui0+YrtSyg5nIR3mXafvvC91iO8Xmi0VUhfZNWbHxQiSHMHFeburUG5xGv/EOhNFsEkhzeMqyGuPFYUYeansfQILF3YkSC/PN4s/TkcxhgmwMdS6mAWCndNXlplWc5S57J85Y8CfL0v/Oms5Xc4VTd/mU14eLYOZPKMu7ibTDWLHgO7b1Jh3gvyAwlpXPPRC2GvZdRodxJUKN8utRVAG0gBEyBPUeDwcSbfa6ipkL7ra88AvVq+8/0F1evfmJwIn64XEsj/o0ZpdpnjZCP0OoICQWqEJB8oC9aXheDoXjbTXls6ofV97ih6hnz3hEeI/dooaFLWsOAnmhr817gDkimGhM1UH+BZV0wbrRTqq6iTMW/gFe+UGkKbG3u86HQqWdb0UgUgz3IoBkWNk+bEwJJrIKNK+eBVyQpku6HDiZvHq4g5RWCv995aoVNf+oj3ohcAZ8+dz/E/Ea9ksPdmbGT+qCe0YZf+nWFx/elfE/0XeEFJMN8RtomI8iZCO95QcPFBF+Nr3VFBriUxPrrV/5s67+3sZLJuzvVRPx0dQsdQppT+UKKopGOCBe3BSdPH1DWdw1SyH3cgIQRsJpXVwYnwngZhxTR5/c1nbK1WPnXLFyy7LfNnSOCd8MgkokH2DhuoJjIgHBqZRcOS4oVlO8jQ1Tx8cNJ+tTgSrwfPBrxZtD9A75u7a2Q1o5zlAIXISCJPSg2oYQRtc+oASaXsLoa5kz+b8IF6krRQnqyGMXpEi7j5aLCahL4f//KJ+54J66lUt73DrmuwnthCJF9PcjSEfbisBS7H6xC8+Zs6W0uSH+TYTB3+BfRjguN8/gmTqY4QQInmZ6dvLu8unz7qtbVbUuiJ7H38QZ80+Hb65S2rsRGIPIIlPBnlIL3oZSrsEsohhMy/yB924F29g510Wd7YmL2MnzReJ8KNUR9AQWSEajxalzEaXnINznJ0qdr00675qnOwvrLAG4U6a+yHjkWzToD9mAXK+1dIC8cfGXFmoipHgN3oMHnsWv05VOl+ufTthjiQmQlfuvcf14SmWwxKK3uHmFWQf2TqKUZ1GO7BAJZKNE6Be1XfRSXkCOQ6TKWYuvQsDcDknOgyh6FWqdspMefzi97heZlLm7/Km6cwinSv1wsgRDD3hv0vKfJf/JpEwJot5BQBdmCAl/G0lELmK7mQi8k64TBibMXDAT3e4bMNs/gi/WM/ajbVJ0cCP08NWK8xdc0Al0r68Bt2kzqDme+BHDvmvJOy3Uek1GNGjPqC9q27n29FmLTusjdhA8cfrCD8Ivd2JB+AoCZTCe/aO/XjKZOvXyQrS6z1CHf6Wz/xBXL7E7BhHTgZ5Po4O927WTV8vwODdGu8YW066r1HJ1w84/hdqaf8kyfFblq2tA4qmozeGUgBOUQvOdBVnwnhJ+3YelBF9uxp2eXer0hu+q62mhPVXHa2M8y1EQDAxT0k7KqcwfGTi9uWH5L49ZI8yA7eku6nuh0ef7vv81hFNlh3iUhbKJDRFtiGkSpZlBhk0YRvAsWpe8Z1yIUfx833f3Ya/ysNH8OROQx30mWZ0C0YxMx20CCQch8D3kVU97CXpO51+mL2UoKdpi4GjrsG+8m9xSJ45Hh2U3wINcVDxFEAIioHcRgBnCF0/qE9SJW9qlQhOW1Sbhf7Vu3PnzKi1fXUunfw14zK2H1Jk21XvA0W76+M2EogWrYWBGtK4huZERGh9lsNh8ypSr/7jn9QfyGj7D0MMZlM1lwHklsEQ7YgiujoDa3VxbCN9NfgyNGc4pNYywXKYPYTlYiGUU25f6LlePrmL6wtmU+WsoAxel6LJDVDbd6CMpGubIA2UKiSs2Cak/ckVjMzYd6tohNRGOhIuvJv31+J/RKUyUHCkf9fG3guMm5IOMuoaRTBaAZ0cB1HUotHtDxLXaGM3ckxnRtAu2DOR7RrVg6f2TXJFr33jAtos/CYIWo8VNCWSaaGM5giylvcGLaX8W7ga0HviLTY0rsK1l4He+I2lojOeIeXt1TK+r6xx+DO9s+RwDYsoyPYGUjU2eT7EDovYYwOadFJvEEGwS99IQo2jw7LAGDDZDbPeyV3ZJU7xo7c4197RkgIowLNDOZVj9P42WdzHpAg2P3amgWH8W+1RDefnc6rq6J0XY9OoYGkm4EI1c2I30VgZr33Yc5/frX3xwlwRmnBwzpF37Wt659JkQHD9o17Ll2KGV+HcUbJb+GU33BIM2iEwo2g9Ztr6D8srwFKcPku453h/H7sfQzmsVX5bVFGDL87zDDSe8Y5H8ToQTDdb1nS8xnJwvNcpxrbDGL7Ew3Vez+uE1+GcDseOFmsNHpjE7fwMMcm2GJkGyjCYuLClMfoWeJpYDq+dHwbFWC9B0YEXwbNRDYPiXG155iA4v6KiCtKIRHXGKz6fv+gwNOT9FD4wjtR5NmukinDcvr2KpaCeHzatsO0dMGfVtqjCdUNgzx2m1iVz+m2b9bXOi9dWdax7P0q/EyrHHXUL9KizLEiHVwU2ctehsys+6Un12DpokzioEwr10m08zebYtN9HkafNGJBznY9TxU8iM6VkcSses/UvLf1+9CvkRDOu7CrYcSPFfnbUxHjP/OnDb5kcsx8EmoK/XdpjxrSzehT1zLzBNOHl2vAd+OTA7POpgrdMSZjt+su7rarX6hw6hx/xC8QbA2ikDuUBDsGEgri0wyQPHDLwPAMHMo5W8HlvIGKLmEsabvrFuUfsPPr+h7kl6unbiF5DbV1aJAPjP8bPnveK4oasQLzGioEDzz64N0HyhPXTgx1QdEyz5OxguMDhf4TTKiSRLJd8Oru7Fqn0w7N3YLHYQ8FMuGVphbhODihmNHaMCO0a2Q0jbhQIiIpqGmKMFyrmNFGnBZlqghNfDTe6j3Rl3BfZfq0sM0DNotSlUewD1lWpID9LI0zVewnueWfbDneuW3kO8svL8BVs8z6yHL75Kgw4M4mlGRUp/gOcYF0zUkSZ4786JhGqkeW5KOPqZ+peXHFJqSYd4awKBY54tn37VDq3dQkBLHgUILJyZ5Pi2aHwIr46uYpMzyETMIgTPJDLBdJGVz01Q8q/pqO4qSZZs7GlfdJqG1wF1/Zw5MXvZsphocTkuZmm/5ovQ9sSsJ3WhfCvpvj+/8dLyTRnNKxvOw9pXqnbPmTPnFzuTZevQUO7EayZlS/GWMWfT8V+BX0CTuQyXC6P9mSFqwy/Gbz3onfofyo9coTzvcjSfZTDKQRpH7FWBQAuEXOa5k3BrB5Z6Itjl2k8L/r2OqG+t+7peBZAs9jrHP9p3etRiGiHHpoS+oNUBqE6Exwl1oZAu0yp0VRbxqdxeRlDcXrdq4rNpjavHOm96qape+8mHSX8XDR6oXgEIo2ayz3Ve/navoLOp9n19Xc0ob09vQkbCLM99GWn2z+3IgfxYKuPp+Nx2v3fxUyyG2m/fAlIYGgXNJ3+NrPz8u4j2XupOqOVgy9Qsn7R7wLDSH8A1r9IyqaEnWhtjuLLy6fMvYckOAigPxz5cOrq7GIM+X/+SCLWenDa2E9kGv30bXmWIl5KbPA/Fpn5Wl1Roa5ygN5RDMNI2tSyJ7kE//C8v7n2x9tLK2p6EWid4BqHm4pcFIhN6p0+vlWHy+yhLZqgqHe06X9tXR4/E67sTahm4MksfCsX/BL7+HuW0rZ03dBkdxbRTplwSmFL6FmwZiPfo5IGfDt2x/0cjntjz78Per1TkE0jz7zHOX4OQS3IhrBAjaaGWuWeSS7fPsyy83cbDT1DX399coH5Y8xW9ORvnOD4IAgFXwMxiRisNzhqit2oqj+xLHsesuoCqPP+jJb6nT0NAjM4Gag7V1Ajwg0ceo2NuF1TZCF0falZXbWat0K9AaT2hQiBCl7LXdkhDcXh48N7Xn8beY8z6urkTq/NZMkKeWzztPIb5IJVfCv54bmf3ldU7PlzWlD23FvOCPp12YAgeOLEzbg41uEvXrqzKY/lKzF/z+D2trNr4AcwC7YugCdhzAIr94ubidhtnENDdH8tGyHObG43+ePOqyn3dRcn1q1k+pjkU9tfDgbuRMQHt012JTWxkbjx5HlMdKkUhqLBsu4zX9KSRTpLfCiuhbtm0ZnJjb4KnM7wu7027S5O2+gAMwBA8tbYJDGxhIcZ/bVzxQLdLNzrDkCPCCmz9OjOuzyFWUtoxfEEZRxQXDQ7oNMP0ndP28a7N7n9Tz4+/7eBrVvGAe9gHekbSdT8K4pJobgNQi05F0GHfCrZb7UaYbACgDP9WozE9UZ1QHFpJ7Bx7QB8Z9js40bipMKJLmQVCLEhWOHRC14Wilg0Te+qJc74pnkCec8ghhV+KQO/6PApuRlPLO/OQ5x7ytfNDSv8PVGAggATWyKJgd4f6eZ+AfPU6KR7tBzEa2yDUtCcMYHMJ5wkTBEPTPvN7B0cYu68oZCdazvQtX+gqqCk0LpMETxyKtuXVWaXRgz7grYEXD2NHlSYVLLNrR73XJJPSIffljjBMXDekMdy8Ja9OMuYPU3PadupR1QAeTYYyBHYod/HkOfOK18qOmfQ6yXCJNxht7T2Epcsg9TR1qCwvHY/DDIwbGeAoby5syEhKRnvCnXqz77hPpDPM66aP2AmvMPEkB3ZMRoEYJIkocbHt63N4XJG3YJscM+Gko4Zhwy5nPuAmEsO8Qa/Fdkm7gKGXi0m4FaSF/KS3y1PeY8ymrrJ99VrBgHD9638XaCwZbJH0xDqntZDt9NI6KQI8sbl1hG58dzSTJlMzg2uEvGJ5/hrHTb7aMWbfbyMKDx3elhj9gG3cL2ArRrjAE8F6pmATfq+CTbRmXH3S81f1nVN7DOwx2JmlZxfDtsCgu2IWoT3Gu/SpoSHqRwvfDyMxXEyRMmJpl/bNrytKGhM7+4EWrO0HC4yPFo/BOtWB2Jh4BjuhtM2oV1i6AcG2pqSkNm9+GkZnvms7uxCMSU1HBwepmkhrY8HgqY3RXWuC2Wta2tdDUUzeSx2DEggNkclr6Ad/6LVIeQZiXCvGLvhecgoEOPiLs2J726n2vtq6PGFINM9rS2Lvew0bNmYlURzEFy3UUqfLU9+CLWasSludltDqcvjzOgz970nXWdIHjsKBhxQiUGPJxJ8AY8x2k17C982qpj2tL426xXuCY4he2xkT+1aG5TMQjv+9oE21JkJaZg6lYFaQA4vzMJA4UzcNsjINefxzBqKxOE68o5rPpEXDYS1Hi/fPBSv/5807ULkzcoTWlGl9tHZVyjykrEkLJBf3oFm7QibYUm3uUeSbWu8XwM3k0RX8u8zHLiwJc3LVNKodTWFcbMyqxY94O3clSwswQSjPikSdeIHvRloDmrP9eJvnsusonIg4cRd/SFCcLGiIyHIJOvxg+QIUggble3BYH44GacbIvqE/I48qYFZqE4c9U4wa0I7WYRYStTWyQDnj6DzhzoqUoKBkMDKB9dpq3piJcrR3JhKc7fGaAQjlUcAIaBadrQlR3rwvPqyUmXm78HC0xRvcpuOeKrBaHLoQqBcXsVWrm4zrDH6bTWso4jnNaLxuivjlX0dZtjlG4vcp2CoddTnxOMpbvV9Q0pmDRGXNCLVAfUXABX5IP+4Qgn8B4ecj8G4yDftWDr/Z3Ft4ZPOTW+4bh+HvxDkxhLM1KI4AEFkrxBIoHSx0Ld6ldsksY2BrOBElsEN2iOpHDeeHixN8UI749pWTEbRCYv1zIogbI01sx6F3Z88QqW0gFjKBEKKefdRDm+i+pgwx9y/jk7E7YCAcN7YXYh9mMEst/CbCSF2ok/YmXxVxGjRERtfjYYzCT0QXLFNYzPIWqM3G38Y/EGlwquxL7cBNookXurYc/dS7E45jsqJNTWaJZlX/6ak36AiKAobZgzNlQ2Nrpo4Ha5c/dszLc7aoLQ5qWoGyHdgwJbDgjcEwyOcSyv4MuFGthW6xirM5wJgmE0JPTELquERSg1/80/gNKRuiDuwBRe31MRHOiBTbYA+Cje567LdUJBRSt6A2XkuvVN6xDdKgqHFKiKWEmwg4KUXKT6RgKpy7RdhArrkw+5wjBaHaQTfW/xNT3C8eOFC2O58TeNM59usGcpoZRaEhBltdgrSovUNK7UEFDBvoKU+MA32sK8lOWoAHv4WunfxiRyVgZMuPcZxWWjslKQNFzVjRaBsdk8w6xTpwyImp1bseKptVXMdLwIiybqjdiXKQElIdWwG/tIMPcly7f46nPBJLpOXb6rClSccZyZaEbY4US0Y+x+yKVLOTVOGCTpWUV8lTLhxYSKGrE56y/qloAc4zj+13OvwAfG4DpUONnvBdVRZ21K2opLcSayIZdSpLKmqQf65wk2cRboHWRvmCMNHc2i8EJetozNncH0663m9LSzZ/buB1m8eqeY/22VO1Fz+/J06waKAU2Z4mKIfUR8Uz08z5ATrWWHzjARDd4jBf0Ew4d4LRTdPlC+xkvKPCAByedumZg8zrO++eEi3USx5Sh2Yfr0qm++bjBS4HTi6DdRmKVsawDWn1CZouFtQqW8UcCDxmNbXOgo13QUe7MOscNyXkWAEvcc5lnPgeV3k3Fha95yF/0bqH2pJvbldVVx6f2nv+LoqzB5nCmD5VJqyjH3YtS4zp2cWmHWt27G90CHIQkBy0mHY6gmmjgJlJqx+zk5nEKhodZJJWE8N6rBFp/FIftL+RKO+xbC7ZBCcfTgQGjNMYHAi1H+DSMWZ4JwlDNdEIqZ5GGKODS2kQ7V6Z8I7+vImZwXdY39Me961/ogicrsOgMFML3xSxw6DgeJSkWRW5toq3MqDMASdrNA0mfDkAQzqMDF4yeEpHTc+EQf+ZkmUDggeMdQQ0ASBQZDKNE4SNiplC1rZfRr63UrFgOiSduttbZ+EmTBf4idAKBFdKmOTGy8RhupdHqROrC3z/DJ5jLDy9MRw6c4lauPaBxK69Nf39ClbnQnq+Wctk3noqm5q+Fpxo62zep4yfOu+FPhZTdgaX9zs2ftb1pY4Ul0TpWdHoqMfXRI9mCLxm/CG/ckcYgzW4EnisacP60MgiSYahJ92xYiAeb9JWKSsgOrFMZ7huQci1fXcXdijZ+ykOTtSrOF7uMwnlBzZjHbcxRNiQM7vIcLbjYU5KTQj09YxAMWWF23bXSMK3ybFot4Va7aNq7MsUflFyTuNg+GXAsfLLWDXW3aFrW0AIjB84rFF0Clo/QtVjXoITCrMOzObgUbxNxNO94dcJKy+EliRx2wUb0rLkDvUR6vIp+F9mLXp0GUGVEVKZe8Y/e88RcD3GyQxTfUyFvjfaWOHblBdvUSMG3k8BtvRYiDwCIgX+m4k268/I8iuJnqqrDMJZ9eyE7XX4/SYPMP2Oom0O2vODY1oCQ6YAQLgNKg5HZb1Nv2x7MpO0a2f1cDiFw/ZSZ8pRBSZYzRvA6oMVJed3tqN/F+EujJJmCrrHfrrCwqHs8vdhslTH3FNyE2+Lm5D9Klg/lzhiAxItodR1rcqCRv/3ve3q6AlmZ/+6zh5v8TvClZl7n6Py9RkpuSaDBH+CZTtnUJSVx1Ic2YVQMfuqw2iF2xmxjQAWoxDF7iBVEo+2tWxZ3vV4rKPNL2uomXSn2J440cNSMp3duxPNLGtLSxNDWlvrLMCE9wJBl9XgOsbPCsFAwBEbOOhyLG1IHvOsafARY0tthPiq2ytE/srMoVe6svK8eePa/Y/fE+XfCs2/ktGqIQwhjnO1bwlD9MvtbKzhlFrzKerAynRR1sT5e2iA51LP7+p/EeyyfCzdWaBLodXGm/s8Ry0Xabqx2BtKC2EuEHA9O2v4iDbstr+XmcJMU5BmNO38Gc6dCPec8q8nhJHwAbAgu4mCQgs/4qZYtjVHHo7V+X6yiUZitVVw6rSgUTIa57RFLzxW2Lnps4INuXMdAbPhwfTsRG609ud2QUSTdiPgMuFiAkqFE0+EWkbApQWghBEhiNN+Z52WG9/BvPcbavK0ve25Hv2T7YNErR4Bgxn1V/JlvKA+ZJzQnRNmXT0cj3738r2VqKgpvBn1+kV6okQQL6irvtBY9gfk5IPe0nYO46jrwRDZ9RBDMEskpgbed9vJ8NOd477j3ttbrMeqwX/rCTyUjkA7mohT2Hx63niOxVCwzY0Q6WlCh725uuLdLnOEdJIstUhTDM3BmkJzbrzZOY1TV4JFp73B+EsPc8MFB0DDn6GydFHBidbjwOsF5VPnT1Cyl/RYnO0fQVt7CjpOKS4Bzs1ETg9akAabyfhYckkZPCu+Y84DysWw9+i+oLULro5CKTUTKn6BdsI9I7igTp4D4ZbW2rLv4p97Kc5U8s2DblJvVrEcQdRXoXoJr3556RaOL3oWbHUcurGthLwvs3z3wYmzFp8tW0t6AdNLUMwqnzs3It8bwJAfdBSvy7lalt4GPre2J5RV/P4MFvF8PJhEaA/o8Ylz+Cf4toVpwIwBm8FQmnsbfcTeQlUoRux3rKOeuL5X4aPNPk/b7sgigq06TCB/oUSH6LB6d3KUUPmTG0YxBl1IzJG9xyaUbUe1ayrZD2pe540Zd5wcR8VhoCyxulcPH3Q6p0+0m3eCCH9df9OGNTc6jqk2xhPazXTMyH5zno5Yd1XscwYdk3Db1XQkbrxnkJai9Wa6LpbQ+BeVz1p027jpC6XdaNJjcymNzVKfo4FO4+oVYAchJAKJbSGU4XmK8G2uGMj4DXE2IpzaCKa9RcjJXQRYJwFH6lx4ElGIGQvJf6lEgs26x8/5bYn1lOQbaDosmswiUwpWwt/FbIn5HWfC3zZh1vwzhdjJuVc8ZMInz5w3uHxG9UeswwPvaClIzi2fviErHPl8wDbMlvfR2wXGTKkN7xz5pL8x8ffrL0ufztFjPpXnXT0Ovl5Molsy+QkM3pf7ll6a5+kKQZK/hj/NR1goZ4qRpMAGm5fxRk2auWBWb+UvKyh4ASvzTvCcjqax2+i/cbWp6FVrQ/NoDDdOYIvP/dDhKSTOAOgtO8JiLFA0d/KAcMsm4ZOqaiaU9cMdibJLU51ce2AvAAMAQgupkUMvMd+ioCqEt99qwdf+99CqDrTXkUMjjfqwiauHJ+0KnTOWI72Ppkhyqs1WDncg7f/QZHuyMNj/DB/eYWtz84SZV03It/PPpJeP2ZxzznXMAKVcSgswjKmVkjOmpIG7d4FwCqQU4cGE6fMQ1D3JcPi3O78pi/j4NM5ndxW4jlNqRfQ045n5yMn3I9D4AlNHARe8d7LRQVyHyWKFSppa9fi5Ld0X4uh8ZTaHii9jh9k/IVhuoBZjgJShSrYoBVs8vmYZ/dkjoSOrJs6c/yzhGy1P72aosz/JxlcOeIyGHH+A56lRzOCMoawzOOv+PICMRpA3MHxe7SZl1jrlaldW7eBMtgewyVxFVuPgVAhBhLlG7bbuT5bq+8pnLHiMc1HerL0cLSAW80WoNoYPcRR46ALfuJyHpT5AWXNMA7oVv+Vm75CnMvm8U+62ibb6VvI1UDSVOgX2KnA8k3mwBypnzP8GS5NrOXEk7oXdXXJ2XKbey5bd11YxY6HM4slKf+lYaAN2vHjqF1Ht/Lhi9qJHa0cmt2Y2eUs4tHCqrvc/iEZ9LXEvSsMC1VmaSHt1fxse2f3Gjvipq1ihUUGiEalY0jGbWWx7e7C1UP8vZfpvPkryutHxHdGw0xIvaEq2NRRbGEoL4n6YQwXc4Qjg8QiPaUyhT7W1L9vtPtl9jm+t76iSXQ379g27L1FqX4GAE9tu6iil1KGYF3uu+V3YjT9WPnP+M7blv96qQ3stJ9xatK/ZdwfGIyG3qLDV9odxmEI5aSfZWj+8fsWSrbm1YF7035krrgTj4CGzzhMDjlK3sQ79ivKn1j9pzZj/HN1bbcT4h5ojRS1OwR42txaH4ofZbhV1hvg+B21Y/jh44mLKWdQabXucPH4q+QSCLZxUP/NDahNd5vU01PvJCE2moxPtCq4kSJxZYdv27RvPcJ5Xcox3LPAUK64IJLkeH3udeeZwwfYKdjRdxVq1yxFm47giaTCAEiYHmgg4KIzfXuO696r4nkBIpiAev//014Du4AtBaKl6MXWY1Ak6Qwo5elhmhvVHQHgcpMpwo4WdMMy8eY7vWUWUdBDlzRE2QAIgDdLFeUXRfU4bh01q/ydUVWaVsE8E23AGQdBfAtZixNaeiU9VH1YzFoQaObIARaUEpbKMuAxt2x3CEPlpfkwf8Whd3Q+Oy0rwduhv/1PSazvIJ+V+TKdxN/jMGOJRjsx4zvF9kOXJezhUwbO8yP+jtP/aocTa/RUTxgPA6WLpNNNuNHbJf6SDvb5iu7NFzVyI7Sj4CtcI9nuW0WIIJE6iCZpPTkBRnEajpMfvrikzMIO77N89fepV/+aG5JguxUdcsh/nod/UAuPjUDd0ZA5YJnIo0abadNuABNLBQSV1mMilk9NDoHmZJZehbDNksaJDJm/jS7A/mTVhfIvhW8bTt1OUC4Vu00US/JwCvrD76sXwxP6I8g8ot80kSxixeoU6TqUtXw9gKgd+slqxnL9Emq3p9MFt06olGypmXvkjlmaKDLqIK4N34ZEzQOQZ5HEjWvButls1hdraPHAoZ+j7bJ+XRf58BSzoHDiaLGC/N7ln+TIQbGtjcma5+t2UfzGvxJPqkyD880xNTg5KIH8igHAwFj/dhoX/G626cbW6cnh2mBVEyPnbcl9gHBRbxK0lN2z+JSD+hsJ8gnfWlEF8eIhgCy4O8yeH7co+8ox6cjWLTk+ICyqx4eWHv1s+Y9GfaZTPs9bsYjwDHHTJMXUkd44GK3hP4aFL3B48tqBNELS88vxFd4HPz5F6VgaXUm8cXw4KviAUQAi8uhORDGfBGSd86PtrXnl4XRD5HfaHVn2krGzefxaUhb4JpZVSPQi83YF92iKg/S6dLtrxaj468hy4hAE72IkLabLx+I9PQUrzThrHdCyyHrCNo24+w+fkvk+c2fm28fo1D+46ffqin3tKTujgYy5MSLWXNngKwZyizckVuCz1ZPMXb/FNlyuI9ZfzV7t86YuTZi76J8/4og1/pGPJgtogq/UY/OVq545MRUE8VetRUam99IzHKp9cz8ZX2SWqPsDVGRHSuU/gClwGbOa9a/T2kIwUDnxe/4reWzxE/RxNZT5Z/IBrHxdMRQkx/KPJ7OX1h1Er+ed9seFS2bxc4z3jqpuOtP6zbZLzAXITiVYCMiFgpeZA3sT9SVX1PmDGkHon0mlT93Ll73zL/gJ5fpnsWZbBwX057dLP3KVT2M2wfHMinGMjygFSs3zJEnD3TWq7hLzyxhsg6Dj0djSPuyJGf7VmjLsWv67tm5PXX/Gj2b790TbLMp9FUKym3v3q4MIFbhWa7ufQ2raCg3xoqAVEvmp76hLTEK0Veuwv7tavWlLHCYQ/YtX0xynvKtL3yMS9wUaREAWhX/XtDd7xDKteueRp3zJfQ/P6Du2yi3rmg9v8ioD5pWaM/4SnvVtot7uALRNijI6OwnHWIq2ebcMu2sqaz8p2CrNu8rfU3yVCfIjDN19GsM1GBoXpaLboeOJ7oyIlDbX9zbtqcuKIUhuYYthcWLfmv30TRXtRN6ABTqFSfzRe/H/6C/Lo48f8jStVHTNYP9nSPKzKsW1sZXJeujkHmDIMFFuNGEc79yB4BQQIARsMq2o9wvFZDhJ6bMOKJZt470nomNqXlzzLZMMf48ZZCtC/Jep7welgNMcoueR2MELkIvy2Eu85Tl+7v/ZU943ARiSs04tj3QIzpsLYHE+TUstBrToQicgHqPJ3fD+eE1OtbaSQhJzFBhRjsGP17Bz59GU8jhE/WHQpQzI6QX1YtoP1nKpziDY1K9QfmA2+miwXgs3LINaxwApTAHDEwFKGbd04WbOIQfvZcDz+IZrtVuJeQMajwGEB0bkFDi85HttswuM3rHO/t/rlh3eKbRPa3IN/Pf7S2bJtwBzyjNMXk5nU4Yux342dtvaVcCg0h9SfoF2nUvYhgELjYL60q5MOixX+2AW1roUGnnZ9v6prNAys0RI+FBZvpFzbgSsn58ppttsB0Kpi3aXowY+TQMz2DQ3I/O2US+rFESSm3vWTblHvbWQ2rnjkTb6itbmoyH+UczmkXS6hLGOoQ098IvClnfgamv+UZzm7eyhVMNMM47zBRM/txY71HwxtF9NIc+jMsV/KJw2Do/0z7ZcBIzQlQiyVh3wARpnfJsLWc5kInRNk/LP38hjfLLR8GUaOR2l7YXPM+XU28FgfPr5qiAqHECScwLH07A00mBT4bXN8sGSIb+LjsYKNYYgyHMbEDoJowUhGY1I43YiZ5xAnVO3yQ361VdK0p+7Jvr8W1aVCzMhh95mI/yS4iAWeZhjZANZr5oSvw4i5jXbCWSfDnS5pe/GQ2bW2AdGBjk46mW08BSHT/MZLSyBoapCnkyULu5IjhntuglNZ6M/Y2uJwoF/nj9J2AqfPZKo+SUTxt9oSxo+6TTXLHxMhnXfeuTBlCQ47R0ZjdxzIwDRsKbeVLTP18lGP3HjdPVfMXDiJbE8nLQzoD0E0t3lMBLGucRtH/vy5ZvlSTMJZpyvmLBzit8ajFnXlS2Y65BZ6Z46P75VZwmysPB7m0bZ/qg+PtCyvUtoW2hkC0zFZYCLQUxIaaoWm9nPf6STtzU5xfEewkLxH2DGr8vw/FllWaXEyYexgW5blJV27qDFt6ugxZecA2RYVKYwUZuC4JuSODm87iE1N6ph3GwkcvuJcri1vvOXZpyAfhgbpjU5AxmhO1n4+ul7v+3ZN3ZjErpyJm85F6vZdjtZXbtE4A3yYYiQ4HAoXIh1S54DRlofp8PZjrdyRdHXtaQWVB2RXQy6w/w9QIaXw+HELBQAAAABJRU5ErkJggg==;" vertex="1" parent="1">
          <mxGeometry x="118.42000000000002" y="240" width="143.16" height="17.55" as="geometry" />
        </mxCell>
        <mxCell id="Dnd6SaUCVXXJT1RzdSpy-14" value="..." style="text;html=1;strokeColor=none;fillColor=none;align=center;verticalAlign=middle;whiteSpace=wrap;rounded=0;" vertex="1" parent="1">
          <mxGeometry x="190" y="210.67000000000002" width="60" height="30" as="geometry" />
        </mxCell>
        <mxCell id="Dnd6SaUCVXXJT1RzdSpy-15" value="" style="rounded=0;whiteSpace=wrap;html=1;" vertex="1" parent="1">
          <mxGeometry x="280" y="170" width="160" height="100" as="geometry" />
        </mxCell>
        <mxCell id="Dnd6SaUCVXXJT1RzdSpy-16" value="Project and Environment Templates" style="text;html=1;strokeColor=none;fillColor=none;align=center;verticalAlign=middle;whiteSpace=wrap;rounded=0;" vertex="1" parent="1">
          <mxGeometry x="280" y="170" width="160" height="30" as="geometry" />
        </mxCell>
        <mxCell id="Dnd6SaUCVXXJT1RzdSpy-17" value="" style="rounded=0;whiteSpace=wrap;html=1;" vertex="1" parent="1">
          <mxGeometry x="450" y="170" width="340" height="100" as="geometry" />
        </mxCell>
        <mxCell id="Dnd6SaUCVXXJT1RzdSpy-18" value="User Interfaces and CLI" style="text;html=1;strokeColor=none;fillColor=none;align=center;verticalAlign=middle;whiteSpace=wrap;rounded=0;" vertex="1" parent="1">
          <mxGeometry x="450" y="170" width="340" height="20" as="geometry" />
        </mxCell>
        <mxCell id="Dnd6SaUCVXXJT1RzdSpy-19" value="" style="rounded=0;whiteSpace=wrap;html=1;" vertex="1" parent="1">
          <mxGeometry x="110" y="290" width="400" height="100" as="geometry" />
        </mxCell>
        <mxCell id="Dnd6SaUCVXXJT1RzdSpy-20" value="Resources" style="text;html=1;strokeColor=none;fillColor=none;align=center;verticalAlign=middle;whiteSpace=wrap;rounded=0;" vertex="1" parent="1">
          <mxGeometry x="110" y="290" width="400" height="20" as="geometry" />
        </mxCell>
        <mxCell id="Dnd6SaUCVXXJT1RzdSpy-21" value="" style="rounded=0;whiteSpace=wrap;html=1;dashed=1;dashPattern=1 1;" vertex="1" parent="1">
          <mxGeometry x="118.41999999999999" y="310" width="120" height="70" as="geometry" />
        </mxCell>
        <mxCell id="Dnd6SaUCVXXJT1RzdSpy-22" value="Infrastructure" style="text;html=1;strokeColor=none;fillColor=none;align=center;verticalAlign=middle;whiteSpace=wrap;rounded=0;" vertex="1" parent="1">
          <mxGeometry x="118.41999999999999" y="310" width="121.58" height="20" as="geometry" />
        </mxCell>
        <mxCell id="Dnd6SaUCVXXJT1RzdSpy-23" value="" style="shape=image;verticalLabelPosition=bottom;labelBackgroundColor=default;verticalAlign=top;aspect=fixed;imageAspect=0;image=data:image/png,iVBORw0KGgoAAAANSUhEUgAAAIAAAABwCAYAAADWrHjSAAAAAXNSR0IArs4c6QAAAIRlWElmTU0AKgAAAAgABQESAAMAAAABAAEAAAEaAAUAAAABAAAASgEbAAUAAAABAAAAUgEoAAMAAAABAAIAAIdpAAQAAAABAAAAWgAAAAAAAACQAAAAAQAAAJAAAAABAAOgAQADAAAAAQABAACgAgAEAAAAAQAAAICgAwAEAAAAAQAAAHAAAAAAEoK1vwAAAAlwSFlzAAAWJQAAFiUBSVIk8AAAILlJREFUeAHtnXeU1FWWx1/H6hzoBkkiBgQEAyYEQQVzdnVVdIzrrLMe13HOcXbX4x971t05s7MzjmF0zu5xZ13TzowZAzqYQAwkARGQIDnnpnPu3u/nVb/mR9FdXdVdUr/qrntOdVVX/V6899307rsvxQhaBbwnoe/NQGrfG3JyxN4ZSBKAdzb64OckAfRBpHuHnCQA72z0wc9JAuiDSPcOOUkA3tnog5+TBNAHke4dcp8kAJweLfqT9H4Yk+6lhr7wefv+JrNmR6PZXdlsMtOMOaZ/hhkzNNNkpqf0heEfNsY+QwA7DjSbT5fXmrnf15r1uxrN/uoWky7+N7Ao3Yw9OtNccVquGaP33EDfIgQ72t7qCobNH6hqMW8sqDafr641m/Y0mqq6Fsv+vUshPS3F9M9PM6cND5hLT80x408ImKyMvkEIvZYA9ojFv7eo2rw4p8pU1beYpuautztSNRvZmanmlGMyze2T8s2EE7O8dNIrP/cqAmjSkt8lVv+XpTXm9flVZuu+ZpMuOR8twDnQCcYOzTA/u6LInDAwwxIGBNLbIOEJAE2+Rit8R1mz+WhZjflYcn7D7kbT9XqPDJUpKSnm/NFZ5spxOVZZLJGo6E0KY8ISAIiHtX+3tdF8va7OvLe42uyuaDbNLcYIZzEF6kQ5POv4LHP+Sdlm3PBMc6ysh1i3E9NOR1hZQhJAmRS7ZVvqzZyVdWbh+jqt+CaTKo0+Urxb7tDGIqJBIqKhMDvVjBqSYSZKP7hgdLYZPiAjwqn252MJRQCw+s+E9Dkra823mxvMzgNNh2n0kUxzv7w0M7RfmmloajUrtzdGTDiubogGKwEucPYJWebq03PM0aXpJkPWRKJBQhAALPjjb2vMGwurzTrZ8BW1kWn1HSGDhX+ZTL1/uqbYEtC03+00qdGwgZBKAyIECOrisdnminG5ZuTgxOIIvnUEgahq2exLNjaYpz84YNbvaZJ8b+PbIUiI5l+8f0U5qaY4N1X1pZkcmX314gTddQvXN7ZKAW0yL3xeaWZ8U2MuFCH86Nx8M0wcIRHAd70EEWXVzfLY1Zk351ebhRvqtUIjl+9dTXpjs7Gsn+doq7ahNSbKHKx0n3wPr8ytMjNlhl48NsfcMinPHF3ib9HgOwLYtLdJzpsK84FWU42QE2uxChdBpADwk0at/swYev0ghPKaFvP6girzyYoa88h1/cw5IwImL8uf+26+69Wfvqw0n66oNbVirT+U48Wxe95bhTEI4YcA9hsen1FmrZQfov5Y1OkrAmDlbJKs552VFEsAyagQ6HvOOwiBoRO0iiM4oohlm4xhy74mqyPUiZv5EXwlApZurDdlNRLSMQSmHUQMLEwzx8pmP04vbHgA5879lxTaFbpmZ6PZLmUOnSCmIIpbua1RvoNMXyqGviKA+Wvr7TZtOASwqcMqTutCPrRoVWOrT5VWfu2ZuebEQUF/fpp4niubE0g1d11QYHUC9ILNexvN5/IxfLis1ny3rcEEIogRwJfAbmJn3aGvi0XY46UH+NEy8BUBrNYqrJKN3xHAoof0SzfnjcqyLt+v1tSZOukJh4EmvEjeuvNGZZt7LyqwZQ57xvMFzpuMtg2j0VqlvKbJjPtiVa156oNys68q6F72FLEfQXhhbpq5d2q+mfNdrVkul3SlzNZQ4Ln12pvYL++lH8FXBHBA7L+xk21blELY9bkjs6wsx9R6Zma5qZZ3EIBAsjPlrz8uy1w/PtdcIJ+9F/gdgsEKAOk4cPiO8ugGOSqbpu+FL1MgArpcASLnjsw2//lhuZklBHsJgc2gEdohfOy2UnOURMtkEdsv3iozEGUoJ6C+Cuk0dY0ttj04gp/AFwQAAsq00lCUnIkWOkkobovlEzh2QLrYeaaZMibb4IR5/rMK+Q1aTI7k+fVn5Znrzsq127euPPURCLJJ7P37nU1W7o9T4MdJCgODfX+xqs4g/4eKu1D3MaUZ8uylWjFTKIfRw9cVW/n956+qrBeSfpx2TMDce2GBoonSbB/mra2zXKkz5EJ0B9RHglHyRVx+Al8QAHId+R9OAcvU6pz+dXDH7wptzU4YkWVu0EovEJK+2VRvRmpFXnxKjulfEOTn1LldW8Rwiq/X10sRazDltc12tbJ6AQiPwBFMTzjPsJIMc6p2+iaLy0w4MdtyFJ6DqPAeLtX+A1xm/PEBPRewyuO7Cjp5b0m12at6Ol3c+oENKywCCM9P4AsCYPJni83WNoSXk6ykLxXatVYrFovhpnPyrILHfj0rC2UMwIxcoFX5wpxKu2qdrtAqoz9Pip9bhbBrQsEoxzPrxSm2KGh0gYjxnNX15ifSIfqLxVPrZO38naWNH8rQ348Ve/A/s4L1dya2bGf0J02sYc2OBrNOukCSANyseN5h099trW930Xp+Ouwjq3aHdgHhBvjgn7izv92McQ/CZlmVf5hVYdluKFtG88/VCwCZJdrIAcEA70HO0WRX9fKtDeZ3d5VaIsF6wGyk/W8315tH3ygzlVJYQ+u3FYX8SVFZTEyilfwGvhBITOpeacmYbpECbuKtmlC3ul05FDyUNN7x8nnBKYou8jdFFFDUJu/VhUNBZWH3NvrHUw96x77KFrOzXCzf8/2hhQ/9j8eq6lulcB7WyqEPxuG/uBMAK26XVgdsNJrpKRXixg1T9K6Q5AW0+xslGn57e6kZJ2UtI8SWB6GBjOCw+ZsvH70XkfgIhhSnm1tUx/P3DbC7hnAKB7Q3VBs8YxUUAuFGCjxbWddsxVOkZY7Ec3EngBqtioVS0nDHRgqsZDxrd0/Jb2ffxAEi+9ETQOgpwzLN47eXmBulKA6QHIeFt6ggNn+gTfPhOawHdgNIkpKblWLOUUj4g5cXmp9dWdTeHayFbdINMOd4+jhZC39/aWGnJmt7Qe8H9Xn7/mazZnuD99u4f467EogdPk9bv5ZdR7iiQNpgrVJeDp58/4CNyiEoY/TgTEsEBGr8/Koic/LRAfPavEqzQfsMWA2OK1gC0Iom0LMgO81MlWlJebyGDhBLb0vf+HJ1nblKkT8XnZxjdQgIsCgnrd2+d8939k5bW0VEK6RXoEz6BQ7OYJx6hAxfraNa0fD/EQMzzRnHBmyPYa0VciAR2vWFkEQo+LSJedqCDU4yUb2XnZZjhvdPtybfMNn5XsACeOjKYivrjz8qw7J89zuxA89JmXx1bqXZU9Fio4IJS0ORZHv3ctU7Q8GoBJR0BRAAziSsDD9B3AmAScYDGCmAcOL0T28jAJSy1+dVKzS81crkr8RNiBYmbOwS+QUcsGJHuX9C3t3mkPdr7PoXPqu01ob1NgqByxWIumxLpk4OZVnP4XXaY+AMQqsIANHQFUDslbVdE0tX9cTy97gSABOyW9p0U+T4l6XQagokq2HbAPL5bZl9uFoBAjyWyGOIiYauwFGvaIGglFe+qjR/lPfPIZaoYwJRx25qsAQA52B30TYCTt2DYRpDnGCm4hUsUkiaHyCuvdgvlogXD0RFCmjpaPIodQAcYbv8Al4XMt+tlkj47YwDZpU8gPzvgLZwHS8TMkN/4xnsdY6U/a9czF6c8hkl84BeFvQFCiV9gb1HAnSDTaElcmL5BeJKAHtlT3+9TpMR4QQyaZh5vByA0OYOOAgrlt++lEcPy8DBUq3gX04vM9Oe3mnueXa3jeHz+hJwH7N7R7DowVLB0rJU2+uiB2we4VPwmomunY7eKYMesEAHWfwCcRUBsGkm+yA6w08LCMHB41y+/A9yeQfZIIKdPPYDBhWnSWkL2J3BdA+GOFPwoeQ2ewvoDf/xTpm55ORsxQ4ERQq5Am7VdjD1bJQoQETt0Ykj66dQIx5asis/Wz6F1JTmQ74PNwq2jNfJle0XiBsBgDBWXoU2aNDUIwXsdcoClGKll8gpdII0eLR4XshmXuzqhQJN8aIKylvi4EMb4P0747iAjopn6tyAkKVzCGt3NdicAiSWyJP+4YW2rni/CvsZHaVdjIR98sj8GDcCYCVwlq9JItUFZHQ1ZKYeovGaXazUX04rMYOU6KE0P9Vky0TzLPjDqkTjR85/qb17TLmbxudZdh/6oPUI6vTQEL2IQcBSgRtgAraDsI+FgGiIFOAg7HqyL8BGU7i+RlpnT56LGwGABLxih66nw4fC3LLiWfkoeph27Oc7QCQ4m999F+6ds//H9C8yd0sZI0PIIDmTukoGgcLJphEvL8BJ7jgv3zw3u9LsKg/a90EOEwws8T7r/QwBzFtba4NO7F6D98cj/DluBLBF8hWvGBsynQGmEhE+w3XKprQgXQcxFQwiHwCBGuGgUbjg3CDse7324c/S/j3ePZRHCKZUJiSvUNisPmHqsdpHKeiEABFnboY+y/90fdrEfDNJEUEb1c72MgJLm80qEfbc7+vbLZXQsjXa9v5cgSgXn5wrKyL01yP7f9yaJ2aeyeoM/yDsFk0uwRgOsPl5sYI4zMEKhjswoR99q7i8LQ2S19rTV/QP9aO4UT+r7NUHB5rjpB+Eg5d1vOstnT+sl1yC82Rq6Q8oSLXlcD6dqyARl0eI35HniCQ4A27ptNSg9xHR9tyn5eY1nWzyKo2ubQgUM7XZKjOdLwD3/A/5HhcCcHIQpwgssyNgtaKQYbMjZ/GjL9amEVZDPwVjEvM3UbIZSFcl//VxuVZ90B50dbLaIQBCyLy7hogSu2mksm5fgHrY5RukMK/N+4OePTaP2PbdoRcBK8QRkFAK4Nzim+Qe0kruL92D/EJ4GwfIAiGwJTcr7TAz0hbUHxDP8beOzFf3zJF6jwsBsDJx4YIEZ9KFDpgV8uwnFdZpslX6wiL5C4gBCK5MRfBo9UEAIDsgQkEP+ExICtWw+f0nit8rFtE4gIh4FgXypgl57msbZ7hRUUEbxEG8piM7lSO1wQQHYSOKhQth/l5BqQ0aC+N4X0fZCPtGRBEAQqyhXeDttR/8wPc4Lt2hVEewB584cp/iQgBMboZadvH5HQ0XVh80wYI2MyuZF0AMASlhVtkDF0G2/ncXFZqNnCpStI6beB5Ha2ffwCl6ePOI/X9KJ46J6IVwCDdH0eMgJy98BF7WTe4htpXPkGkIYMEgbniHU7lxoEPgRsbIDHfkHIQjvuBQ8UQ+Y1E3jjww2YNltmGreyc6tCdMjhfx7ne+Xy1F6yXJbIdsInRv1moeIzYMlwBy23bsQJKbaFb+DAVxpqriCm3M/PvbZVbEBEsExcWZ8gM41zL9u+HsPBuEWixZT3sEeD4rkeMVH5Q/2F9Ir3OgP2eKKHmPN8SFABj0ZAVy3qbj06yW7kCFVh9WBMeuHJD44UJ59QaLGGDLOG3unVJoVxrPwFXYel67SyllNPeIImL52erFHwHgALpQR7vrxaN5ZoSI9J4pBWaYsoEA7F+w+lfJm8fv0QJl0DMevamkPeo42jpi+XzcCACFim3Vu84r6BYJMPdb9jWan7+8x+oTrExW4J3nFwRj9gvTZS7KdpcW71b/K9rd+0pRxV7E8fnf3txnLQcmFpGB6YfOwBmB5+8fYGU7z8ENPl1RZ57+ywGTJcuiO0Asw/0XF9kwc28/ulNXLMrERQdwHUfrRglbphUV7a4gdYCQfXLo/KsidAnjKpUGzqRedXqenEVZ9nyfa4tDJ/MVKk5UkCMI9xth4MhvTDnYMmle/vmGYimFOe2r1CJfKehmLq22Zigu6GgAAkXX4EALXMovEOUwYt/to7RSH/mrYuvKdcpUNK3A1t9RVM4fdbhjqw5eILs5vXOMIoCI2HHwgRDnInlBhnuBWHb+PtKBUOIKAU4JERqGGergK0Ub/VkxAsQvRo18VcJZhMvkxbz13INWh6s7nu92hPHOFYwsJuXbr98tsztvICdaAPHE7HFYBFs91LzkoMgqmZa4oNmFxJkEJ8CsK83nSFi6Mn4FDokzpA/US3wACucGmYgQTLRAmb8+O9fcLMeWN94w2np+iOd9QQBuYH/4tMJMlycOu//g2nO/dv3OyuR0Lxs8V5+RexirB5mIAjyHfIYA8BJCBDaww9MERFgrB9QTOiE8SxlLcNx0B/m0A9u/+/x8c6rC1EPFj6fJuHyMqw4QOuLbJ+cHbXnZ6sT1RQuEXBHpM2Zog7kKAgipAPOT0G+8dF0BC71WEuEdrX7ETHcBz+A0zFNxJb8hnzH5igBQwH4qZY6VTCh2d7Rkdg0xKyiLt47AzmLFBXCYFE+dcwiFIpQgUoiHc4cg7XIdQKUfOJ2osjvIgwB/cXM/6ybG6eNH8BUBMEFMPrn22M3jxHA0RACLPmlIwOoAIJ+Qbc4IgjwCvNgB5NTPQEUL5escAD557hNAedwmsYNooI5TdeKIfnBSmDwBs5TtCzd0NACh3XhOvj0M2hnRRVPfD/Ws7wiAgZJwoUF7Bbh72QSKFDjxc/UZwcMbOIk4HXww2CTF7hDur24wy7Z2XCPuWwgOa+DFLyrNU8eXmn+8pkh5BXSyV7uMyPNIgGQTxCw8oNNDuLz9DGJy/gOQgJPob6cW2Pj7SHqIJYEH7xStXhQ6WHp3D2FUa7U7wmPDiLOG+Agi4QG0zcmkR5RYIt3nyGdefUkAdIwjXIRv3YGnMIKZR1azO0gQB+JjpThAd8Uu0pqAUWx/moawCDfrqh88O1pOJBJPDZYvgXr8Dr6mUVyyBIQQRUueHnblOgOUrJnakkV07NL+/fSvq9r3ADorE+570r4+qR3D5tZCs1C6yDYd7AynCNI1Mo8EcwsF4xTC1e+X3yyRxtsRFG4ymFgUtVuf2WnP9oXLIYCZBwtGVvfEdHP9AeF4A4nggfjCcQC2d388tdDcJXvfD7t8bgxdvftWBLiOow+QxOGxH5XaHD7u+47eQTwevlggn/pBOKIA/SIc8vn9brH9a6SAJhLyGaPvCcB2UkQwVuf98e3jp/cTQBjkJCSHEBHGiQYJQQBuUn8sq4DMn/0ULax59wXgXPrpZYX26LgvOhRlJxKKABAH1ys65wJt03ZXw49yfjp9HP0AB89DSkDB9bP0LREhoQiACWbX7hr5+cnUQVh2vICAlgcuLVJKmaxDto3j1Z/utptwBMBAT9KFjuz2jZXTJ5xy1t1J6aocN4edL5l/4wQd7BAXSGSwvfezGdjZ5GIeEsXzjMKzZiuWgBh+FAPnK3DxAO5/F2xCrCDgwr5JOME37ndbj/53Ub38zyRxgJXvSDVz9em55g6Ze4mNeg2KcfEnEQmAfjtgo6Zart823LqvD763YaozhCHPHXg+ts1O+5uNAsYv4NedPTeGaN7teBOdAKIZcPLZQ2cgIXWAQ4eQ/K8nM5AkgJ7MXi8omySAXoDEngwhSQA9mb1eUDZJAL0AiT0ZQpIAejJ7vaBskgB6ARJ7MoQkAfRk9npB2SQB9AIk9mQISQLoyez1grJJAugFSOzJEJIE0JPZ6wVloyYA4u/JbhXpKZlI54jdXHLuUX8SjtwMRBzFSKQtZ/W4s480KlzKNEwZPnoKEBK3cyzSJQ9kD+VcIHvubj+/p/Uny4efgYgxyJ13j713wB6iJMMVyRFjQQBwE1LE/OKt/TY5xBARFaljyPLRW4DQNU4au6ATP40rYgJQzIDNi2cjahRF4A2i6MmAYP0kW4T9U+chARk9qTjOZeFs5Awm9cx6HSwlhR1Zx/0GUesAfhuAX/vDQlmxRdfP6Ij6Z6tqbWp8P/Y1Yg7QWedZwd5QLBcezXdwDXvkuo3MUO94nher3T3rrZvfOGlDrB5lSQPbEVfw1sVJYI5mEaYdmryRuqmTXABcTsVn2kXH4J1+2N/VHjeY0S7A74R+wbo7Ah5rVj8r6lrtRZScCCLOkPoAakGhtWPRP8QWcqyNNNSMiGNsDmif50mfy8km8hpnqz5Xl3uOdzgL9dbqWfrPUTj66a3P+3xXn3tEAEzCN7oAidw+5UJCQJ0hTp6J/vDbGrNQd+OQqPnha4tt0sZ9Ssj4lII4OWs/RcmeYYvpKuOAK11f1rn852ZX2Lt1OCFM2PXtk/LtiSCHDJI6blNSh4+X19iEzXuVvBH5ylWx1ysZ03gle+IyCPpXqXQzbyrv0FxdJ8dxce79Y8K4GoZLJUkX+/iMcsNF0WT5JtEzCCJVPW3feX6eGahnnPwmyJSDojOX1po3FlTZi6TQV2j7Wl0jN0Enmt3dxG5cIIf7B99ScmlVbcfyq1tK7M9OuX5XnGKRMpAR31iUk6Jk2Dn2/kMurICwIB6usPlAB2A5+FopwuN4DNnHrlKQ6tVKkDW8LZmlazeS924TAB1aqhu/XhLCvtTkMuH3KV8vuXa5WmWTEi4zqVys5EzGRk0eiZqX66bwE3WMGkR6O8Aq5pp1ZwGU1zSZHfurlTC6wTytW7zJ2sFkrtZNYH9S0sfpyt9Dvn1u8CSj+Bdras0mJY+8Vdm4SMfGSvlexPb7j8rt5zQhiskkEwhEQ3g3SaNmLK3S5ZMkrg7m74Vzbd6r5BSqCzn+61tLDKloAfITk5LuLaWwgeMUiUhB2hwloITAIKLQVHCQOBnHg2nqdNg0mNTczsuMxTXmeSWyYL5Y+azo3bKK/k9tkJXsH0SkXIPDzWjvqM3/nlVuzx+SMZ10t8Fs6uhPBxeS7WiEf7zzH2ERabNq6ztNBMgkgxZJFMinSyo0l5adDnXUJ76zrw5ag11OHpltU7zAFknJOl9cZP3uBvOJlCnSwJHRC5n6/jfVdvInKvcPeQGYePIKbRFnWLShzuYEGloC0oRYEU2druzFxCTrN2wegoXDcB8woqZZFD1hRLZNMEE/FsssXSICXywOh+lbIquHU8LzlG7u3SU1lkNMGZ1jyCu8U7eFzNRFVCCMZJRkBSOfgAM40SRxBrKEgqZ+bZdVcBnVS0L0RiGfLOMkriYRBUTHWKhrqfIWwaXgmkuVCBtRUyLk339JoSWWPSIW0uLxTHcgagIAeeTa27aoSse1W3QxU5q9mvUeXeSMvO4JwA656PESnfohtQr39X4tRLAiWe2TRmXJDG2xyZobtIqGaSKZCAaPeCApBOf6ydgNom7uH0zKqPm3lsZUHSnjyhktHEsEEJkDuNSZup3kBhExk8x9xvOeq7OfmfzjlDOY20fgAIwSrvPgZQWW+FXUZjfbqpQ2rNS5yj/MraIOaAeRx3c0iYiBKHiOnIXAeRrbtAn5VnycrtxEM0RkKJLz1Y+xElfUQRkqoESeFt143YTC7ee2Q1TSDYieANTIVslAq9SoM2OGSE4qvZvtSDc6EFrEKV68kyCCm79YKeTxr5PMWLeTq1marCjYXdFkHn1jv50ACJNrW5DRZW2Jn/jOC+5fxAgy3UsAPGfnV39QwJD71KUbCWx9iBPY9CZxGAioTCLkkVf32zqoF6KzprIQulnPcWeAF2DXTrTxPQTH6sb8pb6Z4nBLdKchfQrepEpvWGzNNt0NdxXgfMNhdkA5C3+jpJocTCUhxSRxQMRjdyBqAqARKNG9yK6FrRvM/B3sAhPCq6fAxKAYarqCk6JJQ4lDW6Z+zu7P1UoHYOMAhJmRhrs6Nn2gTuHeEgft8gJAHCv4oJwLPoROYX0a9qnwf7gxBV0K2KQcxnCa9nFogrlRnYsx0JVs+lohG+KGG6JPIPYWb2iw2VHJRUh63Ggh6hIgHtbDfKMDIHNfnFMhNgWFBiwr9polHLxqsFpg9BSKSbRLLJW2ULawGJDFaL4gBbb8q2n92jV0O3h9j7KHfI9Vogg3qXA5x+kGKsfxM3eX2oXgfuedVV6QnWLbdlwAznAYu9GzR+kiLBRPSPdvLsi3qxmibwcVQ6dySbBHD8kwj97Yz2YdJQPabF18gQk8UxbXAHEsspFGCyGMKrLiIITcPTdLZpGTnwua/uX1MqssgWs6w+UKUDPa9WylWIdQtklL9t75F9oa9XK1Ks9xexdyGCRSD7Ibrf0kyUMSQQGsIO7/Q/6jHCK78SqiSfeX+ND8xQxYqfYGciEBn0KN7hNAR6EN1zYyG/FCPkLGMqhQdxgKozxDAkqUWuaBM438PnFkwJbFOsJywmPIGKiPelj9iEHSznHhNL+T07BQJuoDykmAToQCXierBs7THYiaA9AITWGGsAIZ0JsLq2QCNcokrLJUyNWtQ5SMkc6hQT+hZEujlmZYlg1yO4OA1HVyBXOrB0SFzGUiUDRJ1YZtHrThA5b9bpN8xMTDJkdXgPUiM7k44qErCw9rpusp6uQJfc0vHE0/WRr37BXpNl/R4xrXiCW6oVT9qlNaWYgXK+bha4vU7xRLMPhGMD2nL6qRRVNviThb2cl/c1uJzR2MZQBy8VOsVDLrobL7OXrOdTR7xeKfvKPUEj2y/w35EVAah8m6wbyG/ZNSl4zr3b2NPCoCABkMBjMQICvWlUqp+q3ME5Sg1+ZV6Wq1IFWeq4ngcmguUyLRMk4hgInJC5CpUyxd7E//2gHnK38v18hit8MyMSPztBLIucedAgwa5AOT23zqr8+vsjeArNouS0HfU4YJd/lDeJqVlqFG6DdtdQSYibBuOA3PA7xTht+cA4rxk3IWJe3VeZW2bS63QszRdq5WqitPWywErApMOnSlNTuC1+SyibZbN5wdLYK676ICazLOXVNvLYi9lSyQYF8p36YiWG7HBRncd7BoY5BQ6R/c9kqlzqFf3QE7XE14sMYwNcCKuekbG7lIqx8NtFiUzy4hmTXZ0oX9I6dggUzofn33vVgfSRer5LnCtIONs6Ipj83LhEHVsECUmnJd2shqCuiGlqM0AcPFZeA0ocijXdghihMKETtu+ZK9mIQ4TvCKoa9AVMs2N9p+4/1jUr11MZ4FGhfp5SjHFbT0kz5hhzOOY1UXjiDYM4DyuVnIWKerZ2gbCwFuhyZOX52I4lkcVBAJF1q5S6YYNzuqnDRm/FxJiz6FdcVioRXmcKCeGyPdCr2DZ7gTkTG7m9HQi5gf+g0XcsRHu5GCHVEkBECFXjIJbaz9N9VoK23rAd9jToEMvocDgIDQ8jwOASFHKcPvdtVq1YUDyoBEQLgK1h9SxvWtozYp19nvnX1PGYC2QT6t27b1x0tc9iH9oR7GZefA9VHvXuA3+4zqBOA6jN/bZ/cM7VInHDT0mWDpyP/abkRKAJFXm3wyUWYgZK0kSreT/YzVDCQJIFYzmaD1JAkgQREXq24nCSBWM5mg9SQJIEERF6tuJwkgVjOZrCc5A4k4A/8Pg57qIzk+fpEAAAAASUVORK5CYII=;" vertex="1" parent="1">
          <mxGeometry x="124.86000000000001" y="330" width="45.72" height="40" as="geometry" />
        </mxCell>
        <mxCell id="Dnd6SaUCVXXJT1RzdSpy-24" value="" style="shape=image;verticalLabelPosition=bottom;labelBackgroundColor=default;verticalAlign=top;aspect=fixed;imageAspect=0;image=data:image/png,iVBORw0KGgoAAAANSUhEUgAAAEQAAABOCAYAAACZiLDUAAAAAXNSR0IArs4c6QAAAIRlWElmTU0AKgAAAAgABQESAAMAAAABAAEAAAEaAAUAAAABAAAASgEbAAUAAAABAAAAUgEoAAMAAAABAAIAAIdpAAQAAAABAAAAWgAAAAAAAACQAAAAAQAAAJAAAAABAAOgAQADAAAAAQABAACgAgAEAAAAAQAAAESgAwAEAAAAAQAAAE4AAAAAmFE6iwAAAAlwSFlzAAAWJQAAFiUBSVIk8AAAE7xJREFUeAHtXAtwVNd5Pv+5+5BWEnqsxMsywVgYpIUApsQpaVwyTWNav+o0JnE9fmBeLnacmtavBjdyMpk29rgZE9sUA8YwcZzB1ODEcTxtoMbp1DY2jwCLABPM06DH6oEkpN177zn9zt29u3dX+5QAZSacmdU9z///z3/+8///+c+9IvYHkTZq/oaum5ikB6SQL7WPOb2FvdtoDAdpruFAmoqzenLXdMn4E4zJ60jjU6taRx9oZ+xAar9LUeaXAkk2HHV1K7xSo+vAjJn4oascTcJzd7YxF7Nt2BnS5S2rZIJ9gTGKSquUjEjcdjEnnQ32sDNEmvoIRnwSAyPshGxd5YSN5Xb5Uj6HnSHc5S0CM0ZHt0t06sRdXLrax19KRti4hp0hQjc8YMYImyD7yTVtpJ2/lM8CrYwk/7QNY00Sbp8Wafls55I+EJuQ9UFQDoWqAQLocIKRquQeBLiUIZJY3U88o3zFY3XG9PZJ5WfY6/PMlE5JxYIkpKZh7XSm65u0sHk43Od6s2LKuj9XViIJYoEFEtwgJiPJwzjjphlOriuwFNjoqQysnV3l9a03DL6PG/zjquD5ybmgFMQQLBr2Oh+L1XRj339VM80tnW7fXTWBF0pzIcrUbipmEO+ClUl0gVaVLuNsoqLQXCOvYt03a4K9SIK+yaQoAfxRTOqgPXsqjCFkdIMRIF4lJeKyHEbyWVN4FzCsiFVd4B+PW/YKKU47h0lm6L5zkaPOukLy/vraW5jJnpZEn2ew6SpJafZpXLbmglMQQ8ywOAaAR5JWk4kRWNuH/eLcN3Mhc7ZXztxY7p+4ut7UWQPG9zthkmSnjNLKUdWT1pY5x+ST9wfWwKdhzxHJCZCM2BAlfbQXEp5T6hxymg+627Xq+rnLINDfVdKRGEFQVLSDcfkPoeDCHYn6eI5GBNZUupiYBXs6G7I1DcSOA3IfJAw6SFbh57A0vI+IfYp+PVLScU5ihySxvbirZ/+pU8uUIk+bSme8XOPtl78ELOX5JvoQ1l3SY8XdnT/JNl4NKJAhjFVPenGS5N4NwICVcCBlYIqkF7C6y9sOLei2qalqeClAjB5kkt+M/jX4KanUCsAtQKUgqemS5O+ZEK8abt+qrn13dtg47Ke/Yd0PmTQeQdlhoTBFYkGS/O62pvt22X0zPQtmiAJUFVi3jIS5HJOrTAZMx6B0F4V46Xt+2TMD1qMR1MyNOqFZrV0ymIwlNTnFSwFhhMLUjH9vqa88pkxp5dRVU7mhbQJN1yQNJ9KJ6PHSXv7isWPzsTWzp0ExpCawsVSKnpckE9Ab1orHsChwcgNOrh7O6FbJzOLM6NU2kxB/CjOSSrpUWa0mZkweZItQVoo6g55TuOg0JrsWwvMaM9zzGTOXotJh8QjuB73FuXy0NbgQui93GhRDFFjohDq3oJ8ii/1qKy/VYoN0bie7XvbAxJ5A6QwYcAZ64ihcp1YpxXlNyl4TpgG88MELgU4xx4IpYwFurBCyluMJiIpJClgsWbhMnAY/JilGQh+NR7tNAIii3YzzR0PB+7bFBuR82INzdkzXoaJhzQyXpBVQsl9yEJLcFbPGHM7g73uMazsw511S9H8SOtzczFj2IJBy+s4VeWuFqU3G5K6F7ZwNUzobCKCAsy0CsBFrYkIuDx1EsIk1Ojsn05dSGhJDFKyqyav/EWL7NGadItrYNMTgY8ifoeFNabr3hKYVn83lOqfQFy8G4Oe0iN7PmWROJ0l3AN8taMT2ckqM6q6mREc0aT7YMnriVvbuVwqKvA2JIf76tbcB/3MwoVcqUhIJtoZoK2fi+30R7WDPkROhQlYpASdN7vaNWvXe7lEm8TnExXcxgYaEvxHrT1oLI+OmUHDxR2kgZK0aNEMqA/9xM5fun4MYXwIDwBE7D2F5ioRcCfPbg7bUJUx0H1KukY8I1E5wS/490PB3yRKqFoTvhsN7Z+jwkoOFoBkUQ6rqV3+RSHuNSXN8Apkigp2Ugpa1HyzDvs1+qkyMG1pu1Oc3lJi6/hj02HfAFIdzp5SMtpWZ4fmhw3+fdDTIhlEZ9YIS3OlJjNOPsSrTMDDKUCK1T/dIri1rb/r124w9BXNxaVJv82Z9ZOlt74c9THm3DSBJufuKLqXOr2DcXeaq/voHkbYtMPG5U2EMmbnK7TO0W6BEp0BlnoUHelL9wKD9kJhnQ8H5YMaBi7RFMk+ms/NNo2+Od0dxy9UmJ14K2k7FaDuLrcNdUhw93zbjJGPv5qStsC0DhlSF3aOJmQ7nB36yYfSdPXj/cSxKToSZpzX0FmWmO7j3KuaB1xJLEhEod3+4rfn3zW0XTLHbwC8/L3PgMgcucyCFA5byqZy5qhzBwXgMwVdU3Ne8967zSUoSCnVEv1YmdTPuoncfrkRMwulvNPLKCWPKil3MHQ+IpCBUNlEIN7lqOntOve8M9iAOWldXWsR7rVCkGu8lV9gZW0kB5SxSVd2KMp17Pd0RTw/L45jvHDx25ipfd29RsdvQdOsagvq8C70uPRpHIE6G0H9d+6c/fufU+yxuu0dF3FfijH4/c/HyKDDOSmb0LD+7m8XjlJUzx5TxsOfuiBBTvPHDl215oqfQSIwSvbPidWR/YxNWE6jxCRm+J8L4FFXnhcUi4h8g+4oqZ0tz5vyPtq/5yJ1e0qYhRrtf1q3Y0H7koXPZxthto65eOTLc7/mGR9MDTDObYvcy4m/g1f1ZtBMO31K090ZK1JE5zhBd10Zxbt6DfiOj/Yj16epQl2CI1hMpkS7PTZCsr1nnrmjHNH8ROpLGYTTEGdLnKS72huWNGHeDPQBxFXUseMUuZ3oeO7bdRb7aufBUb8FBIcI9JVfVBNY90xqcfzbTGFXvv2blFYbmfghO5kJCyAGhuXcs8ccamohKq8g0YMLjleZAfwKHE3TA4TXaz+qbio17EOVD9AIwnP2iZVUX+ynpwY120nDsEZkCH5HD5D5JA5ILCFap4Yp+DzIPCmH+W/mUVVcn90qUKgMbxkmX90nULMGYqujcpYhJSKLjBc8RnYG3eDjuKSkEWHoEyPI+XxROkxVpm+cyXSOqGl55sv3AvUEnDP+0lVcw3XgW2uyvQYySwni6yAxRW4P9qp1OPFAXrorxpI4ZRjMdm1WhX+RXYhC+FLeCggow5ds2U8bPaSzqbvG8Aan4EzAjbiBsjqRlCEL/3NMpvNFryjqrbxf7DPsBcxq4mWxY6Z8cGzL4Pf0Iez2GXEUEjkt2LP8oVnrAedVyRBS/QsxYU9OwZmnE9HR2t+jvYQ61mSYygCHWXiL6lun1fKmTvAZjMb0kaQT2JmKdzpT7+pULObm6Ye1iHAAtCcFexx1S7am2IPulExLxIrAaln4QyeWqUsuUYaksffVFxCbWubRIVTZmKDdjAEMseqQcB+jjlLwnp9Ryrntu6GHGv4yT55dtK0zMhTqxDXCTGII4qxVvT8Y3pJIiNrpNMQ8UEK5w0q/cAWuCjm2DrZEZpRqc+svcO3NLqsVRlkyZs4ucCGEJog9tngxkBvsE7R8n2qP0pGcI+IT4Rsovfdc8pqUDkLp+6I3+sC9I3eVe7ESf4DLrUeCGNCppiCV10UX0ERblCdTsQGzHbrGeA7cMOkAzvwMY/wWnAnIMsEjwQibAd1wMTsc8VVWbS4cAGae3iGs/hAcT46gJXlPsDQIFI5qGokMMo52YZ6xjZqCUsUhr06n/ra4f8whu+34AQ/GXmJgbrPmt4HR/xGO0eU339Um7CKQMYAgYAAaK30E7rD+1vzxOeNWUnuuA5C7sRgdDcukQtTtYa2jfvTvtiWd6ptMhUL/QiINJih+KP42irYntQthzERZhNWgJt+k9d7AjD4XLJj/vZ1r8+BZHMoAhqgUurOwtMrDPHQc3cx2IS0heFEIuCUEvFXrGwTDQX6kojKdgUF3TJeCnlRBhzqppWP2v6lATH6juPAV7t6NpEcKV+SUcED9jdSu+rhiRa0Rahijs+S1NLgkBN4jdUH3e/UYz600wBLvSX6+vCTWxzTaB6SQEztMUSMmU5HWAbuOWTs7CEIfOsBHkwQzVNS1DQIgNZuhPy4SLccmALA92a3JdhpJlGZ1tislpJuzsMoS8xRDsOC3qBGBLRKUTq5nCFFy4QEFCeFSgXm2dxILH8YsIPBtc/Fvtqdsr3gsZJYN4186ZVKAkrOCrtuxjcVJWRKQkBJYTFoPAxzR9nEOAUIIG6/UKVW+RE32dGvx+h3HxqaqGi6BC1rtwENA7VEUsaZpsxXlyI5BCqYJgqO0i7uqOa130M4pLz7si8r9hnXCRnWVS0gQK2m/DVs+i87JfaPI3UF8tzvoBeTVWsqQrSr9/jHkuzLaBC3FysHp7B4x1VBRpPWEpi3Zgvq8CJ1bfOnH+zmILXm2oKiK8WRhLUkZ6W4NLe0F0YlZQjKO73BWiKBExa9lfjtB+QjFCq/PyqSPLvdJtRb1seKlPwCd3kesc3nN1+Or5jVWwpCwHffPUochOVDF9XbnHMOJKLUx6pGvfUuea2n1jz0ZePenKEu5OXMVGXK6cSjcFyOXiZQ5c5sBlDlzmQDYOWFYmW4fUNn/DyzjTyL+CBSqJtqk4GkXwKsT/te2/51eoS1im1MEXsRwINHqaZe18+DF1DjQgjZ02mf6fHcElJxz1GbPpPdWM3ZUh1k8wcjcgwj0XjLHGW0bclDfhawnfuGJj886dS/A65KVL6jXRM+a5ZXBgF+PNBEdUzwo7PO/RikP5UlOwhCjAVYGXG+ChbMJ1RX0CkfJZqA1O2ePtNOKnLDjPvpNKdLkIOfgfFTws/wVXFio0EZNaIEIgFdKyRfQbCzuOLok7bLlIGBRDFFD/Neu/wFzibbi//iQkxJV0PKuTfOZccAEcI4dzl9RxqIWN2shJXQFD4z/CJOamnL9wGnFt55rxrZb9i+A1558GzRCFomryS7M5aesQI5mI1UnAss4UtAsvqDeSJne3u0Uzu1DbSH0YxDrwKav7a9iyy0HG51LPXXhp6FMS+g2tTfd/kj8roj0Tkyh0ZKy/v371A5CC58CQlMOUBRqhFXoL1x+bJJc73ZrrePPeu3EkKDypj5QMwzMBk50FyHcAwl+kMiIK1TrjHcVR658q9d63j+R57LcpGhJDqqesmyNNsQKETbUBDnxaKHBRSbtgjz7CyXGXKcQ+6dVOde6Zr/Z2RqukzlgeU17FNNckHCxn4JX42ZjuTAQAcGZxnsbtaThB8WNYjCdDI0/8vJDP5m1IA+eRo6a6ftW1krnXYz64rU8iTlEFuE7iFDALlYrsNCN7ApqlHeGEM4gqhEC4Ykw31A10snqfnZUBIj4JE1ciGDAKW3Is6moAA1bNCdeSBhzIaBus3ng8J6PdnpOSziYS4vG2g4vfwvi8kj04r852J7VyePF/PZDf6CAAzZiOlM/jII1PMtg9aIPCdU7AhhB7KksgGZSw+mpBWQWUVGBGWuZcnVzjJ/DYCMcDuIgO4feCYPovNOFaCOTfAQjnu6pYAL5VEl4XTbnfdQBKyqpoTMHJLfhSIL4ePwdDkZV0CBd0m9pHT3gMH1teC8AvIhyKawflrji62hitz1NZcXQS1ldVfjCjAs2l+KVhBmBwVJPWAdl4LOyl60PB0pWW0yUY4hp02gYde0Kvya9yZn4j38/VCmaI+kIKSG4FQudKKPx414U2l/Thiwe8cK+IDDUtfEDXimohzg/jM42dYI5SqEoasCOwwrmT6qM+/4BPo7YVbcUHi3eF5p2obmta8EzP7vta7XgMAsmHIJWvgWMp/g/UuZT34u3MhtzogCGfTok+6v989DyKvf0EmKKCfrGEj38kbZfcfKj9wOKgXet8qovzkNs3kbiczZk2C0TinkdWY7K41JUjY5IRHUKE9+WxHZj6ipKOgH8fGm72265J5SeyfU1RMX5dheYTcBglLJCD3wgTAsdTRcXG08lBKSeFMdQDqzLXVAZWjeNCg1VhkBAHQkaHQfjjoaYFmzOPTmnBVw1lRzsq3WG6hpn8nxE4vtF2rpA/2kYjprHgAUTUGp0aOwXIwKL1TaDm3QymwIu2aVTrLnfho+mbrSuJgcPiNQVtGZfwjsfEJyYjolZokh+Fmsp+EYeaTwbfyXXvXNKmSd4CfVCJCcRHQXrGVxvdmEVhzFAA2g4tPQTLAh1H+7B9YjAVbAowboyOVWR82CMydnA2AGwZtn5Md2AosWZYlG+3n9d+Zu9lZ/988gZJH2Y+JsFkgCU3N8kYn8/4dH3aDi7ajg+IHkHbh7FbBADlXsm5UthZU0GnXVPTT3LBD4MRJVCLb0PdrWgv03ezpsGfbjV8sAhGJytoaEe8VzIyK+XZG2VLidxW0ydbhKQFYMbt2I6d+Gb4ZPZhmS6qMozq2L9wX8X0V/7Wdz7i8olwd6FucTqwcMyUaUwxsfgMVdPiEfR043LW4ewEjbwH16gPl3a5n3KVcj205/i5XOMKkhDInezcwzo7c0EtoJ1MvPLIpXLKHInj3coL8sqEVIdK3FeAN/mlgnRIfiAL66V5eBhKVbnu8QQTiS1D2S+s4r0vbGbYGSIM1o8wwWdKQ8eT1A1N0PF4+RJmhp0h3N3fBZPbBNOSmDbxpjzfcU+MuUC5YWdItenv5JzvgGJVLr2yuYhMsjcu0PwKBjPsDAki9mqa/AMc/N+3HCnJjmvEXy14JhdoAEze8Kf+ti2tJdU7P8UBUOBfdv2g7YBvD2OvJ1zX4Sfxj5eC/wdWNJMFOiyHDQAAAABJRU5ErkJggg==;" vertex="1" parent="1">
          <mxGeometry x="171" y="330" width="34.87" height="40" as="geometry" />
        </mxCell>
        <mxCell id="Dnd6SaUCVXXJT1RzdSpy-25" value="..." style="text;html=1;strokeColor=none;fillColor=none;align=center;verticalAlign=middle;whiteSpace=wrap;rounded=0;" vertex="1" parent="1">
          <mxGeometry x="210" y="335" width="30" height="30" as="geometry" />
        </mxCell>
        <mxCell id="Dnd6SaUCVXXJT1RzdSpy-26" value="" style="rounded=0;whiteSpace=wrap;html=1;dashed=1;dashPattern=1 1;" vertex="1" parent="1">
          <mxGeometry x="250" y="310" width="120" height="70" as="geometry" />
        </mxCell>
        <mxCell id="Dnd6SaUCVXXJT1RzdSpy-27" value="Data" style="text;html=1;strokeColor=none;fillColor=none;align=center;verticalAlign=middle;whiteSpace=wrap;rounded=0;" vertex="1" parent="1">
          <mxGeometry x="250" y="310" width="121.58" height="20" as="geometry" />
        </mxCell>
        <mxCell id="Dnd6SaUCVXXJT1RzdSpy-28" value="" style="rounded=0;whiteSpace=wrap;html=1;dashed=1;dashPattern=1 1;" vertex="1" parent="1">
          <mxGeometry x="380" y="310" width="120" height="70" as="geometry" />
        </mxCell>
        <mxCell id="Dnd6SaUCVXXJT1RzdSpy-29" value="Messaging" style="text;html=1;strokeColor=none;fillColor=none;align=center;verticalAlign=middle;whiteSpace=wrap;rounded=0;" vertex="1" parent="1">
          <mxGeometry x="380" y="310" width="121.58" height="20" as="geometry" />
        </mxCell>
        <mxCell id="Dnd6SaUCVXXJT1RzdSpy-30" value="" style="shape=image;verticalLabelPosition=bottom;labelBackgroundColor=default;verticalAlign=top;aspect=fixed;imageAspect=0;image=data:image/png,iVBORw0KGgoAAAANSUhEUgAAAHQAAAB0CAYAAABUmhYnAAAAAXNSR0IArs4c6QAAAIRlWElmTU0AKgAAAAgABQESAAMAAAABAAEAAAEaAAUAAAABAAAASgEbAAUAAAABAAAAUgEoAAMAAAABAAIAAIdpAAQAAAABAAAAWgAAAAAAAACQAAAAAQAAAJAAAAABAAOgAQADAAAAAQABAACgAgAEAAAAAQAAAHSgAwAEAAAAAQAAAHQAAAAASjIxKwAAAAlwSFlzAAAWJQAAFiUBSVIk8AAAEqxJREFUeAHtnAWMJcUWhgtY3N1hcXf3DQQN7s7iroGgIcGDQ3B3Ce4Owd3d3d0d6v3fee/069tzbXZ7Z5qmTtLTVl116vxVx6ruhJCoVhIYLopq1aN/cWeGEw3/L+5/LbueAK0ZrAnQBGjNJFCz7qQZmgCtmQRq1p00QxOgNZNAzbqTZmgCtGYSqFl30gxNgNZMAjXrTpqhCdCaSaBm3UkzNAFaMwnUrDtphiZAayaBmnUnzdAEaM0kULPupBmaAK2ZBGrWnTRDE6A1k0DNupNmaAK0ZhKoWXfSDE2A1kwCNetOmqEJ0JpJoGbdSTM0AVozCdSsOwN6058ffvgh/PTTT+GPP/6wz/T70jBgwIAw1lhjhVFHHTVwn6h/JdAVoH///Xf49ttvw2mnnRauvPLK8NZbb4Vff/01jDHGGGG66aYLW2+9dVhrrbXCuOOOG0YYYYT+7dG/vXV+kt+J3nnnnbjCCivEEUcckZ/v9zg0S+Pmm28eX3311U5VpffDUAI2ljvV//vvvxuYgAaYmoFxlFFGiaONNpqduXeQt9tuu/jZZ591qjK9H0YSANCOXi5q9sUXXwx//vmn2cjlllsuXHvttUGzMVx88cVhoYUWoh6j6667LlxxxRV+m879IYFOg2XttdeOcnhsFq633nrx5Zdfbvjk7rvvjksssUTDLJXz1FAm3fSNBBg/bWcos/K9994Lv/zyi4215ZdfPgwcONCu/c/SSy8dFl100czD/frrr8Pnn3/ur9O5jyXQFlDZz6CxlbFEaEKYUiTZ1CCHyR7/9ddfpp6LZdJ930igLaByfMKYY46ZhSLPPfdc+PLLLxs4++STT8Lbb78dAB+i/DjjjNNQJt30nQTaAgobCy64oMWXXJ966qnhxhtvDL/99hu3dj7qqKPCVVddZff8GXvsscNEE02U3ecvnnzyybDllluGBRZYIGy88cbhiSeeyL9O12VIoJO5/vTTT+M888xjTo8yQVFZoahkQpxtttni1FNPbeGL+LD3yyyzTHzooYd6VPn444/HeeedN4433nhZqDPyyCPHCSaYIMr+xocffrjHN+lB7yVg46HTZ8oSRTzZmWaaKfNkhx9++MgBwA7mzDPPHC+55JJI3JqnO++8M0422WQWv3rZ/Jn4lm/vueee/Gfpeggk0BWg1Ks0X3z22WfjSiutZEDmAeF6xRVXNNB//PHHBjaYeYsvvngGOmWlkqPShAay10NyYs4554yyzw3f+w3tv/baa/GVV16Jr7/+eo9B4+WGxfn777+PgwcPjosttliUlx+ff/75yCCX82e8wBMZsuJAHha8dKpT8pSEuySFMFEhTLz55pvjIossYiBNP/308fjjj7fnCD1PlD/nnHOymTnllFPGww47zED58MMP40svvRQvuOCCDGxU+XHHHZevIrv+4IMP4txzzx2nmWaauMkmmzRko2644Yao3LKV3XfffeMBBxxgAn733XetrW+++cb4OPLII00LKBcd33//fSsPCGgfAIOnPP38889RiZNIH5WzjmiSkUYaKS611FKRvsmPiPPPP7+9n2uuubI683X09TV49oxBeNqESLpPNdVUgUQ9jg9EuKIO2/PiJxKaOT2EMdC0004bdthhh8wDlhq2VZp1113Xskua3eGMM84Iu+22WxbTep3Ew3jSmi3WntfJ+y+++CLsueeeYf/99w8CPijvHAYNGhRkt81Z22mnncIcc8xhDtzss88ePvroI2tPAyFIe5iDhlMnsKx96qSPlNt9992tfp45EZdDAst4Iu7Gs4fHKlBHL7fIJPGm7Kc9ZrkMoJsRyQVWZSBWYTSaMzB5xrdyksKqq67KrQmRb3xpzh52+PPMM8+Exx57zNoBbEKnVVZZxZIfrAbBJ+0ouxWksq1950XaIigLZi1I3Ye99tora40B8/HHHxuYfD/hhBMGzeTAIJB26jHgsg8rcNH1DIVXRv9ZZ50VZEeMdak1C2NYQptxxhkbusPsZeRCrKESrxYJwX311VfZY2ZGqwGSFcpdkGNmhhMKAaDUugn8jTfesAG02mqrBXnp9o73UvGmKdAWaAgGAANIKtNmG9oG4jkaAYIfwiwyYpSlnz6grUDF/nQF6JtvvmnqiLiRkY6ag1CT11xzTXjhhReCbEvYYIMNgsIZeweIngJEQAwG6nGhUei7774L5557rpVH5S288MK9ApQ2mT1ksFB9k0wySZh44oltADGg0AAkQlCPDB5mMUkPTAagKHQKs8wyS9h5551tbdcY0R/Kwz8EoN4ntJO8fXte1T8dAb311lvDeeedZypHDoZ11jtDx7VcZgdAywO1hW45FOH888+3VRovK2/QBLfkkksGDmY5SQo5R1aErBT2rjeETXcCPA7IbTzXinU5GQF4nlCnaBFAbUWUYSH/n0JtAUV1sXyG/QAkaIoppjD1gzAB44EHHrBZwKwFfIBjRgJuntjxcNdddxmQ8pRNFaLWGBTMpjXWWMNmef6bdN17CbQFFHWoWDIDc6uttgqsh+ItMhtwHAD90ksvDbfddpupYOyak7JDYdNNNzXgsb14gnzD4YS6xDnBo3Sb6+/SufcSaAmo4rKgLI/tJaJaxX9h1113NfXkjgv2SmlB21eEjbrpppuMA6UEg5INYfXVV7dZRwgzwwwzWCiBp8gMHn300cOyyy4bWJJj+Y3QokqUd3xQu/8UagnofffdZ2oRoLAxgwcPNofAwcx3cL755jNgCCFQvSyx+TPK4RliH9nlgCMDoNhMQhkGRLM68/W3uybhf8cdd5hThJfsHimDDXrkkUfMZKDyUe8Q/LHoAF9oIdr3OBlniIHMZjgIrYL2YccjssAm77333vau1R/qQCMRF0NonvXXXz8oxWn3ePyYJ7RZfrAoeWKx8dNPP218E2IhL+LlrkmdbEoK1C2Zroqi1GaUam1azh/ef//9Ua69ZX5kE6PiOn811Gd5yLYoAC+a1VEq2+p86qmnolZtojpu7crZsnyyBpW9v+WWW2w/FFkovvWDrA+LBezG4JmEGvkWIv243377ZWX9G8pwsDCh8MXSoTI7Vk6ARfkD9j3pzyOOOCJOOumk9k5edVSyJMtmCayoAWEZJq/bz5o4cZtttoksctDWwIED44knnmj1dvNH9bTOFLFLgREPYS9x8dsRM8JnBTEfIcmwItShcstBaUfzlGmLkUyWiXiRfcLMKpIHWv0xNtAIs846q2W18MhJSlAHJGFls9fv7UXhT7Fc4bX5GiwxnnDCCeb5421rN2TYZZddgsAx3+HCCy8MHIRZaAa0BBqQzBSeP7E9TmKntopt+31LlUulrgoJV3wN1D8snlEjHnfi6ORDh2LZIbnXiLXP4EkzM1x22WWWuSG21IgOe+yxh4VDhBjEx1dffbU5dHyEjcZeo96x73jiqFRA9+01bjPpN/Ewzh+qHPVMdogBg8pFDVKWa4Tu5DH5McccY3Kg3GabbWaDzMMrYnY20gEmqpvwjf3MxLmo53vvvTdg6jAjEH3Ot+FttT3rg6ZEYnryySc3tcHyFkls2b6mZXl40kknRQX5Vp4k+umnn95QlmQ36oZyxx57bFQ4FJWosER3Q8EmN3mVi1pC7ZIwV8dMPbFER/1OEpypVN4rzIqaNaYm/T1nVk1c5VKOjW5ObHLjG55jPg4++GB/lZ2lhTKTxNqufIQ4/vjj2zeoYnntkUUFJ1S5nER7T/mNNtooageIv7azgDb5uLrW4Ou1ymUENCWYkWOTrZawyqGMUFMANKLiyiuvbMwiBFZWtJs+yvBHbIpUXGS1g2UzViwoIy/XOgiwxY4VGcoDyrd+YPc0os2e5b/ZdtttG/hutgFc5iSy8uJ1FQE9+eST7R2AHnTQQfnq7ToPqNfBWZrJwHQ77x8yeOGXMgwyJkwzYtA78EMCaEuVSwIBNYVOJ9960UUXmR1tFYfiGTqhPvDyWPFgqwlJBu7zhCeI+rn99ttN7bBiQk61N4Rdgk/ShkWSsOwR9qlZug51hlkg/wu/ZRG+BnLD78gTajafnGm1TYfn2NUhpZaAUuEWW2xhSQHPFJ199tlmd3A8ipkiymO/yNWSxCaLxKYyDifsEQxLJWeZImwYy1cI+JRTTumYXKAcBw4bzgX14QzJPHgzPc6AyzdFgl+S9GUAim2HJ/yIM88802w1YYrbZmSC3YXwMVo5meSLeT+k1BZQkgHbb7+9eV2AinNEwgFBFokkOY6DbIM5GsR3gOqrLCTF2WVPGZwBz+Uys/GKyeuus846tvxVrDt/jyet3QNBW1aMH5wQcrR4kz4rECIHAib+xHFq5qTRH1/iy7fR22tAkMkJjz76qHm3aB7AJOnPgIHwvHG4IDJlLBo0I5wrdy7z7+kLgx/nlL64w5ovY9fN9HjxGTGoVGIUGFHCy+yTRn2UgG2bCXGrAuXsU+ztmmuumdkodjkUY1nsNKv9YsRsKz+IakZ5GyqVHxWmRC2ZReI/vlVSIF5//fVRHbbPcbqwU7xjCwy2XAJpqFpA224LynAMjQ0lzmXHw4EHHpg5RhJ41GCLMlfWrkyXbeGhLWJTfAoNtAaecDqJndkJQTm3ofSLXRnUgS1Gbt7XfAX6JnS1wI0aPfroo23VhZkgL4xvTcXidjMbDz300GyZyV7qDyMXwsahZvNLZzxnpKHWIbJHZHVcLdnDJn/UAbNFhxxyiM14VBdJfjkZtrTHSN5www1NE6BmH3zwQVsHJe4kXqUdYj5+n5Pfftqkqa4fwRP1ynmydCeZIfqBTGgDDYGtZ9byDq1B+4QxzFa+xcbSf8IxD1ucAWYsvgYzlP4JWMu6+fv8ua3KzRfkGlB23HFHs4uo3oFySlA1qOYi4QB4coG8rQ+CfDnUhlz97JHHdy3Vyf9KIkDqYzBg/1ggIK7ErhPEcyZ2BEy2jFx++eWBfDILBahsnmu/U5anzhgo4QITgContQdwhx9+uNl55MRAY/cE8S3qGZ5YS8YEofrhE0fSzUWeHeSJCQNQbdazAUyqsEi9ApSPMe5UCiHYVjMKgeNdErzTQUYdHcSW+reMSpL1EJ3AwfFZbQ9zf5qBzII6AsJZI4csVWt2CtvFwIM/NoIzI1k14nAisCd/K3VuDhPt58mdqOLzfBne+eHP6R8zk8gA0BhQ2t5qg5/8tsyQzUoW+5md8MwB4QwxSZApPFM3fKCFGIjco9UYxEySZtQ1oN4IAvSZhzMDY4w0Gsx7bnidZGbwbH2TF2kxOoTaoQ5A9p8f4nEqfmzqjaKyqYsEOSBQpxOqFz5I8THQWGtl2Y52WBCgXiU5TO2h2hgYtM/eI5w07RK0+lCHTgiOwUU9CA6Hr0gIGp5Qp0WvlVCJpUbaxvlBg7AwQRv82h3TgyfMjEONQtRB2CY/whxJVDXOHnwAIqtRzGIAZ11Zv8UtsvTfe43ijkQQ3c2+3OLPCGUTzJFSS2bkOYu5Xu/L7chgFwU0gCwxIvvTRem+KYJc2WdM4kNx+VA3aoh2qkWjPpJa67RzXsFwVPKhR3pQo8k8Ts2MDNQ8wJptaed8JxC6fN8VoNLltskZEKRm2v62RQmHKIejR/P8toU0IjlOUmmAK/WcftvSQ1JD96ArQFnX9KQz8ZY2Q2e5U2Ih1vqk/7PZJy+zJVfkKeWZWpwljy+ikhOVJ4GuACXglpNggO2zzz7Z4rKzQRKaBXBmMAfXPEvU9xIA0EZfnSc5wqskie5hCl5YflskRQlPiE89QY73mt88nasuXfaBBNoCSkyIC+9EeNDsNxw8Jz6F+CYfvvi36dw3Evg/Wk3aI5lMysqTymQ/SDvliSQ5AbsUjD0mQU5Mmqh/JPD/CL1F+4MGDbJfkZG5IL2GGia9xrYJ0lT6CWCWgSEAZ98OKwuJ+kkCnUy3VKn90JV4USxayEHooU1XWQjCcw52rGm5rFOV6f0wkoANoW7qZvmKZSvZRwPOAfQzYA/Wj2b5NXOi/pMAgA5H81y0I7xcEuv8zgW1S04RR4hcZfpvnO0k17fvlPhR6qcLQJ0tD2PwaPkMDxivlmQ3yWVV50XTuR8k0GtA+4HH1GQvJACgbcOWXtSVilZEAgnQigBRFhsJ0LIkWZF6EqAVAaIsNhKgZUmyIvUkQCsCRFlsJEDLkmRF6kmAVgSIsthIgJYlyYrUkwCtCBBlsZEALUuSFaknAVoRIMpiIwFaliQrUk8CtCJAlMVGArQsSVakngRoRYAoi40EaFmSrEg9CdCKAFEWGwnQsiRZkXoSoBUBoiw2EqBlSbIi9SRAKwJEWWwkQMuSZEXqSYBWBIiy2EiAliXJitSTAK0IEGWxkQAtS5IVqScBWhEgymIjAVqWJCtSTwK0IkCUxUYCtCxJVqSeBGhFgCiLjf8AkQ8cvW0k/bAAAAAASUVORK5CYII=;" vertex="1" parent="1">
          <mxGeometry x="390" y="329" width="50" height="50" as="geometry" />
        </mxCell>
        <mxCell id="Dnd6SaUCVXXJT1RzdSpy-31" value="" style="shape=image;verticalLabelPosition=bottom;labelBackgroundColor=default;verticalAlign=top;aspect=fixed;imageAspect=0;image=data:image/png,iVBORw0KGgoAAAANSUhEUgAAAIwAAABWCAYAAAAdZX53AAAAAXNSR0IArs4c6QAAAIRlWElmTU0AKgAAAAgABQESAAMAAAABAAEAAAEaAAUAAAABAAAASgEbAAUAAAABAAAAUgEoAAMAAAABAAIAAIdpAAQAAAABAAAAWgAAAAAAAACQAAAAAQAAAJAAAAABAAOgAQADAAAAAQABAACgAgAEAAAAAQAAAIygAwAEAAAAAQAAAFYAAAAAyRsHSgAAAAlwSFlzAAAWJQAAFiUBSVIk8AAAGm1JREFUeAHtnQmUHVWZx++tqrf0kn3pbA0JBAgJJkATCIZACCIGRRElLKKjzqgcGXXUM0edmTPgmTnO0eOoM47iOKMoMhFZZQkIDiACBgxJIKTDkgCB7Hsn6e29V1V3fv/X/cjrTr+GIZ1u0qe+5J9Xy617b33fv77vu7fuezEmkUQDiQYSDSQaSDSQaCDRQKKBRAOJBhINJBpINJBoINFAooFEA4kGEg0kGkg0kGgg0UCigUQDiQYSDSQaSDTQ3xqw/d3gQLXnbrnUb/NfH29NeJy1NrAm3rg3zG0Yu6ix+e32yd23MJNr3lbvrDtadZqcvzaTWvaaXWSit1vnO/26QU0Yd+fJw9ty3rQgbU6MInucMW6Kc/YYY51vnd1mPfuK57m1cexebI/Dl4btSW20n1teqGQ0ka41WlfnBf7x1rpplDvOOHNs5NxECOOz/ZrnmXXG2XUudi/FgXmhOlq+fTARaFASZt8dp49KReEHfc+7IHJxfRzbegw8FgNnMKr+Gs/iY1zRE+yxxm2i7OuxcSttbBdnFz39YnfStN/ccKwJ4g9Z48+NjTkKQkx0xo2mnlTsnJEiVWcUm4i2tvnWbqCdzZDzITzQvVUfWfla9zqPxP3gSOz0m/V5SOi3tttwHQYdZ503zLNx1hib0XWQwmBf/Wt8z/p4lyq8Q45DeAX7XDbI7+mp/nzab0rH9gUIMNY6NxpuZA1kcR2VUa/EmXTK88PQ1NBOs2fNGs/zXgpsuLenOo/EY4PKw+RuO2OmsdEleIyNOWufrM36r+ebzSTnRZMx7CxsezpEme15NouHWIt9nySQLCeWvFAomM2e7wU2cDPxNnMKObOyqsnd3TrSXpj23TSI9aqLzYqM8ZtbTGFcyguOja2bBfvOpN6Z1JWClM8Q6x6FSM9aL341Z6q2uDg3MmPNqcYzx3jWLUtdvOKBI5EopT4PKg/jPKdQ8XGMi+XtlvbW8FXrmcdtaB8reNXLUkHudheGkwI8Sz40u4yLt+ZtlKmywSmplLkycmYGXoYQ5sY7E19v0sOWGLPv5EJkL+fJCog7m3I2XuPHdmku75bZbOGxtE3fEkdRnbWeb327ua0tvynre2Ns2p+bcu1nQKZpkbP1HkwlVrWh+IQwJfYN5CeGsfnbo4B8YgjbYzD40Xw2WGPP9ny3LeO1rMELPJzy7QMm3NpkqurmRKF3pR97pxA+jopjMwZvMQRSkIqQqXhe2kzmjrabNOeHc2gce8cSjhrwJAtTabPJRsFqQtTvslnvQdOWdvkot7Aqm/kKdU0rFOLxXDOGa6rgihcbu8v3IN0RLkf8DXTXfynGktBqM42xJpGfTIojMz0IvFMJFxv25+o2pT1zBYS6jHI1lPPZ7hB96sqO67WD3aml47zlo5aDtTZ2R1HsZD8wU/IuXBuZsCnwg2+FYVxPGUgClTquKVZHJUSlI18Gwz28qRVkOIhRhc3GMwSujQNXQ9ghjJih5DYHyFJeExzp2H3D7uVnRSAPLtVQqi7Me1U2VUUCbI6lnWo+RbkuUqyM4VKXg0fgzqAiTIgBerUIJ30yXBJWPe8HGbWL/bzOqnAlXY533yHzTcVBaOPIK5Ko+/nOfRrrvZ4K173TDg8qwgQdT3BlwxBbogJPeehkv94JUxwvY67evAIMoYDLxS7MRZF0WbHOYlHFtiNcBg9hRAHHeITUobJNiD+BK07bU7yicYsnrI3Nes3b4GF6MTSjsNgFuTDjpXRZ5Tp7qaNyf995ZwYNYYqWYqIDFVckDLOwjhk6F4pXkkolOcvf4lwcczZcVSzd4z9F+oVenCckdVTaQzFOdFTRG5l7uO4deGjQEAbdKg0tev5KesaisR/FceCHvVCAq2V5zyt6IobIKlu5PO8B0p7fMdFbqeGOKjtcWy9ljoRTg4kwmJVXir0YFw9D1stTHrzJkw49iqGI4vIw4o/QkxSZQuKbjpma611cykC/I1wGF2FkjDeGwz1axkUMpXgN0CGVWMDZkmL0iWfqkQw6KJfW3m5MXtugRymeUGN+j6ePpIODauIOZ7DRed6jeJrzMcJQnmcf/hywkgyvPAdPhCvqTGSK5nKQIsSb6CXkZs7el0oHN5jX/pC30xoWM+Ufer65mHdJJ3TMszB38wanYpOpDmNbYJTEmL1MYuZ5SGxsG1hNk3cUbHRX2fkjcrNfCePcdZ659YFMU6otM3x/XFjelso3fHZ5WJxKfZvq0xqVjWZjelLGC7bt3b9uf9P+T40aPqwuk3EXMLN7MRN0p+MFshg4C0fISDwXGJ9Jk1iJTB6SNGPm1zHoIy6O78qalY93Xb+y/GW69i/uPxu+2zbCnmJ9d5EPISHOVOqtxsXgs1JRu288GihwL8C2sy7medKlB6LI3Z3d663pbZ3N27z1AbmsF6d86P1BoXbNrTNSE1pS1cOHZmqJBJMKUXRe4Lt55BOredgfJVl4PmMyu01LpvWbPNHXXdcxOumtdYyXMvVBVevefG06CCZHNprrrJ2FIZtCFz9MNrGqo84trbmhYybEcfx+2lrIkz6EYffXW124PWuDj+FVhoaRXdKa85aNuuqpfb21WX7O3dNQ3dYWz+J90/sYVg/PhfE/6013ytrFvMD8fVxwv6seurfRXrguV37dYNg+LIQRUcz9ZwzJR+EExrGsdDPzCAALeKJn8gSmGNbycq8Y8wkFrE5z9nGShkd8661qb482Dbniot3WXndQguhunFmTq8nUmTg8ITbeOb4185lfm0FztW8sYvJsyLHNtPknUtWHPOstTcfh9jUmv3eKXzt2X0vbnrpPrGrlxulO30jxfqmwL+vsm571fS2HhTCPXDc/OGvmvrN5Q3s1ZJiDAesIDWkUe5BAIL3eizB+E9vPsvPLVMrdZi9a3tq9cMvNDaemMvbLceTmUec4vFRxUVT3ctovDqF928J6l0bK35CJ7G/souWDZiFTT/fcH8f6lDAiyvyGXF17vj2Icun2dI2rd2G8gId5DjH/ODKI0WSco7mxAI+Dn3H7WJuyncnZDYSKp52NH4qM11itO/dSGTM8u9XsGEMk2zhubyHMxKl4V9pEUwLPP4f51Xm4oKkQbCz1jqAOyGOZO3HN3NQOcogt5CfP5COzpMZvWd6aq8pUp4Osqc1tsxesaukP5Q7GNvqUME3/864RVVXZL5AIkhC6PxF2Vkeh25rhSW9z5ihyi3kY9UxWo42PI7uHkcezzOb/MU77jVJuEIZ1TMKegKeZQ04AJwo/bGnNbq2tiv46it0pkONR5skarYs2Rm1+M96mnumPOZBtNoSshyQteLFGcpalxk8ti2xbvtZPT2zLu6kEoDm+58bgzX6Q/sjyFd2MmWZ/JBjReVz5zBZQCota0lAFtABKMhRoxN0E5Am1RGIU0IC9/Dp2i9epbl2jyUAtARX0rlT617XDQKmtkk1EakHlNDjR9YLa2A1KfVE/hgN97gfqp8ox2C+2o/J9Jn06SgpS2QzGmhH4dlEhNFfy5G9AJU8WnFnKwqVVUWzvyETBj3KmeXzWjNrekttZk65J1XuROxdCzOGd4FyMfzxcyRLCVuSi1K+CtLcTPU/NpOxHC6H7KCvqNjFSXuZXmcdizzzH8scl+9vc4iHZjNfc3GxckIqzVeZoFxfmenHq9HxsFjA6mg5R0iwG3xD45oZu2pMxTwfnAeVbIo9GRreDJ4GmWM4Gp4G1QGNnFlEVw+ETfK4A54AzgQx2I3gG6Lo6wENi5oMpQMeeAw8C1Z0CZ4EPABFDIuKINE+Dh4HC6CywAEwF+lrMMqCVe9uAyPYJMATouO5hJtC53wG1U6qbzUOTPiVMDWsX28lTGEoyp8lXOYyZTFiYzO6lJow3KbmN/Pzi7EeeW5K7bdaMVCZzWZw3FxKaMKipwkvgVdjjnlh1b9OmkM5WZ10+l7cY2yhZps6JeJKJEOdiim1g4uSpTNrebMLc/6ZrgwmeMZcz8jkPtTcwLZItkOh05E7FRJv5/i6TJSLHfPCP4HiwHugJXQjeCy4BIs/7wMfBViCdHQNoyrwHPAUuAjKc5EQgA0J0cxn4EpAH2AFU5v1AhPsiUJlTwZVAZJJnUPuSG8EqMA18DZwN9gC1/zHwQ3AtECmvAUcDEVUrA+uB1Hgs2AjWgz4RNX7YRD3Gc6h+7G9YoeYuZ659iLvO3N8WeR9gwfXneJjGdpbp2g+4geGDfa17bJY/pUnSsjoNS1Xq/cCrh2T5ljhel/WCU10Uf5VwWKNmNavbRYoLb8vn64qGPIEyMqSexsVAX0f5PhCBTgJbgJ74GMgYS8EaII8yFSjlugcoNxOx5FG0rdbluSQ3gYfBWeAzYDI4Gei6h0AbkHwSqD/7wUqg2/0QmA+0r3omgS8BEe42oDLqmwg8DDwK1K/ZYAqYAdaDPhE10mfS2ktNesoxIgMnbuza6wjmHqveeBvYQaiDrsSsluTWDq0eIbcipRwkqlNk42+RXIyGuB+ckdTXgzDHa5lMK79nGUoK/idwA3gBbALKHSS1oFTest0I/hV8BzwL2oEI9BWg4xKFmQCIMDeDbwEZ9iWwE4gMOq8QIq8iD/V98Ceg47rX+4AILOKdBCLwZ3A9+A3YBuSNPgx0TUlEwG+AO8E+IG+ldvpMyhs75EpbYUxNFpNJtT0Jx5l3Yba3kX+40Zj51Z7KcUxVcJYPQrjNVCpWvJrw1GFU65i3q1ilLGG73bCM9zKYABaAejAWiCiSElm0rS4prCinEBn2gBzYDlSPjpdEZXVsNRgFLgcTwWSgfRG1VLfKykt9HSiErAG/AmuBvNAYIGKqPj0K2hbxjgYzwRKgOnRO91Lql/qmNnzQZ9JNf4dWb1XGY8JVz33P9u28KwZHxTt809e7pd7gQfSup7LgjfQW2sVaklDBZfV89UgOXwK+DGrAg0BKlyGGASlcLZdal1F0c+WgzeJ+d7+muq8GVwEZ8XEgzzUeqL4SYdJsfxqcD0SGn4AVQPWWvFWpPQ4V2xJhVYeIVuobm8URlK5TX0r9KT+vMockpU4fUiWli2sYoTAy6l34KiIpMHeD/1CwqSBFypUcUIWQdOBSfQURz+LxnUPbaw+6r0lRvnAhkBEfBv8A5PaldIkeqPI+lgzX/VNli13WBqLtWUA5jUKCQpPq/i1oBtK76hYhGsDXgQj7ClAo0bbKaFvlRSp8d1H0vMkDqo0toKRx7Zdva199L+8/u4cmfUoYDWvpnjpaWfBBb5w8sPXGodIG5odOcdzh5yuHmWJ5Surr9SbW6rjKZWku5v1PSam6VOFhHNATK+PoCT8DyDtIRKiSobRffm/l293PaX8SkAcQ+RTKRI7jQR3Q8aOB2vkMUEiUqC9fBN8DnwIKK68C5SIqfxyYAlS+AH4P1Pee+tL9GMUOXfo0JJmQt/7KODWgriAwtONGeBuIi0EOLqirSXJYWs2bYBijL7YeXOrAEcKVY+6HpZfFpOfAiYO3+Ko84+wDsovNreBUcD4YCqYD5QvyDOeAHwM9WKWbKvW42M0ejnOoKBv4VwRUaPskeC+YCuQhRoCZQOSZDSTqi8glks4BIvO3wePgLDAP/BtQv+RhloH7gHIjSal/2i71Udt9Kn1KGJclLSkmG5X7K42oUY2Put5j+X0V3RRkSuWHDYtMjuesN1dIauzyJLtkUEz19Ny2tInT4suOXTzM8xy+DeiJPQacBmSg74JrwS+A8g8ZczPYDkQCNaJjCgk6LxLKG+wE+U5oTuRWoNs9ESjMPAjuBApDdwHVcS/4L/AKUB3yaFNABqhNJcEiyFVgPhCZleh+H8grinwqlwYKX+qLjuuYciYd6zPpU8K0B+3tw2z2JebXtjIaGifOdx82y6tIjawu6jIhojsS15iv02X7CC3P57x4W3VrXDApt4ZZ4h382sIYXS6v1JUWzuTzBUZo/BgD31Qr144CIN4Hx2La2V5J+zJSSZrYuAeIOHqi28CrYBN4HTQCGehGIGPrWh2X/AjcDOShFBZ0/HIgg60HMtbPwMNgCNgLXgMKJWOA2lAZ1aN6W0FJVF5hSMZWn34OHgMKYSKVvNeLQLINfA0ozL0A1Be1+TLQ86k2+0z6lDBjLm1sNfc2/CzX6j3GmtiTsdV8iHMahqrTDK4EUnATt+IxTuET0lCoSBJr9lOC90TmUSizFEq8+Moes6Xhs41hdEfDLaQpK+EYddr5MG0OrKmjvKc6VXVKnqM4FdxRp8jHNVrK/yxB6BHjxUv5vvyL6VTxSdZlJdnNxp8BV3Th4ROlAnyu7UTZoeKTX74v4z9UfoBtPeVCd9lRdkDG7y4iqVASeTZBfZR0KLNjWx5P/S+XSu2Wl3lb231KGIzP07X8dVbBbWpqWft0VZW7G4sdzZqUk5nqnY9hZ8OOiFGSi2+xEe+XWjHv0si4P2L5J0lZXy5kgu0ul+fbrN4J00eYC/N3njbORtGfmeh7vNASrRo+3F8Sxt5EJuBmE4kgpDkdwoWkJjg2fiCBp5ZXB+vZecyL7RP8AszaqnRq25pc857pH20sFHnUs6rKjdBziYE/OuB9LDH2sKlCSx5OntVUW2X8UXHo1Vk/ymYvWfFIy+JT3+WnzDC+X8qSBbOj3XhVTKOcFFj/bFLc2XRoIkYfzsOUhRBNRJVddPa5QhzjvdJLiTM7a21rdWg9llAEbc1xtDYTxTVexk7jZ8i28j2hnbVh1GQXNSqnSKSPNHDYCVPeT3cdIWT6jEBGdI/MD1jr4nKpVybzRY5P42Tfy5h4HC8uh0IQrZUNuj9OdLaNl5n7gPKBp/h26vVVpmW5WTMmNtf+ITLfxGWfg9M59w+K44kcBg30K2F66r+I07yjjSUN4Xv4OYSLIAohxgztfEdUvESdJOElD1bSwgp8E9/vu/i3gSusgnx9OgroqY/djimMa2hcEvG6khdTOaGYa/FJyC4mvd2fBQ4fJErCx3Qe1ehLifFbua7zksPzMWCEab39tLmsezmfBVaNLWH8xOhh43aZ3bszhWo3hbeHC9DthajnTBLXarjyPJq+mzeN94ep6IXabOve3btHZVJeODOTMedikpf3bmq/e+w1/UKev8EUnwca9kp/8mYaKWlORMNxJaEluYiNL4BpnQdEGCWz64BGXbcDJbPlchw7XwUXAA2Z1YZGUCvBz8FtYMCkT5Pe/89d8CWPqX5gP05uMrEm5e3NtW5bzi+43JsL3YNDL13xA/OL+de3BvtHBJl4RHr0nlfsuevb+bZAdetI/5xcW/Ch6mxhAQnzBEiVItX9adWYkb+n/f7wNuRVxeHqvXw+DbR/Jvg7cBK4EogYEs29aDLwEfA4kMhrnAH+CXwOXA2eBBKV/x4QaX4JdE/yXiLcKWAiGFAZMMIwk5tiVJMi9GQYPY1FwwsZ3Szk9+H2525veMYM2bs4v9/dXJ0p7GrbPnp2/o5R17RH5gJC0XDWuXS+uGSeEPfDd4z46QS+GdQ/oideQ/FHwS1A+/qUfBCMA1tBiTQyONMExbkczaFIsuAc8GNwI5gJ5JnOAseCn4BfAYUhyTJwU3FrgP8pxdZ+74bPVxRRqZT9hmiSrxDGQzgwz3reF9JDgne3ZOyIVNZ8G1JdAblG8u2zTrJ0XKYKGLYzWA/7+15K+YQ+SyFDk23yEl3ui/3uInLIq8jLTAFXAYnuXcRXUq8y5aJ2Sm2WH+/X7f5W8oGbQy14mR4VIOKwSJzvuFq/hu8oEgBCJcGVhElBlnsXvzNfqcjhPq58Rl5CxNG0fOXOcrJTlMuINJrwOw/I278A5IW+AC4DpaSXzXeGDFhI0uIpTNzLk+gs3iaVYZLmTYVaqvVs94+IDJqinwfUOyWmc4HC0fVgByiFIzYrisq0gZ2gHujhXQ3+A3wZ/DeQl3kZKJdR2FNoisCAycAR5s1umeERPkju+Z0mIswk8BfgCpACIdBLxb8Fb8W7UKwopQem/JqfcuY+IEIKp4O/AiLkDzvxVghJ0b6XgQtJLG/Q1EpPt6SDzLnw56D3kz0V19wMv1bWJbXpsVwfHSx5gs9T31HgNPADsBB8EbxVkquccpZR4DVQrouN7P8aqI13g78EymsuBhPAgMmAEYa3x30metyUPPSjqEmNfhRS1gGFDw2zrwXjwVshjYbjCmUaMT0EKnkNtaNR1oOgFgxoXjNghOGB4lVRZWG2lx9hsU6L+JCKrqajDhdX+UElhVdupO/O7KGqnwCNkJSsVoOSKOwobIkYOj4U1IMF4DPgOXAX0CMkEinc6VPX6FqlDaPBWKCcpkMjbAyEDFgO42J+ANX3O43clTrFwK4z/JIl/8EEC++6uOsuehKxmIvhf7kJ+9BndWmi0k6xm50nNbJpBL8BV4MHwItAosS4Acgb6UZFmBOBjolo3wG7gWQ2+DB4HawGTWAEuAAol5EnUrgaMBkwwgSp4jqRTWh9LM9RlnmWcgNAFpZKMaDW45QtrnjpqiOIogsKHN2Jq9rcZvIySH+IDCZy7OrWmKLiv4MTwBTwGlAZhaxpndBjoBCzFSwGS4CG0iVR3SFQPnQJEMEUBVrAb8FNoL/uk6YOFnQ+MOLumsvvx+TezyuCC9DKdHQzCQaMgiQZdQqvsZrFc99gjuWpjGd/zZf0z+tchKV8eA9zOJspt47pmSciF9w3ZNFTa/rpTobRjsLLfiCSlIuMOwHouOZj5F1UXuFFxpcXlMF1rYjRk5TqmMhJ5SwKQxvAJtDfXpQmu8qAEabUDXfD5GxrzcgZvI2ey7KG05igO55O1TN3uxkX8/cFF69kNd1NTOa9G6Ksx7Os5z+EeAYC/TEXti0ftqix5M5LVSafh1EDA06Y8nvbyi9MDanxpvOfms3h+wc1Ybt3T3PsbajOhNfwM2c1rJV5gl+CeHrIopWaHEsk0cABDeC/rX7wULkNa2YUAhJJNJBoINFAooFEA4kGEg0kGkg0kGgg0UCigUQDiQYSDSQaSDSQaCDRQKKBRAOJBhINJBpINJBoINFAooFEA4kGEg0kGkg0kGgg0UCigUQDA6eB/wNongW3fex7WAAAAABJRU5ErkJggg==;" vertex="1" parent="1">
          <mxGeometry x="249.98000000000002" y="329" width="76.04" height="46.71" as="geometry" />
        </mxCell>
        <mxCell id="Dnd6SaUCVXXJT1RzdSpy-32" value="..." style="text;html=1;strokeColor=none;fillColor=none;align=center;verticalAlign=middle;whiteSpace=wrap;rounded=0;" vertex="1" parent="1">
          <mxGeometry x="330" y="340" width="30" height="30" as="geometry" />
        </mxCell>
        <mxCell id="Dnd6SaUCVXXJT1RzdSpy-33" value="..." style="text;html=1;strokeColor=none;fillColor=none;align=center;verticalAlign=middle;whiteSpace=wrap;rounded=0;" vertex="1" parent="1">
          <mxGeometry x="450" y="339" width="30" height="30" as="geometry" />
        </mxCell>
        <mxCell id="Dnd6SaUCVXXJT1RzdSpy-34" value="" style="rounded=0;whiteSpace=wrap;html=1;" vertex="1" parent="1">
          <mxGeometry x="520" y="290" width="90" height="100" as="geometry" />
        </mxCell>
        <mxCell id="Dnd6SaUCVXXJT1RzdSpy-35" value="Authentication and Authorization" style="text;html=1;strokeColor=none;fillColor=none;align=center;verticalAlign=middle;whiteSpace=wrap;rounded=0;" vertex="1" parent="1">
          <mxGeometry x="520" y="290" width="90" height="50" as="geometry" />
        </mxCell>
        <mxCell id="Dnd6SaUCVXXJT1RzdSpy-38" value="" style="shape=image;verticalLabelPosition=bottom;labelBackgroundColor=default;verticalAlign=top;aspect=fixed;imageAspect=0;image=data:image/png,iVBORw0KGgoAAAANSUhEUgAAAIYAAABMCAYAAACoCs9DAAAAAXNSR0IArs4c6QAAAIRlWElmTU0AKgAAAAgABQESAAMAAAABAAEAAAEaAAUAAAABAAAASgEbAAUAAAABAAAAUgEoAAMAAAABAAIAAIdpAAQAAAABAAAAWgAAAAAAAACQAAAAAQAAAJAAAAABAAOgAQADAAAAAQABAACgAgAEAAAAAQAAAIagAwAEAAAAAQAAAEwAAAAA0WdXMAAAAAlwSFlzAAAWJQAAFiUBSVIk8AAADVBJREFUeAHtnHnMXUUZh6EgLa3SUgEpLbZ0owW0rEYWDYvSyiIIsgkiIgbiEgX1DxOiILLEQBBi1H8QGmNli6ZEoJTWVpYYIOxKoVRbSqFAwbIvUtDn+biTTA/3LN/33XPuPfT8kuc7Z+bMnXnPzDvrve1GGzVqaqCpgaYGitbAxkUTfoDSbcq7jIKxMAWmw3jYEj4Eb8OLsAKWwFJ4GoxbBxuENhTH2ITWHAmz4EiYAdvBcBgCaXqXB6+DjvEAzIV58BK8A41qXAO7YPvl8Az8rwOYz2Vgvo1qWAPbYvPFsAbs3Z1wipCH+Zmv+VtOoxrUwFBsPAKWg1NBaMwyruZvOZZnuY16tAY+jF2XQNkOkXQyy3P0sPxGPVQDLiDHwRxINlqVYcvXjqwFLY8bVVEDNsJkuBGqdIK0srTDbXDjHFRCN7UDhV8LaQ3VjXjt0a5GXaqBMZR7IXSj8fPKvAC7tK+W8uCnrvoIhh8O54EnlkndRYTnDf8BdwxbQCfe15PRJ2AhXAVvwVRIak8iHoN/wX+TD5twOTXgie0+8BCk9dyjo6K34v5YuBvehPgznknY2Dawz7zakMbHuxvjHoZTYRsI0gHi/OJ77dNO7a2Vamdwq3bHcz0TvpdR2+4Onko835LwV+FL8Dw8AqvAw6qXQQfxuxRHI51pLOwEY2ABXAGrIdZmBByVRsSR0b2j1qXgKNOoxBqw4fy+4zmIe2d8/xrPTNdOdgYb0+d5HcPnTj9OVVm7jGU8j0eX2Bbt1N40e3jUe8p62d6z9j2LHC1mwtYpBtooYRpol8TnTgvrwPsshbwcSWz4NJlXmrTzYBiflqCJ70wNHEo2K8BGS8OGctqoSk5FaSOGNq4A7a6N6jZijKZmd4W83ufwPwPypgqSDFpTyMH1SFZZ2qvd2l8L1c0xJlCre+XUrD3Ur8YfB+/LlotRf9CTV5Z2T4BGJdSA32KuABshDbebX4YqtTeFvQppNhm/ArS/FqrTiOFOYnsYl1GzLjo9O7g+I00Zj/5OpgvARW2atFt8j55XnRzDxaQVm3V66Wgxp0u1PptyLT9N2q1jV7koTrMlN75OjjGSt4lPHNu9nD12cbsHFcTdSRmenGZJ+32PnledHMPvOlz9p8l5XMdYnpag5Hi3rJ6AOp2lSft9j55XnRxjc2oz7xdS9ti8XltWo+iYb4DXNGm/79HzqpNjeKQ8NKdGnce7+U6WnXWeof21OBrvZiXmtPH7HtsTs46lbZBhMOJ9n6wmwu9TLDvLMcLpaDUWDaKUOjmG31dkrfqtBkcMdy7dkLsNF5ZZdar9vkfPK+sles1452+/Gs+Sw/QuWQlKfObX83lnFNrve/S86uQYL1Gbz+fUqMP5QTlpynp8IBlbfpa03/foedXJMdZSm6tzatQeOxOG56Qr4/FRZJo3Ymi/79HzqpNj2NNWQdZ21IWfZwXfhip1HIVNAdc4adJu7a/FiJH2Er0a/wUMWwLuUNJw5W/lT4WsHQKPOyJ/iPMkhB1Hml3+jFD7a6E6jRhWqA1wf07N6gyeLt4MY6Es5zDfLeEmcCeUV84DpFkJjUqoAX+keybk9c7Qa1eQdhZ4vtFJucjcD3TSUFbWVXu/D558NiqpBg4k3wchNITfj/wDzoUrIfkjYc8O5sNhMAYGevLo+sEvwT4H18NrEGzIu2rvAdCoxBpwergAQmPY8LeDX2nbeNPgHgjPw9V0/4Z5cCE4kjgVZMkpaX/4GfwFHgfPIUKeRa/aq92NSqwB5/KDYBmEhlnH/aPgaKI+Bk9DeJ68ukP4DoyELLnt/Rp4MJXMo2hYO7W3UQU14JD+Y9AhQgN5vxRCz/SfL74ePQ/pvC6A3aCIppPoWog/X/Rem7TTnUut5NBbR9ngr8KOsEPrBYZwdXFnI8wFncR0OoCLT5+rt+FqWATmkSedQEc8OC9hm+eLifs1OIU1qqgGhlLOoeBpYtyDXyE8FYJmcHMW2EAXwfEwDop2Cn8/cSIU3QkFW7TrENDORhXXgItHTzldM4QGcfi+CmK5LgnE8UXubdhjwXxDGXlX7fkWjIZGXaqBbSn35+AUERrMRjwbdBwdYjDSMY6Doo5huvNhDNRWRYfTXn5BzxP+2TJw39bV9YQ7FI+gJ4I914baGWaCZx95v88kSZ8895gG/rcKYZ3S9yDlzyXE/xKeTXneRFdcA56KngNh1Mi6fp10I6CI+jNinEeGtfixb5EX/yClcfdxAjwHWY5xKs+LOoZ5umD1199pea7hmQtUF6qNerQGXFM4fdwKThntGrO/jqGztXMM1zWLYTIMdi1DFo2qqgF3E36PktxqnkacZx5F5IjxFYjz8P5RcJRoHIJKqKNcI7imWARrwUWnC0nji8hvUg8Fp6cX4TY4HT7Q08aG5O2OEGPB3v4UvA5FNZyEftZdnJ/1EK1RUwMbXg30yojhcO1Zg992eu8hkecTDv32bBeQjSqsgW46hmW7e3CB6DehEyDM2zqCO4qX4UG4DhaA64MgHch1wlvg7qC/8sTU71R0RuX0sBSeNhDJbe0kGAfa7O7ENA/BQOWUZNnuZoLTeyDmu/reG7TcGTwGNqqVk8W9PD8SlI2zM/wG7oLfwsehvzqJD3hiakO77ngcjEtqOhHXgOlEB5oDg5HOeDH4zqH8edxvBz2hTbtkxTcp14opekpoD32iZet4ru4KzmiFdRIr2rOG/mgIiQN+zl6s0yVlXJwuvk+m7U/YfFTy+l5sl/92wzEcPi8Ej7CTWkeEI4g92IbaDKw4HWMlqDEwo+/uvT/uGHQOvzBbC77TD+EwsDf6+b/CZRBPRQQbpdVANxzjHIyxh8e90wabDTeBTqCDeLDkT/Q+BU45oVE9S3gSgpyTV4PrEWW+Dv/7GmjpWa46WaOCNVC1Y9i7j4C43DWEnRqcY9+ApG5NRCwjfCVMgz3gYTgXHB3S5FzeqB81EDdQPz424KSf4ZMeNMW6nMAd0M4p4nTh3qlmIewDTkeOFMbFqqsjOO257nLHZCdyy74KitYNSTujqh3j0wmz/c3lfAjTROJx2+D2xJ4MR4FrESvtNvgJ7Ag6XzyNEOz7lfbNXHWge+BS6I/zpKU9nny+C05nNupy+AG8AGoS/Aic2szD8n8FiyGpcUScDZ+Hj4JrLNOvhPPhOqhMVTqGc7/Df6ylBKzEd1qRprGCvSZlxZrOEUcH2B2UB2DPgJX5B9gNknJhKspeaG9MaisiToP9QRuC/NyMEIiuppkMjlxB9vShIcB1FOwBe7biXDvdAHH+rUd9zqMDJWUevwNHR6+VqErH8IW2SbyVC017W9Dh3LibsJHiXmpFPgJ/BHtRO5lm83YPCsZZ8Z9tUfAjlSSzk4yAi+Aa0LFLV9WO4QvGepXAu1HETtwfAmOjuHCrUy2CeEcSnnm1N66EYeDoYUMHWZkvgCPOaoidkWBPyLp4GO5rWbM/151b9zrH1mDHuboVV+qlasdIThHthtSBvrANfxLofL+AYyBoMTfO32vANYkL1r2gneKRKjxP2h3iO3m9k8y+AY6itovTz5/A6SnIEc1Ro52NIU1HrlU7huuBWPZqF1lBNsBgnMWG95wjuYo37DpEgpKNrWPNg7sh2GQD2DCzoN06g+iOyVHMUcMynS4dGXWWoyFoUrgp+1q1YzybeKHtCccHT1cRXtiKO5nrsTASYllxZfQYR5Fb4PcQnMZynN5skLIdgyLWk47y1Hox79/qJx53LlilY1jJLiBjTSawHTwB9hLnf1EOm+0WmjZaaDjTlaEyHG8gdsbrLz9fmV2DGbYH8qK3Jz40jPCR4MKq0fo1YNsMXz+q0L+1TXxkYMGqHeMOzHQujz3/dMJfhHZTBtEDUpy/GZQ9wgQj243ASVtC2ryrU+z4RCIXppWo3YuUWbBTwxVwFoSy7RWXgTuKReAC0biZ4OJ0IEouPncjk8lg+c7dyUUwUQPSm4lP2ZC7gmX4frtDOFjjNlNusT8JS2ATcNe0H8S6n8BAHS3OJ/c+NE5uwg4mOJ+8DoepYAUoe8e+LQwPRs7LjyYymEh4LqyFB+CnMNgKtpzlEMv3mQPPgYdtTpFDoYj2JtFN8Dxo21bg1jvIuPkhUPa16qnE93H1fyJYqcnFFVGpcjooYq953gBWZKzRBCbBWNARO6HbyCQ5OjklToFxUNQpSNo33XncPwF2gHi09J0WgT8/qERFKroMQxwSD4TZsBo8kUyTFW8vvxbubiWKHUoHiJ3A++VwBjhCxM8IdkQhT3v3KZBWjucSf4OVkLSZqD6Z11K4GUyf1DoifP9Tkg/KDG9cZuYF8rbnTgCHUZkIW4CV6HD8IHjI8xB4eKUDDQd7pGsG5bphFdxnIJLv9gk4Bpy7HZY9R7kRbgF3RDvBKFCOZG6nnzQQyV48Dca34rTBNPe2wpZjPifA7uDI9Apoj42t7TuCI4iftZF1lOlgvr6r4WXgWmgm7ApORdq7EP7cuudSjbrtGMm3HEJEsMkKCz0zma6/YfOUuNf2N48i6S3Dd9DuwZQV7DWfTtUBWRXX/wEzMz33D+YapwAAAABJRU5ErkJggg==;" vertex="1" parent="1">
          <mxGeometry x="282.02" y="190" width="44" height="24.96" as="geometry" />
        </mxCell>
        <mxCell id="Dnd6SaUCVXXJT1RzdSpy-39" value="" style="shape=image;verticalLabelPosition=bottom;labelBackgroundColor=default;verticalAlign=top;aspect=fixed;imageAspect=0;image=data:image/png,iVBORw0KGgoAAAANSUhEUgAAAHoAAABiCAYAAACf3McSAAAAAXNSR0IArs4c6QAAAIRlWElmTU0AKgAAAAgABQESAAMAAAABAAEAAAEaAAUAAAABAAAASgEbAAUAAAABAAAAUgEoAAMAAAABAAIAAIdpAAQAAAABAAAAWgAAAAAAAACQAAAAAQAAAJAAAAABAAOgAQADAAAAAQABAACgAgAEAAAAAQAAAHqgAwAEAAAAAQAAAGIAAAAA5LarnwAAAAlwSFlzAAAWJQAAFiUBSVIk8AAAG6VJREFUeAHtnQl4VOW5x1/ZA4SEQNghCfsiIiK4gOKGl2rRulWtWlu9ta1Ll0dbe7tYe9tqvS6ttlfaPuVaq1JxRRFR2WQVZDXIvmRhSSAJa1jCev+/78sJMcxkxlqSmTAvz2RmznznO+e8/3f/3nMwS9ApwYHTuMpjolPiak/RizxNVO8UvfZT7rITQJ8ikCeATgB9inDgFLnMhEYngK45DhxNxPwnndkNTvoRqjnA9v1mm3aZ5ewwW1tkVrzPrGlDs1ZNzQZ1NBvQ3u+cpG0J+mIcqBWgjxw1m7jKbNp6s0VbzHYI8F0HzFxSr+vRz4aWpzQ2u6KX2dV9zS7M+mIXeqrvXeMFk1xp79srzV7/1GzjTrN6OoNmjcwaKFpoLmDr6/tOAb9tr4DXZ7b3b2f2pZ5m3xhk1liiyT4Jip4DFExqVKOpv43LNhs9TwDWN+vTxuySbmYjunswARY6LJXeslsCscLslWVmK7bp+x4P/OU9zLLSjmu/3yPxNxIHHGtrqgT60GSzV6XJ+w+ZfVPaOaq398P1q4n9lxWY/W2B2XhZAWK2R//D7Jp+3pdHurjE754DNVoCHbvU7FlpcnOZ6esE1E1neJABb7f8czjqr4DsxgF+nwYSS0z+G3olqvPhOBZ6e42Y7p0C8s/zzYie+7U1+8Ul3i9vVMQ9K8dswiqdnBD/4TCz8zJOPNHztS1NkfjHG82yC81aNvFa3URnX501OHGmU3dLNUbz38eU+flmq5Q+QSPlY1OTzBrKR8/V9kc+FICbzOYJxJvHmf38fbMiBWJVKb2Z2b3nm/VsZUZatkQmfe/BqqMS38NxoEaAHvuJ2T755UEdzC5W8AVheveWmR1S4AV4rQXkwcNmzy02G/5Xs+cX+nEEZlCqtPiG/mYZLc02K1AbL/MdSiD86MTfqhw46UAfEMBLlSuTEn1FvhnAAhLWliTzO7iTTPi3zX58oVmyfDg59U8+kPY/5017sTQcE80L80/6hUYfkGAkKDoOnHSgC0t9xQuABnc80acCNgUUKmI/kI9+7w4VRzI1ToKxYqv89kT5cEXcQZmUeUjDSlRFSwAdHciMOulAbxcgZdI8NLeVzHOkYkemTPM/b1ZkfasCMPnyIglKgXLoo+UmnHkayb8fPHIc/Ogv99QdedKBBhS0E60FHDQ4Em0TuJRId8mHH9EOTjg0B8R3tJuvzJug6Dgg/Ti5RFrUWOaWCJlqV/tkASTwT6By0F5W4PbwVOXWAhkgh2X6qlkAKsUWArgWjaMTmhOOc4puOOlAd2ihSDlVwZMCspk5Zme096lVBb+lnWjpks1mD00x+0RBFoSJ/u45CuC0oNExxftltuOXAb2ztlEbT1B0HDjpQHMaQzN85D1etWsi756tPXAARtr1wVqz1z71mnpM2jo00+yXl/riCmYa043Zp4JGRE4qRhGFCD1B0XHgpPtoTuP2gapmKbBi5eqt5ceDqLYy4+TFVM7Q1PbNlR/fpoWMr3mQ2TcI3siZ/zDbF16wEghMSqVUjbEJCs+BGtHoLBVE0OrZeWYf5QssrUZ1kTkfnmXWVStRc3KlnTLDX+4d2hzjl/O1pPmm0qzD0uwhnbw7YAkzQdFxQEaRKtXJXyJYsMns+hc9kID8kEzzwA5m1KsD8xzqlKmMvSmz/ndVzD5VXn1VH82jChlCkqDoOFCjq1dUv/7+VW/CWV/+/Wy/CoXZdtIW5pyfUyn0haXeZLeS+afj5ILMMIMTm8NyoMY0OjiDV5eZ/Xa6T7dIkXqnm13a3Wso5hti0YJVLTpRNmz3/jtLvvy/R5j10nh6yhIUPQfQ6BoHmsh5bYnZ03N8ylWq/Jroe6/8MO+0CmGuSbn4TpsR5vomrUn3b6ttCb8cPcLlI2sFaI5NRJCn4IrAjAbBHGntGoFP2QyQyxRwoe0Xd/XRNb6cvDlB/xoHag3o4HQPCdA90ugCVcxuHaf0S+DfoLTpR8N9kYQFDGrc4bSYIA4f79a7i81K9ZletO6K8smz2yl9wyp8XtqjqhxRPoJICzKRPuvhZ7QzO6ujtzqfd87aHA/QMpS1RzQf0NKbpBSLVAlN3y6weqigElAokNF6CicvLDH741wJi4DB5IMptfV6mquDQKa3jN40zH+oeYJjVH6nQvfOKrMXFQAG9Xl+R6jc2rnO7ekvKy2UMFVecq08Ryx+FktihxrqbOg2yVNhpTpaXWT2m2lm/1DKRcUMgSEiJyen6kbKhkby+wPv+tZhgKqOqMUv0rEfnaEu1fk+AGyrAg61edwGwkJEQ9HnqhfM3pUwbC2tbsbY+k0siR2CkRRHHptp9swor+VVz46WJNanx6vChpZerUDtPwf76L2JTD13fVBF+9vHZuTuM3N9KvfV/mZnK8ULR/m7tB4+0S+80Nd2y5neVFObx9pwk8FHeWb/o3MjmHxytsy6jvO9oeFmjK3tuoTYIeHsFjMmSVumrvPnVbWU85rSM1qTGklEf3KRTPdVZmcqWANkiDSMBocnrjC742yfxv1jidniAv97qL8oO61JhXuUvskiXC+Tf9tZKuhonqD6Rgn3ClXu3rndCxUCyQLMStUE4qEBIqaAhuHUtg/pw30TVBfXIsgO+WLAxvTyTr8YPvr0dr5w4hPE4/Dhu1kpIxcn576yp4/gC7VfOFOLq8DMA96tAvjOIT6IQ/AC4viL5b9J+8be5AO+7K1m//uRjxeCcbH6HlNAA+DNA7Sg0cZr4n1vy4x/6Jc36VRZVuhNaLc0s28NNmsjH1qZhIHNyzf7znizn74vYKWhd5/vFz9oE55WbiUq78Nn+sQRKAK4dBVjAi0OxpEdPCCzPmKMf8d3E4XT3EjvGh00sU4x5aMBOlMgYpKve9HXtl9fbjZlva+G0fy/ptibVHJrAPi/Bb59+NrT/Zr2YzMUfJVqjHxr+xZeGND61dqPpVB6zSCEAiJKB2gaJIZ3NWNFbY3iAGKAr2hOgrun5I+5NQj3wJwQwrZOc5IeRgr0/B61+zemgIYVh6QdLD9OuF0mUinOG2I4ETTMJ6cmxcEMAdDktVq3nuqj4Q9z/Lo2TKfR4Y7BCr7kY8mDMcF0jnIDwHy93IYAaf2Iu2gjDSXvJmJfLpP8u1m+15y5Xl/hizjX9jV7cLj2FyEYyTpPOmHigWIO6IBpFEvuFFgXScvQYlauFgikFQI88NkASVl0oXwnGggRJf9mhDSu1fHcmfFN6vuGBQoqCEOwzk2uTPSMNaE8S3EEQcOMfyJzz9wIF2XY0V/RfkiZiNItPj1eKGaBDhgIYOTH53bxL1a9yHnXCvzebaTxt+nerLFa087zJpwCCTfQY64x7cHdHD3T/a233O1RlX45WenYQj8Hd3dS/RpzrW9tQsCGZSi6H3UcZMmJW2yhQ7Wp3EnVgLDq/LHwvVw+Y+FUwp8DjGRli6VOgiCKFkTJBGiY2jHXmf3qMpnYW8yu7Xec8VgCmg33STC4x/pyReChCP+OK1gpa0EfOi1K5Nz3nufjhWelyQAaUKnMNWVbzotyK4WeWKeY1+iAgUTCvFrLN2I2p2+Qhvby2k4P2T0CpTJhnhfJ7I6RplIipdmBwCoUYe5pQqQQM2m1qmAN1e0iUz1Kr1D0c1kA4gYKK98e4k19qHGxtC1ugA6YdpUAwZ8SBbOuva7E7C4xmxIlRHC0R772eWk8RReEA4EgZQtHUkxXCZu63mxWrs+L0VYie/rTAsJdcEyCwOby47iOC7J8zBCMidX3uAP6nM5+sYGK1LrtvhTJ4sZ58uHc2cFqFppMgEXghRbTthRpmZOnKNx/gZ7IIFNPweV7E+Srpemke9TSAZntLKHyYE3y+C/19LDGg4+OO6BhLZr2tIIjbqx/OdtXvNw91vqNdmHSJ3z5SAFx+yCzTtJKfHB1RNfK7Wd5YXlzuayBtHvuRqVjEpqAiNCJ1n863K+TV9b2YEysvscl0KRe3KP1Xxf7evb7a3x+jC9GM3k2ChrO58+7lIiZHyKrQacqNxxgHVghw8fzZCSeoUJMQMoWTxSXQMNgzCWmmhfABkTOS7NBkCcH26N9x6dT4qS8OkzAhmtciAdzXfma4xboyhdR+fO/K9WRrIQFufLx4uVzTACN9gUVp8/DuKDCxfrzekXfBGJUwDCz1Kwx8f+KZjMvkT3zUnAJqmVoOYFZPFKtAw0QtAGlqiCC32ORIBIBBCtGdKPQ9z0715cp2Z+mQuajwoU/Jf0hEIsWcNIzUjZWwWg2IGdnBQRTTSFlkAop3HXCnPEEeq0DHfg6NJBoObsgEsy+WDFxtdlLSqt4lihrxIDP46noOmEhg+aExUqHlm1VwKbImwfkVEdoMMEcOTI3GNBMAJjM7YDWO/drk5vPzfPLqQSECFU8UMycJk38VKbQUtaRHfAhOIh5htH0hVPLJj+mk+S8DFWopM0Av175NV0llECfX+SDq2GZflUrxJRuE/O+vsynamgqq1bUvDtpfoRnh4SH9XAWOcilifSJzqnBxwNJBzCZtZ8s7BQjh/3Vd5B8Z4ia9EaGZh+5M3d7AChly4cvO14V89fitZD0CK1+aamvRXMbLu1B4YjGQO4MoXbunj3ay5v7wOIE+9GDjhAhZIyjUtdYghGtawjmqcl32n0lq7FBqU390wG5AZ4GAbQWwnJCgShSEeNhsRRBvi7ggtKnH+V9KSkSrUb4aerRpFw8ByVYyQrGBu8sN07b4PNl+sFZGkWLq4LMeHJzVsgoyGzZbe7WoXhYrowZoGEi68+01wIIbUQ05rNGDOEzWbXCxLJsiblupyi4OsL0PnihXwhZLgGhABKKWIqkK4WSKQ0FkZ6kgDlnNY3+NASPgkqsU0wBTVr0zFXeFKKB14/1y4z4RgIsOkSKBQjaxIPp6PBAAGjuI5iCEBK6UXjnUZKsQ6OdGxRJU+WCGEtEzYsnLnyq+QmqaA8KbvTzI0P/xUwjELQW7dX+BIKxTrq82CJSl1dv0fLfmz4w+vU0s75t/OIEUe9mCQD5LO23BE08YZDI+uYz/Q3yaNgr2WZf03dWlwCFQIQ0KegXo0WJ/nAn5foRoOhH44kLuI5oiMCP5cxEK1E03AozhkV/wH58htqHpIVEzzQFABpBEMgFWkR0nr/bR9xM10wAtNG2pgKhonyp8ewbfA+030lApXM4LMDLDUOlraE/cvzgHEKPiK2tUcpvzZ80fnj0Nb5Rb8YG7195GnCRTDjFEqLuzjL1V/b2680ACfVo5denAbpCMLQdU9tR4yFWqbAOBHhE2TxEh4ZAImp6waOhEpl98m7cQjxQzJ8mUfPd58lEf1XR+K26S7KLom6BzB0btBJBAch8JuKmOsY7wjAjxwsGd2CwLwQ4LIawNEnUzp0dLEFukmVwlTA/LOxfxtJVSjEFFxJYirA7xMAPMQ90wCOCJSJyNJN+LdqASW+qI4Iv7pXiDg3u0KTAEYpoQCRoQzjQatqEqqM5eT76Z5XrXM0Z3A5U3T61/VvcAB0w6oJMX43C9NLWU7VkGnR+vprttZ62okyZbCL6cuseTFXxjoZfqHl5RzhwFWhs1bRJCuyeifbOSv87QA/o4LOEisli9IO79liojEXLH4Ck++PhKT6KphhyUZYvcqDtAES6RAGE+6/oz/7dSF84wcyGI/JzbtnhTknMNz7+LIHYUnOi6aRizEuXKFUcXAp5OhlBrBOVsbgDGqbCdBYenpzlc2t8dBABo5X4UK6MCtedZ3uTDXDVEfuz39w8f5ck/pp50WJI0zriOw/YoROFfL5yfFA+JObe4hZoOAko3FkJMNSziZpZbOie5n05TxY8p4s3216co+M/5poqGfk4y5UEfggBa9toL82JuAG2xQPIXHVcA10ZNphOvZlGfTSa6hbm9vMAXHk+PqO5CBM5N/OzcMHc8Uh1Buh4ZH5NnjNAx6mM1iSb6saxEkDXDRwjXkUC6IgsqhsDEkDXDRwjXkUC6IgsqhsDEkDXDRwjXkUC6IgsqhsDEkDXDRwjXkUC6IgsqhsDEkDXDRwjXsW/pZXoyJEj3ARg9fVf1KnaFvGgX3QAxzrKQ8d0rPr/yt15X/QE4nD/ajX6qBi6b/9+W75ytc2cM8+WLluuQr8YXIXW5+TZ7HkL7MCBA7rzUMs/VajqjSDMm5u/yTYXFFogJOxSVFyil1o8IlDp3r22Zt0G27ylwAMeYXy4n7mWvI2brHh75GNWnYNrOnTokO3ff0CLHiyBnEhlZQft+Zde0THUzVDLVC3Qubn5NuHdyfbWxA9s7vxFNu61t+yxJ/90wilv3VZkq9eut7KDh05g/PSZc+yRJ/74GQE5KmF4f8p0mzV3vt+nnFH/fHW8vTPpgxPmr7ph7959lqNzKyjc5ixJ1d+j/V64dZs98LNf2+O/f/YzAhfN/oCMsE2fNcf27StvXquyI1ZntcbsLd1b5Zea/xrSdLslOoGxdkOurVi1xr7+tRusW1aGOzu0G61tIDMN7ZcWn9Gvj/Xv19uSk5trjfY0x/zAhJfqIgu3bnXbGY+U15O5RROaNG6ssbIQ5QoB3uUfGeoIZjGe9wNlZdaooe8gqKfF4MaNGjlXEYwJ9on2fcknn1qPblmWm7dRgKy3Xt27OfcT7A+YDXU8NL+qi+C6imV9Cgq22p49peJHA2vQgJfnC3MkJTWxR375k2C6incsAJYMHkCNGjV0vKgYUOnDzp27LKlpkjXU3PABOqL10/paM+Ud4nMkCgk0Grdp8xadyH7Lyuhs7dqqpaKc+vVRa0UlmjR5mtOs5ObN7ZpRI3XCTcSYI5abu9GeGT3GCcVeSfz3f/yQ2+vG66+2IYPOdJ8dsFrsPSqw66uHIxAOfgSEV9582370/butZWqKlWzfYc+PfcW+PHKEpaa00EUe0zkW2IT3Jjvtbp2WZt+7+07r1L5d1AvRH328yEZedpGNf+d9m/PRAuuWmemARnAOHT5sk6fNtInvTXXCnJKcbHfdcYtx/S+MfVXr1Efd8feU7pEAHnQC06dXd+vcSf1FotF/e8FWrlnjPt/zrW9Yrx7d3GdM/pYthTZDrrCouNiOCqw26a3txuuullB5OB5/erQUK1NWdIG1atnSMrp0siFnD7TuXTOdEi1bsdJeeuVNKyoqlrA31vYMu+eub1pTCUQ4Cg20LgJzzMV27NBe2hheYgYPPNM+nDXX+dyygwclnY2c9GVldbGHf3a/TZk+0+bIf//0gfvcORCwoba8r9uQY/94+XW3oJ/SIsU25OXbgNP7uHH7JO2bNhc6v6/2fJnH/bY0e4UNPWewAxowFmcvsxEXX2inf7e3/f3FcfbI43+0Xzz4A2vfLnIjV1FRieXLd/bq0d3OHVJs8+YvdALKwYkVFi7JdoDcf99d1k7zLV+5RvGK18BRV14uJpcIyHWWp1hj6LmDrW2b1taihRrUyumGa660nTuH2WN/eNYOlO/HTygPx/144RK7SeAePnLY1qzdYC+/Nt5uu/l6tzcupaRkh/3w3ruc1Rj3+lvWulWaAxq3NXfeQuvft7ddd9UVLoZaJ8sbiUICjfncf6BM5vKYNWnS2JmGVbqoSZOnu883XDPK2rf1zOzcqYOlp7dygVWgkYDIC0lt3qyZNLWepbdu5bZxQod4hK+IuVu1THHm7ph6NKsN2BXMa4Tbjz/1ZSKHDBpog88a4MzrTbIU997/M1mCZQL60opx4T7MVHzQrFlTB9DQcwaJ8Yv16KpjTmNg9NvvfmA/uOdb1l2mHTpHGhVQakqKJcntbN+x03bt3G1dM7t8BmTGAQymO3Bxwb6bt2w1gskrR15mvWUBcA1t0tPt0SefcVqNGddZ2GWXXGAdZZ3SUlPdXJhtXCZuhPcUCRXnzwveRqKQQMNOfCH+9pACLExs06QkS2uZau++P9Uuv3i4AEp12ssBnAmu5kjH4Tk+CB/VRWZu1BWXC/Am7lhbxISqEfrxPfhUyYProCkpyRV+q4VMK4zdtXvPZ3cJ8Q1LtXhptjv+JkXuaBkWpUBWrEO7tk4Qd+3a7SxTiN3dJncmXLiDJdyoE7fvlqnH8mGa4TEC26RJI+evEYC0RqlOoOG3IzGvvvwzSkSc0FzA9urW1cZPfM/eeW+KZXXpLKG4sMIdnnhEvyWkTUZ6kBICgK3yA5iXLp07yj9e5rQQiavE8nBzV2wPNxZQ3UuaBFUG2Wu3P07I/cWAg04I/a8ETof1VBk0IhLtkCZyXYVbi+ypZ/5ifxnzonxdA1sgc1pcUuKYSlAVSkAr5tZhOXLIc6sYdOIHeApgpKK4H7SE68YCEswFFOrYDmyNu3j4UPvTE7+1hx78obOmz/x5jHMhwb6h3o/PXOlXgAZYbH/2ilW2U9LdrGnTCu1hKBEvxMnyOoZJEaMPS1uIQINIMEmSiRvA3HAxaHI0lNy8mZhxUFF6mdKTUtstTSXIC3JWzOx6nd+5gwc5Bq1dn+Mi+kwFLpEIH1mvXn176tGHKpi7YtVa++tzL7qgKkXBXu9ePW2TgqZuCoACQhOD6+ZasAxFysE5x8NHxB9JZxAZs4//LIejDMHxSICmt27tTP48uQr8OvNs1nE6tG9rLZS1hKZA4BW4KnhjLgQat/nNW2+0BYuW2s7duy0j9M5ua0igkRwuKENgE32Pn/CeJcm84ruQyJbyG1D28pW2bVuxrV2XI7+z32bNmW8AlKlIPYgyBw443V4bP9F+/bvfO5990QXnW9/ePdz8nKzz6+XiS/TNRUA9u3fV+FY2c/Y8F0UDNCae4+PzT5MwFisSf/wPo62rAr+pM2bL712qNK+v27+6P4vlx0/v27MCZMYmJzdTmrTHFUG6iIG33XStjXtjgn0sJvJ9ma516HmD7UsjLnFTN5AFQBPz8jbZZAWcpJ9ZGV0EXroLZN+YMElu77BcyW6bMGmKbVPwBrAEtwRty1estjT5+lJlJIWqB3zjlhsrTpm0KRBo4hIiayJyFIm07sNZH9kWFZvgzycqYjVXxpPZuXoBdyzWCYe0QGinr0LluFA+VWnO2QMHWOPGXpt3KMfbkJPvtFjcd1rtAqy0lk7agjMn+NpcUCANLXP7ZuikKHg0FNAEHEg+gFMAIT+GWRBR7vwFi1x+TlBC8EPg01TWBQYSnpUdLLNln660nj27WY+uWc6UhjJ7bsLyPznKm0nRSNsCIqqnZoCQEkjBkvxNmx0IxSXbLUvH7dOrhxfM8p0QPrITLB7gEXwyJ9eZm7/R2XUEklpBaek+a906zdKZW//Yj/SwviwL23v37B6cilFpZC6UBgtInp+sGIRxpL5E+tuUGWyXoLdXTHHmGf0+Y0kqJir/IN6Ku6JwQFfdoTa+w3B/lpHgq42z+2LHDPSrHIYvNlk1e4NzSNNdzT41/tPJZkKNX1ClA9bktYWMuiudS+JjHeFAAug6AmSky0gAHYlDdeT3BNB1BMhIl5EAOhKH6sjv/w9SyIkJJDN03QAAAABJRU5ErkJggg==;" vertex="1" parent="1">
          <mxGeometry x="282.02" y="222" width="59.76" height="48" as="geometry" />
        </mxCell>
        <mxCell id="Dnd6SaUCVXXJT1RzdSpy-40" value="" style="shape=image;verticalLabelPosition=bottom;labelBackgroundColor=default;verticalAlign=top;aspect=fixed;imageAspect=0;image=data:image/png,iVBORw0KGgoAAAANSUhEUgAAAHoAAAB4CAYAAAA9kebvAAAAAXNSR0IArs4c6QAAAIRlWElmTU0AKgAAAAgABQESAAMAAAABAAEAAAEaAAUAAAABAAAASgEbAAUAAAABAAAAUgEoAAMAAAABAAIAAIdpAAQAAAABAAAAWgAAAAAAAACQAAAAAQAAAJAAAAABAAOgAQADAAAAAQABAACgAgAEAAAAAQAAAHqgAwAEAAAAAQAAAHgAAAAAzuYkvAAAAAlwSFlzAAAWJQAAFiUBSVIk8AAAEapJREFUeAHtnQ2YFdV5x+fM7HJ3UcAVBCQooGu0fkQMVgyldBHCh3ybblOlIOpTUh+f1jxpTdPEJ0WamD6lxhBrRdsmKIKB1aLBr1BYECONieB3JHzIQlW+BARRYPfemf7+u3fCcLksu+xddnY8r8/POXPmzJlz3ve87zkzd4Z1HCtWA1YDVgNWA1YDVgNWA1YDVgNWA1YDVgNWA1YDVgNWA1YDVgNWA1YDVgNWA1YDVgNWA1YDVgNWA1YDVgNWA0nQwM3jd3VynMAkoS9x64Mbpwb5bnDzlPHbBkwevbtznNqVhLbEyntumrT31Yx/qKNxzRzjO8ucsoMb5s7tdygJim7rPsTK0Dde9+FaP1N7heOYWseYXxLG52U8d1Wd231LVZXJtLWy2vP1YxW6pcggCMDvEPj+NUzXs7x0MLM0s3P8TaO3ndWeFd3WbY+dR2fSh/HoUAyOTRB3zLvGuM84vnmqJKh7+aElvT4NS9ht0zQQO48+utn13k0b/fIgSP9VYNKzDnneHdMmbL+somJF0dFl7V5jGoiXofHdfNIQzoMUZh9AWL+dYrPPKbvka9Ou3dkzX3mbd6wG4mXoY9t3dE7D/F0WOP6fBH7m28zkc6aM33Fd5ZdWlx5d0O7laiBehm5ia/Bw1wn8Xn6QGe0Y/57SHuX/NnX8zsjcnttNu9++57kg6EA474vRb/Dc1CWY82pr0vwaaKIP5T85LrmB45Rg8F5qz7RJu0fdOHHP9W3VtpEjny8fNuz5u9rq+se7biIMHe1cJl3LAs1fwNz93LSJO/tHj7VmevDgp8uGDXt6Zm1teq3jeENb81onU3f7Dt15emyKPJybAyYYxaO0QVMm7pjjmI/vmbe4fGee4i3OGjDgweLOnXtP4j7/LtYOF3Eb2OI6W6OCxBk6VFIQYObAdOaByx3G6XQt3n2Pb2qXHCz63Ectf5wamIqKlSnHOXCl65pvYOBRvp9m5a8RFk9JrKEb1I1zB4GBSwPj/rsbFF1XUrvz/lsq9/1mv9N5X/MNHpgRI5Z29P1nz/N9MzkIvKkMqLOpP8e6x3kgkFPqVO4m3NChKmXwTKlv3HHE9KvStQcXnu4cWji9cs/bvap+/PEMZ8YJLcOTuBJjnu9TV+ePpNabWQdcysMbL7xC3LfxMvQJ1d0ydWIYKvB7+I7714FrhmbSdfM2jr11aWXpLeurqs45mK/2yspF3o4dXXq57qHBnD+Z8HwNlB7rxdGz47fGjVWL+B36IIuaqMZaJc2TNcK5fxnG+r4pCmalaosn3zBmy3kzZsw46uJaSe/effoIz8vcSUS4j8aM4bwTGLlVmtziSo/qWItra2EFKH4BofXX/GRVyyKqhbU1frq8m8eoxSzYvowS/tUrSs3c9PqtE6eM2H6azhw69JmBqZR3h+/7s4kC0ynftX6B13i1sT0aK0P3u7zrA8Z1/9YY7z7juOsavLu1DZ52eJTahatMNoF3r+mU+rysxUCbyUr67wnTF2hQtHeJ1Rw9Y4Z+e3Z+OW3i3reC4PAq43rjfScz1nHcHq3tTRjbKfZS5+K93bNGvZIIEytHaMlgi2VH5j5Z9tGnqR7PBJn0TMe43Ac7z+Ddn7b6/M1tkm/Cm2E/956pJXpu83Nj5dFRbWTvcbdOq9hclSnr9IrJpEcErjuVd04uJ5RyWxNnO8Qv1MfW0KHR567UW6DBusmj97zvFh9+yXG9Ste417NI6k1+607gYSMSsI1l6D5WryaY/1zX/ed/8ey1pcXFd7uON9V1ixaxaDvAsunY4m2eEz+1xq9FjRhJi7WHqs7c90nxihczh/dN5+HmLRj8dQyuZXIjZ9pDsQ/d+UxUVfVnesd7PyyqrHz72dLD3W7F2H+Zr6zNa9BAuzR01HhVVZcQvp1Z11f87qfKZ+GMb7e5d7d5A6I6Urpdhe7cxkf3H1t54Yf1HcpkfsO98KvciunZ9Slemps6ppIdvIq+KNq2OKQTY+hQmZ3TBzbWZupG8GTrHwjn72BwLdha1eCEEB7Zuh9g5IeNCYYsWzZSz8VjJe0+dOdqc39xxytTXqoXz9j+O3Dqqvkd+kbf8ccS0vtQtqSwTm4yGHkXA+p/eYj2X76fWr5y5VBuB+MniTO07xZf4DnB/WmTedRzvMfcoHY2s/bSwHjTeKQ5iIctn8PYLey3CYgYe5n53iBaVPEbzBPV1RN2xM+8R1rUwg4fqSg+Kb1C5HV0gsz0jHGGE1LnG6foKSdt7nC9umGB4/15YPyrMPqZFGzmoqm+OB7rvoOBl8CCFStGrW/tqaEQuk2goTGf/tPrPUHmPLz5m7ywN9Qt9n7GD5PVbtpfox9LKDGGJ9tXUK6jzmhc9LGfo1u6zYTp/2H7uO+Xro5rmM7Xl0Qa+khH6w2eIswO9v0ML/i7w5lUH/fd9IKiwFtp/KJJxkmPIw7zU2SQ97UgztUtGyt6VwZ+0pgOy5cvH777yDXaRyrhhm4wQr13O04ZNhvvGqe/67vVBOGFruPelzbOSvyV13XNJH4p6+oHh7PhnBzj1lLDi67rLmRbPWTIrzfzFkr8frFowlhLnKEJrYrceaTeu7mdNH05Phmj/qFv/KVFbrAgXWfu5oWHZYTym4zjKUQj7jrux5/Am6tLSpx3nnvu2sPV1Q1H2uP/E2foExkhOwpSrL4v48WxPizOBuG5ix2/bqFTVPJ6SQeFaW68g8zf1NZm1r/00oSPT1Rnezj+mTP0EaPI5EFnJuCBeG658byRGf+TB/em9zxFmWDFirFrjpRt/6nPsKEbjMf8TTgPzgr8oKLIS/XvmOn2AUdeav+mPboHiXsESsht5r1xqJDAY1HWlVeJTg9zkrRNnKGTZJxC9sUaupDajHFd1tAxNk4hm5Y4Q9ffRxdSQwmpK3GGTohdCt4Na+gclbp8dZeTlYjdxBnaBL6eTyMneZfVcHLi/p84Q3Mf/CbfUfErk8u7W83vnh/wM0cCpfmaiLkS5i3u+ZbxM7fzssFM3iuoxth8c533F8iY96SwzUucoaWeR5b02lryXtf/cF3/m64xd/PWwFoMrtd/Cqu9dlRbYp91P7TG1DlrnDX82YYNXnGtvtmaxDPtr0Cv1v4EN472T6RHRxWtb7YOpnqu8l3zA94YuI1/PuNxvPvA8ebvpK66E+vRUWNnP8HdVlkZPNvJ3/lG2i9a5pjMzbxc0J/fpTtEyyY1nXiPjhoOg9f+5Inum0v8unmO8aZwCzYLD34fg//+3tmuuqMaa9dpE+hPNTyyuNsGb9/B76WNGWtM0QIMfpjXi9p1zxpr/GcidOdXgAnmrnT0VcVrLNCmTB23fT5fot3LC4OfYZ3k11TicqcPCIq/PnHzGYnrmO2Q1YDVgNWA1UB71EChHgJ3o/N68V33pHya6mR/QSLVIMrTX7IJy/C9U/2+/jqdzrF/sAwltKYUytC30Ei9+N4LLgL9awP8w+X130zImBfCxaD7ly7QB4aAymoQ8Amq0xP0z1TwlWO98fUXZ/kzw04dZL+eIGXlpDRQqKf8i7n6KyCj6cuGzSCD6pvhcpDHXgB6MMGnLvXbSrYPwAYYDSqzEa6E34IGwXbYAi+AlRZooFBPCORx8r6QCtKD4Q+yyNjy1nNBns0/Blfv3TVs98BX4SOQ8ceABsQfgUK86rHSQg0U6uHAu7RjEegeVB6pUP0e7AKFaUUO/nUAZzdoUHwCp8E4kPcqGuic1XAY3gEZuQzWg5UWaqBQofvztGMbFINCtuZZGUxztdL7QB6r0C5vTWfTmpdlfEWW7vAmKE9h/B9hDmwClbGSQA1oQGjwFGogNqYiLUi1YDwHNCgTKYVSZDe0o1DbFNGtl+bl3Fuwppxb6DIDqXAqXAoaXIpC1TADEiWFmqPvRCsTQPNvY6IQ/RqovObmthStHb4FI0BGDhemWm8kTgplaM2rfZuoHd1vd2hi2dYsNojKvwCKRDLufNBA1UBMnBTK0C+jGS3EfNB0IMN/CeQlNSDlaQGmYxtBi7O2lh40QCt/ycPwQ9AtoJVmaOBaymoO1gr7J6BBkCvKi4bM3OP59jVQ8kluvvZTIG8NQ3LuebeTsR3Uxu9AaHSSR0lYVym5udc5qmBk50Tl1He1L1856aRQDhhpUuGT6sRECA39MOnTs5fRffF0WAU7YT9shblwPkikgGmwHB6Eq+Ev4D9hDMhAy+BeGACq70XoArfBC7AFPgI9pfs/eAL09E1tGwKPwHrQ4kuG3gQrsugaErXnx6B7etWlKKR1xT2gxZsHMogGyVJQRNADoq+BbhMl34dfwJ1wBXwb1PcdoAXpfBgEX4b74XVQvo7PBBdiK1JmPkOfQf5sUHhUiJcR1KlQ2fKu3qAR/V2QAaTcdVAHNTAVpBDNpbtABq0F1dEHZECldZ7qloF0XHVtgD+F8SCFqpzaoWNKq12HQIaWkbeCjqVBbdVxpZW3GoaA1hqPgtqngasBo7apTFf4eTat5wmqQ/kivK7Kqo26bjQ/LKdrFEROVYhQxzRyr4HT4F14Ej4AdUbK1Zx5K9wFoXQm0QmkZBlVEUAiRXTLbpWn+iRPg8qqXilW5w6G4dAPdK15oAExGhQt1J5fwSsgxb8JP4BzQAZcC6vAgMoPzG7V5nUgUXt0Ly40yGogqtsU+xokG2EXaDBfBKWgaLcXwmN9SevaihjSl64dS8nn0ZorbwN1UkqRIvUkzIULQcZRvjql87+b3ZeiN8FsuApkuAdASvNBofRf4GJQXfmkgswPQfU/BrquRFPAdlD+d+A0CCXM30bGNWEm25GwAXSOBuoXQB6tqKH2vA2zQBFBsgRUVv3TtXV+NxgBb4CO1cBMuALUv29B6P2KXgWR6KgrSIXHqUTeIGMr1El6wwRQyNSolpIk8uCoqMOLYAaorDwhFHnfj+AROBRmsi2DM0EeIekKn2a3GgxCojaFonSYrzbKyyQ6TwMtFA2AGigHlcltzz+TJ4NqIEZF4VmR5BfZzE/YKpxLXgMNlvXaQXaA+iYJ+9Cw14L/nypD5zbxejK+ms2UksN2RJWvwzKuOq5trkiZ74G8PhR52BQ4F8I6Q8OHZU60lZdFJdomHQuNEC2jtAZrTXbL5hgJB1LuAdVfMIPmVh7uh8oI90/VdiMX0jwaVZo6vAmiimX3mH3lhaKyYXn1RR41OntQXqSQqqkg6nnZw03e5Bq+sROPZ8zGzjklx06loTXiQ6X9nPRiUGgMRcfkuSerrLM5NzSyFkn/BPL28+Hr0AOaImpH2E61JaojpUuzlUT7k82K7ybaidZspRSn+VZzaRfQgkQLsxpQ2NJCqBy2QuihJJsl4byqkxTufwbq30iQUZoqmhJ2gupTW0dBWNdA0heCZA+oT+1CTpWhpYzfwhaQZ42DfiCFqg1nQE/4BrwAJyPbOOkgyOMug0dBdV8AGljNkZ9SWBFBi8O/g0kg6QvdQYupNaDpp9BiCl2h6mtNQ4cN1lYhcC3MBa2C+8EQ0Byt4/JqbS+Hldk0m7zerXIhKhOK5uQHQINFq+6vgDz5AMjDe4NE50rCbW5a+3PgPLgB+kIfUFRSP/bBQngSNLDytYXsegmvkVsmdz8sr214Tm46WqbZ6WilzT75OCdIGX1BIU/1/w5eAM2XCocXwyC4CEpA4bwG3oRX4EMYAFeBPOdVeA0kGhB/DKpDRnwetmbTbOojQyXbq0HXewN0vq6r6+kW5kXQ2qA/fBE6wsuga0RX8Gexr3aorRokut778CvQoFU7ZfzhUJ5NP8VWkUX5krHQF9SPFVADEq0nBkNPeBdWw16QqG86loK3QOe1WGSI1hAZO4wWUlA6cpHwmI7r+lKKPFtltJXIoELHdH6YT/L3x5TWOToeFa2yhUTHha6j+sK6VG94DZL19UevoTyJyqiuaFs0GKJl1Q/1SaJjqjuU8FjYx7Ctak/Y/2ibdF6oH6V1TO23YjVgNWA1YDVgNWA1YDVgNWA1YDVgNWA1YDVgNWA1YDVgNWA1YDVgNWA1YDVgNWA1YDVgNWA1YDVgNRBLDfw/VKEov4N8SGcAAAAASUVORK5CYII=;" vertex="1" parent="1">
          <mxGeometry x="341.78" y="206.40000000000003" width="52" height="51.15" as="geometry" />
        </mxCell>
        <mxCell id="Dnd6SaUCVXXJT1RzdSpy-41" value="" style="shape=image;verticalLabelPosition=bottom;labelBackgroundColor=default;verticalAlign=top;aspect=fixed;imageAspect=0;image=data:image/png,iVBORw0KGgoAAAANSUhEUgAAAEQAAABOCAYAAACZiLDUAAAAAXNSR0IArs4c6QAAAIRlWElmTU0AKgAAAAgABQESAAMAAAABAAEAAAEaAAUAAAABAAAASgEbAAUAAAABAAAAUgEoAAMAAAABAAIAAIdpAAQAAAABAAAAWgAAAAAAAACQAAAAAQAAAJAAAAABAAOgAQADAAAAAQABAACgAgAEAAAAAQAAAESgAwAEAAAAAQAAAE4AAAAAmFE6iwAAAAlwSFlzAAAWJQAAFiUBSVIk8AAAE7xJREFUeAHtXAtwVNd5Pv+5+5BWEnqsxMsywVgYpIUApsQpaVwyTWNav+o0JnE9fmBeLnacmtavBjdyMpk29rgZE9sUA8YwcZzB1ODEcTxtoMbp1DY2jwCLABPM06DH6oEkpN177zn9zt29u3dX+5QAZSacmdU9z///z3/+8///+c+9IvYHkTZq/oaum5ikB6SQL7WPOb2FvdtoDAdpruFAmoqzenLXdMn4E4zJ60jjU6taRx9oZ+xAar9LUeaXAkk2HHV1K7xSo+vAjJn4oascTcJzd7YxF7Nt2BnS5S2rZIJ9gTGKSquUjEjcdjEnnQ32sDNEmvoIRnwSAyPshGxd5YSN5Xb5Uj6HnSHc5S0CM0ZHt0t06sRdXLrax19KRti4hp0hQjc8YMYImyD7yTVtpJ2/lM8CrYwk/7QNY00Sbp8Wafls55I+EJuQ9UFQDoWqAQLocIKRquQeBLiUIZJY3U88o3zFY3XG9PZJ5WfY6/PMlE5JxYIkpKZh7XSm65u0sHk43Od6s2LKuj9XViIJYoEFEtwgJiPJwzjjphlOriuwFNjoqQysnV3l9a03DL6PG/zjquD5ybmgFMQQLBr2Oh+L1XRj339VM80tnW7fXTWBF0pzIcrUbipmEO+ClUl0gVaVLuNsoqLQXCOvYt03a4K9SIK+yaQoAfxRTOqgPXsqjCFkdIMRIF4lJeKyHEbyWVN4FzCsiFVd4B+PW/YKKU47h0lm6L5zkaPOukLy/vraW5jJnpZEn2ew6SpJafZpXLbmglMQQ8ywOAaAR5JWk4kRWNuH/eLcN3Mhc7ZXztxY7p+4ut7UWQPG9zthkmSnjNLKUdWT1pY5x+ST9wfWwKdhzxHJCZCM2BAlfbQXEp5T6hxymg+627Xq+rnLINDfVdKRGEFQVLSDcfkPoeDCHYn6eI5GBNZUupiYBXs6G7I1DcSOA3IfJAw6SFbh57A0vI+IfYp+PVLScU5ihySxvbirZ/+pU8uUIk+bSme8XOPtl78ELOX5JvoQ1l3SY8XdnT/JNl4NKJAhjFVPenGS5N4NwICVcCBlYIqkF7C6y9sOLei2qalqeClAjB5kkt+M/jX4KanUCsAtQKUgqemS5O+ZEK8abt+qrn13dtg47Ke/Yd0PmTQeQdlhoTBFYkGS/O62pvt22X0zPQtmiAJUFVi3jIS5HJOrTAZMx6B0F4V46Xt+2TMD1qMR1MyNOqFZrV0ymIwlNTnFSwFhhMLUjH9vqa88pkxp5dRVU7mhbQJN1yQNJ9KJ6PHSXv7isWPzsTWzp0ExpCawsVSKnpckE9Ab1orHsChwcgNOrh7O6FbJzOLM6NU2kxB/CjOSSrpUWa0mZkweZItQVoo6g55TuOg0JrsWwvMaM9zzGTOXotJh8QjuB73FuXy0NbgQui93GhRDFFjohDq3oJ8ii/1qKy/VYoN0bie7XvbAxJ5A6QwYcAZ64ihcp1YpxXlNyl4TpgG88MELgU4xx4IpYwFurBCyluMJiIpJClgsWbhMnAY/JilGQh+NR7tNAIii3YzzR0PB+7bFBuR82INzdkzXoaJhzQyXpBVQsl9yEJLcFbPGHM7g73uMazsw511S9H8SOtzczFj2IJBy+s4VeWuFqU3G5K6F7ZwNUzobCKCAsy0CsBFrYkIuDx1EsIk1Ojsn05dSGhJDFKyqyav/EWL7NGadItrYNMTgY8ifoeFNabr3hKYVn83lOqfQFy8G4Oe0iN7PmWROJ0l3AN8taMT2ckqM6q6mREc0aT7YMnriVvbuVwqKvA2JIf76tbcB/3MwoVcqUhIJtoZoK2fi+30R7WDPkROhQlYpASdN7vaNWvXe7lEm8TnExXcxgYaEvxHrT1oLI+OmUHDxR2kgZK0aNEMqA/9xM5fun4MYXwIDwBE7D2F5ioRcCfPbg7bUJUx0H1KukY8I1E5wS/490PB3yRKqFoTvhsN7Z+jwkoOFoBkUQ6rqV3+RSHuNSXN8Apkigp2Ugpa1HyzDvs1+qkyMG1pu1Oc3lJi6/hj02HfAFIdzp5SMtpWZ4fmhw3+fdDTIhlEZ9YIS3OlJjNOPsSrTMDDKUCK1T/dIri1rb/r124w9BXNxaVJv82Z9ZOlt74c9THm3DSBJufuKLqXOr2DcXeaq/voHkbYtMPG5U2EMmbnK7TO0W6BEp0BlnoUHelL9wKD9kJhnQ8H5YMaBi7RFMk+ms/NNo2+Od0dxy9UmJ14K2k7FaDuLrcNdUhw93zbjJGPv5qStsC0DhlSF3aOJmQ7nB36yYfSdPXj/cSxKToSZpzX0FmWmO7j3KuaB1xJLEhEod3+4rfn3zW0XTLHbwC8/L3PgMgcucyCFA5byqZy5qhzBwXgMwVdU3Ne8967zSUoSCnVEv1YmdTPuoncfrkRMwulvNPLKCWPKil3MHQ+IpCBUNlEIN7lqOntOve8M9iAOWldXWsR7rVCkGu8lV9gZW0kB5SxSVd2KMp17Pd0RTw/L45jvHDx25ipfd29RsdvQdOsagvq8C70uPRpHIE6G0H9d+6c/fufU+yxuu0dF3FfijH4/c/HyKDDOSmb0LD+7m8XjlJUzx5TxsOfuiBBTvPHDl215oqfQSIwSvbPidWR/YxNWE6jxCRm+J8L4FFXnhcUi4h8g+4oqZ0tz5vyPtq/5yJ1e0qYhRrtf1q3Y0H7koXPZxthto65eOTLc7/mGR9MDTDObYvcy4m/g1f1ZtBMO31K090ZK1JE5zhBd10Zxbt6DfiOj/Yj16epQl2CI1hMpkS7PTZCsr1nnrmjHNH8ROpLGYTTEGdLnKS72huWNGHeDPQBxFXUseMUuZ3oeO7bdRb7aufBUb8FBIcI9JVfVBNY90xqcfzbTGFXvv2blFYbmfghO5kJCyAGhuXcs8ccamohKq8g0YMLjleZAfwKHE3TA4TXaz+qbio17EOVD9AIwnP2iZVUX+ynpwY120nDsEZkCH5HD5D5JA5ILCFap4Yp+DzIPCmH+W/mUVVcn90qUKgMbxkmX90nULMGYqujcpYhJSKLjBc8RnYG3eDjuKSkEWHoEyPI+XxROkxVpm+cyXSOqGl55sv3AvUEnDP+0lVcw3XgW2uyvQYySwni6yAxRW4P9qp1OPFAXrorxpI4ZRjMdm1WhX+RXYhC+FLeCggow5ds2U8bPaSzqbvG8Aan4EzAjbiBsjqRlCEL/3NMpvNFryjqrbxf7DPsBcxq4mWxY6Z8cGzL4Pf0Iez2GXEUEjkt2LP8oVnrAedVyRBS/QsxYU9OwZmnE9HR2t+jvYQ61mSYygCHWXiL6lun1fKmTvAZjMb0kaQT2JmKdzpT7+pULObm6Ye1iHAAtCcFexx1S7am2IPulExLxIrAaln4QyeWqUsuUYaksffVFxCbWubRIVTZmKDdjAEMseqQcB+jjlLwnp9Ryrntu6GHGv4yT55dtK0zMhTqxDXCTGII4qxVvT8Y3pJIiNrpNMQ8UEK5w0q/cAWuCjm2DrZEZpRqc+svcO3NLqsVRlkyZs4ucCGEJog9tngxkBvsE7R8n2qP0pGcI+IT4Rsovfdc8pqUDkLp+6I3+sC9I3eVe7ESf4DLrUeCGNCppiCV10UX0ERblCdTsQGzHbrGeA7cMOkAzvwMY/wWnAnIMsEjwQibAd1wMTsc8VVWbS4cAGae3iGs/hAcT46gJXlPsDQIFI5qGokMMo52YZ6xjZqCUsUhr06n/ra4f8whu+34AQ/GXmJgbrPmt4HR/xGO0eU339Um7CKQMYAgYAAaK30E7rD+1vzxOeNWUnuuA5C7sRgdDcukQtTtYa2jfvTvtiWd6ptMhUL/QiINJih+KP42irYntQthzERZhNWgJt+k9d7AjD4XLJj/vZ1r8+BZHMoAhqgUurOwtMrDPHQc3cx2IS0heFEIuCUEvFXrGwTDQX6kojKdgUF3TJeCnlRBhzqppWP2v6lATH6juPAV7t6NpEcKV+SUcED9jdSu+rhiRa0Rahijs+S1NLgkBN4jdUH3e/UYz600wBLvSX6+vCTWxzTaB6SQEztMUSMmU5HWAbuOWTs7CEIfOsBHkwQzVNS1DQIgNZuhPy4SLccmALA92a3JdhpJlGZ1tislpJuzsMoS8xRDsOC3qBGBLRKUTq5nCFFy4QEFCeFSgXm2dxILH8YsIPBtc/Fvtqdsr3gsZJYN4186ZVKAkrOCrtuxjcVJWRKQkBJYTFoPAxzR9nEOAUIIG6/UKVW+RE32dGvx+h3HxqaqGi6BC1rtwENA7VEUsaZpsxXlyI5BCqYJgqO0i7uqOa130M4pLz7si8r9hnXCRnWVS0gQK2m/DVs+i87JfaPI3UF8tzvoBeTVWsqQrSr9/jHkuzLaBC3FysHp7B4x1VBRpPWEpi3Zgvq8CJ1bfOnH+zmILXm2oKiK8WRhLUkZ6W4NLe0F0YlZQjKO73BWiKBExa9lfjtB+QjFCq/PyqSPLvdJtRb1seKlPwCd3kesc3nN1+Or5jVWwpCwHffPUochOVDF9XbnHMOJKLUx6pGvfUuea2n1jz0ZePenKEu5OXMVGXK6cSjcFyOXiZQ5c5sBlDlzmQDYOWFYmW4fUNn/DyzjTyL+CBSqJtqk4GkXwKsT/te2/51eoS1im1MEXsRwINHqaZe18+DF1DjQgjZ02mf6fHcElJxz1GbPpPdWM3ZUh1k8wcjcgwj0XjLHGW0bclDfhawnfuGJj886dS/A65KVL6jXRM+a5ZXBgF+PNBEdUzwo7PO/RikP5UlOwhCjAVYGXG+ChbMJ1RX0CkfJZqA1O2ePtNOKnLDjPvpNKdLkIOfgfFTws/wVXFio0EZNaIEIgFdKyRfQbCzuOLok7bLlIGBRDFFD/Neu/wFzibbi//iQkxJV0PKuTfOZccAEcI4dzl9RxqIWN2shJXQFD4z/CJOamnL9wGnFt55rxrZb9i+A1558GzRCFomryS7M5aesQI5mI1UnAss4UtAsvqDeSJne3u0Uzu1DbSH0YxDrwKav7a9iyy0HG51LPXXhp6FMS+g2tTfd/kj8roj0Tkyh0ZKy/v371A5CC58CQlMOUBRqhFXoL1x+bJJc73ZrrePPeu3EkKDypj5QMwzMBk50FyHcAwl+kMiIK1TrjHcVR658q9d63j+R57LcpGhJDqqesmyNNsQKETbUBDnxaKHBRSbtgjz7CyXGXKcQ+6dVOde6Zr/Z2RqukzlgeU17FNNckHCxn4JX42ZjuTAQAcGZxnsbtaThB8WNYjCdDI0/8vJDP5m1IA+eRo6a6ftW1krnXYz64rU8iTlEFuE7iFDALlYrsNCN7ApqlHeGEM4gqhEC4Ykw31A10snqfnZUBIj4JE1ciGDAKW3Is6moAA1bNCdeSBhzIaBus3ng8J6PdnpOSziYS4vG2g4vfwvi8kj04r852J7VyePF/PZDf6CAAzZiOlM/jII1PMtg9aIPCdU7AhhB7KksgGZSw+mpBWQWUVGBGWuZcnVzjJ/DYCMcDuIgO4feCYPovNOFaCOTfAQjnu6pYAL5VEl4XTbnfdQBKyqpoTMHJLfhSIL4ePwdDkZV0CBd0m9pHT3gMH1teC8AvIhyKawflrji62hitz1NZcXQS1ldVfjCjAs2l+KVhBmBwVJPWAdl4LOyl60PB0pWW0yUY4hp02gYde0Kvya9yZn4j38/VCmaI+kIKSG4FQudKKPx414U2l/Thiwe8cK+IDDUtfEDXimohzg/jM42dYI5SqEoasCOwwrmT6qM+/4BPo7YVbcUHi3eF5p2obmta8EzP7vta7XgMAsmHIJWvgWMp/g/UuZT34u3MhtzogCGfTok+6v989DyKvf0EmKKCfrGEj38kbZfcfKj9wOKgXet8qovzkNs3kbiczZk2C0TinkdWY7K41JUjY5IRHUKE9+WxHZj6ipKOgH8fGm72265J5SeyfU1RMX5dheYTcBglLJCD3wgTAsdTRcXG08lBKSeFMdQDqzLXVAZWjeNCg1VhkBAHQkaHQfjjoaYFmzOPTmnBVw1lRzsq3WG6hpn8nxE4vtF2rpA/2kYjprHgAUTUGp0aOwXIwKL1TaDm3QymwIu2aVTrLnfho+mbrSuJgcPiNQVtGZfwjsfEJyYjolZokh+Fmsp+EYeaTwbfyXXvXNKmSd4CfVCJCcRHQXrGVxvdmEVhzFAA2g4tPQTLAh1H+7B9YjAVbAowboyOVWR82CMydnA2AGwZtn5Md2AosWZYlG+3n9d+Zu9lZ/988gZJH2Y+JsFkgCU3N8kYn8/4dH3aDi7ajg+IHkHbh7FbBADlXsm5UthZU0GnXVPTT3LBD4MRJVCLb0PdrWgv03ezpsGfbjV8sAhGJytoaEe8VzIyK+XZG2VLidxW0ydbhKQFYMbt2I6d+Gb4ZPZhmS6qMozq2L9wX8X0V/7Wdz7i8olwd6FucTqwcMyUaUwxsfgMVdPiEfR043LW4ewEjbwH16gPl3a5n3KVcj205/i5XOMKkhDInezcwzo7c0EtoJ1MvPLIpXLKHInj3coL8sqEVIdK3FeAN/mlgnRIfiAL66V5eBhKVbnu8QQTiS1D2S+s4r0vbGbYGSIM1o8wwWdKQ8eT1A1N0PF4+RJmhp0h3N3fBZPbBNOSmDbxpjzfcU+MuUC5YWdItenv5JzvgGJVLr2yuYhMsjcu0PwKBjPsDAki9mqa/AMc/N+3HCnJjmvEXy14JhdoAEze8Kf+ti2tJdU7P8UBUOBfdv2g7YBvD2OvJ1zX4Sfxj5eC/wdWNJMFOiyHDQAAAABJRU5ErkJggg==;" vertex="1" parent="1">
          <mxGeometry x="396" y="190" width="34.87" height="40" as="geometry" />
        </mxCell>
        <mxCell id="Dnd6SaUCVXXJT1RzdSpy-42" value="..." style="text;html=1;strokeColor=none;fillColor=none;align=center;verticalAlign=middle;whiteSpace=wrap;rounded=0;" vertex="1" parent="1">
          <mxGeometry x="400.87" y="233.76999999999998" width="30" height="30" as="geometry" />
        </mxCell>
        <mxCell id="Dnd6SaUCVXXJT1RzdSpy-43" value="" style="shape=image;verticalLabelPosition=bottom;labelBackgroundColor=default;verticalAlign=top;aspect=fixed;imageAspect=0;image=data:image/png,iVBORw0KGgoAAAANSUhEUgAAAKYAAABwCAYAAACU7wtFAAAAAXNSR0IArs4c6QAAAIRlWElmTU0AKgAAAAgABQESAAMAAAABAAEAAAEaAAUAAAABAAAASgEbAAUAAAABAAAAUgEoAAMAAAABAAIAAIdpAAQAAAABAAAAWgAAAAAAAACQAAAAAQAAAJAAAAABAAOgAQADAAAAAQABAACgAgAEAAAAAQAAAKagAwAEAAAAAQAAAHAAAAAAmxUwTQAAAAlwSFlzAAAWJQAAFiUBSVIk8AAAIwBJREFUeAHtned2XMeV73cH5JyYA8AoipJoUgwaSY4SZWvW2PNp/H3W8hPMfYx73+DOA3jdWb7La8Z3pLFmWbQsWxJFBYpiBJgDiJxDA+ju+/9VdwEHjW4GW0AfAGeTBydU2lX7X7uqdoU2iygqgRCWQCwrCiFfEUubuARiovgmzn+U9RCXQATMEAtnM7MWAXMzSz/EeY+AGWLhbGbWImBuZumHOO8RMEMsnM3MWgTMzSz9EOc9AmaIhbOZWYuAuZmlH+K8R8AMsXA2M2sRMDez9EOc9wiYIRbOZmYtAuZmln6I8x4BM8TC2cysRcDczNIPcd4jYIZYOJuZtQiYm1n6Ic57BMwQC2czsxYBczNLP8R5j4AZYuFsZtaS6yXzs7Oz9ujRI5uZmbGS++fYVhcrkaMnuPn4tAfKBU7EE1ZXX2d79uwpEVn0ebVLYF0AM51OW09Pj/3r//5XGxsbs4WFhaLlArA8yAo9PM0N/4TlSiaT1tnZaf/yP/7Famtr3XthfNH76pbAugDm48eP7csvvrSbN29aPL76vQ/Amclk7P333rez75y1lpaW1ZVCFPuKElh9Ka9I8vk+AJLr16/bJ598siaghDu069TUlP3ud7+zwcHBkhr6+XIS+X6eEgg9MO/dvWeXv73s+pfPk7G/1S/dhYGBATv/2Xl3/1vji8I/XwmEGphoy/Pnz9ulS5eeL1ffke+Kigr7wx/+YHfv3C3Zd/2OkoqiKSiBUAPz9u3bDpS9vb0FbK/NK016f3+/Xfjigt25c2dtEo1ScSUQamB++IcP7cGDB67PV0peOnzJgpfG1qW8Ln1XGMtmll9LrsueGGxd/PqiXbx4MeprLiuZ1X0J5ag8lUo5TfX111/b8PBwSWBO1TTaUNM2y0izyZMbHDVODVvTWL/FNKouSpm0TR84ZrGGFosl8tnXt6rrX1hsdiYH1oKA/QP9duXKFXvxxRft0KFDBa7R62qUQCiBOT4+bv/2f/7NhoaGnNmGJrWQpqvr7WFHp93aeSSnI6UFKxpbbOvkgCW6P7eG/nsOrMFw6WSFpWrb7faJn1nT1h1Wn4i7sLH5lLzFrLL7a4tPjq4Ih6fuG9328Z8+joAZLNBVfA5dU84Mz4P7D+yjjz6y6enpotqSpnuoaav1tu+xuUSFzetKV1bbQusWG9l3zB7vP27xTIERXmEWqurszomzNtDUYRPJSpvTlVW4TE29zZ46a5nm9pJFTSVBa3Z3dxsG/4hWtwRCB0ymHT8896HNz8+XHAlPC0gAc6w2b/hWs52QtozV1NlMU7sN7zxok+27LBswxmekLWca2+zBi6/bXGWNjS5kbDKt/inlqynITMs2m997RODs0IeV/VS0dl9fn/3Hv/+Hzc3Nra5UotgtVE05mqhfwsc8s3v3ruLi0aDli4Y9NtoIgHIUi8csIW1pVTWClDRjY6uNv/qWdV79o8XT0pyZrI3Xt1pf53FbUL8yqW+T+larqwFQA2Bp2PkXTlrT3KQ135F5SmAtJMB59+5dNwPVqtmghKYuMWk50j0IZwf4fBck6Ae/7t13T3z4XCxLf4u4+/hd3KTn/SyFyi8V0NTsMm4CHvKPzGyJEWtqbra6ujpLJFbmd2WotfsSqhOFaS7vSfDMthSbelxQQQ7PZex/3Z22rycXjOFNTAVaibbcJiBXVDlx7LdZ+2frt5fiMxYTCAH8hDx/G6u3/1mxz2gmCFuvh63JuLUlE4tiPJbqs5Ozj601M0vsulYSQuXCCO8FvNLX0heA6MPwrP/PTblwuXSJwEdBZXF9cD7473pe8pGrCN4/fuCFFon7Cy+8YK9875ht37HjuXlarQDKTyw0GpOCGhYwR0c1+BA5rVKQ83k1vf/eP2v3U2mUIANxiwuM8S07Lat+JtRkC3bIZuyYTangpT3z4KmVW5e+v5oes6uJepu2hM0InSPpjDUnNKLPH658N9lkTRUpOz37yMVX7A9AcICUowMFjDwBbeQFf1S2vwaYHpTw4uMIVpmcu6BIoZQg7z+TB6bn5+79e9bc2mLtHR3GhEJYKDR9TA9Kv3LIC94X1JwKfUDa8tzovI0sIAAJu6LSkg1Nlq2uQWJOi+zPztob2THpuoylBUqE5qkhu2D/lO61psy804VoTcA5pP6ml+lootruJxttMF5bQl+a08DwF4zb1RKfUMHdAyf32UOkwFOJV9LJyJy1LK0ifh0oA3kt4sXxTetBXLkKpfxrgNmrfj19+zBRKIDp+paaYZmYmFgsG1dw+TeYHJ7P2n8OpGxMA2JwiXjjAmS8RX3NPPZapC1flKY8nJ2yOWlCLwQfqcbfzu3F7KQ1CaQEm9OffkUocTlv/B1M1trlqnZLZFeOvhEqlacoUIoAo7CCoVyfhYjqmUEZTDf4nE+IZp2yKKxM6gS4loLZrR5ZG4rm6VmYXQU/ZQcmhcViCUDptaXLpwTjC2pehX1vJm3/b3jOUnnVFq+qtkRdo7QljTTAMntFgHslM+kGPHQNFiSMNBoHYeUFlpEw3koP2Q5p1rSe0ZopOY/Op410wM1EvNJuVrTYSLxGUF8qIgfK+RKgVLhifdJCMDhvz/Anq0qRZuD2FHJlJP4dlUA92rQYH1R+LhZf92lpIf37ZTJ4Stqr6bxU6quZyhPipiAoEOyXQS0JQih0xpd3BMq/jM27ZhcgAbJ4faPFNegBlMilUYKk/9iVnnRgxJuPD2AycAKk6qbawey0vSAAt2VzZh/C98rBg573qXiF/aV6h80ERucIN61mtSQVaENfsQr9x2KkUJwI47Wb57+4z9xX/JdKh+/wXFLD5yOm34pi+OLCBdf9eVJ6a+VWVmBiD/TaEmEUo3nV9isagX8qYDp1Jk8JmnCnLdW3FC3I4QfpYdubmZZ+c9B13/0f8OIx4zSohHUyPWovZ3JdB2AyKyGOq/lPyQ2/c/GkXareYqNxGe4VK/w9jzbxoPA8LL97bpZ/pYrl+pMr87DcZ+7NAbIQ42jNPFg9KIuF9d8AP//mUnNuGvjhw4dOSXj3ct3LCkxmdh7cv1+yxsdVaFen0s40xADFkQo90dRqsdp698qQp0GN8uvZUeuwOcGyuNB9ASMIZNmVmbIj6YlFrRlXuGFpzal8VwE/aWnLryrabMAqLKtmFUE/kQBFgEppsoCXxceM7LMZgf95wiwGLnighaAicT1PfOSP9Qnj2r5SbiobMGm6R0dG3B6eUoVHnw9NeWlS2pSarSupvmWsvslMU4mAp04CPbswaFsESsFnsTxLxek9YLk8qOYczUlfE5pV8AmBc1aaE0qo2f6jNdu1bLXccuk7h6f8IW0H4iV2loUobKLxm+VSuOch+o7BMDwvqAK5S10kNDzgdPE/IW6nNVW2+H0oRcEyQ5RGOakswKQA2VTGXp5SlBRWvplYcBozZx6ST4DZvs1iAidYAlzt6if+ItNv9RplPw+hWXdkU3Zc/dKWzJyLi/DjEvaoQILWGZGW7lczfiHRbDfjdXp6NuCQPweY5Qq0KHuA5mnAWRlQWj8ANJ4BlQeiS1+8unveDff0wtNBSg4ZoTMDV04qCzAZBQ5pdmd0ZFjNl2q1q9lqKl1zmSs8Fmp8MDRnd1PSXhIwvy6YkDHdmtosq3lveqSA8nQm14QHteWzFqgmFG2nRudnFwY0N4tIYhqhx9wsEf3NR/O5wdLViia7LMM7Nk/6gB5Mxe5ugJUHGwMlrqA/DxYGbYy6AUxWWp/vz0qqn84/8RJ+fgELhMpP8XhyPUc85on4cXcAVRjCBslpTeWfOwqDvib7nspFZZn5GdPszvjYqCucXLMmoeT+u3LAtjgo22K3RuPjDKNVqBVVFda+ZZvVVyU1jZ1wA56DEsZp9RMZ/Pw1pJitUcb2M/P99t6QBlcCJTSpOfA5zR/P1De7tKc0QfZQBvdeDYT2pKfFKiGLE1orI80EEHJ5C/rLhQQ0ABi/gNLVPP7msxEMl/uWc/DfuQOwXPjSvARTDj7DG9ozHc/IjpmbkfJx44+4GZSyaGXfvn3BoGv2XBZgNjQ2Wn1Dg42oj1mMKiWH7VKOh6pjWgWUtYmshiayV6ZkTO+sTLpFF4gjnqixO9lm60pNLh/0qOCfhRD3qLTiR2MLNjPWa7NOiWhw1dBsGc0oearTAo9dMkPtcKD0X1feEWhGmra09gOSOfJ9Slj15iPPdunw+bCqGAuypwbBtIIbn9AKh/wH3JUgXRa0JyYjLojq06zFHW1tbe69HH/K0pSzmqW1tc2taiklhDm11T9pitveKtVogZIV5zNqzocl+Lm8BMdlCO/BEB6rciYdX4BPgyVpIoxZCffezIL99zhxSlLSHgktiUvKFGVaQofgiOvF+RE7MjdqSYUpxa8zYguYhHkiYPJM5ppd/Hqun+0OR74ZLsXLYkzPETdxuj6qNGmbZLNz505ralqqnItxrtFDWYCJ4JpbmouuaKGw04BPBXSkJmYv1CasrbHBYo3NDhSPNSDxhnAGMBOJSvusartA++RlWx6MFL4TgGaGAOXnkxrspNU0qsCRYwLDfVOLAySgbFBTf2xuyLoWJnLLzABr/vIyyvEMKP0XML4SFf4b/iH/vhTqGZ4U1M2LP4PXp6G+MH34wrZ8UNtHtm3b9iwprJqfsjTl5KamplZNRbv11j9ypglWAtHf4g5RaDB3urlSc9c19hcNeBA1ZpsJAbdS7pVah5kSIL+p6rDDAk+1RuYVioOwXvhoAq6lpjMXP8l0z8Xsi1nFmsdQQiaomIBpbppThntp6JOpQetcmLRKdRaoCF6YxE9MNN/Mmty+dXuxKUyqD0x3Zcf27Yt8sHdpSJdbAK2QVL729jZrkj/WQhLf5OSkDQ4NW011tU7/aLaqKvVnRAwWB7XyamZae5JELj+6w3ZlZYU1SrO1qOn1ee5X/3B6alplXGPtao79dywho7rg2RPrShvUrfLN+NatW23X7t2Of++nHPeyARMB16pJ3723065fvZIrbAknSLwdSM7b0URKtkStKorllmVhCK9Wx71KBnAmLVMC0JXKNquanbeOzIwAJOGp8BF+sREvAu3RbOQVgXI4k0el0k40t1pchnviZAapVoOrM6l+60jPOlAGeXMAVR4A082em3br9hIw8Qcg6KcBrpRstve12/PuvXvBKBR2wvbu3Wsd7e0OsMQxJGBWC5h703ts166dDjAP3eqfXgdQx63ShQAcgNq6dYvVqyxZtsZ+KUbUw8MjSr9J3aVaq5Z5jQ1+fVqswYCGfqUn7JVUIJpt4jp5+nQojsQpS1PuCwWhbVehoD29JvJu/g4UD2uW5lRGNd3piNxSNWcIlyaEgOdVAbNPI+eUugAAYVaCwBzjtYXzmP+DWL6cjtu3AibPpJ2slHZiCZ2EiC6s0YDnh6nHDugVDurBGHKgWJibl9lryAGOdNBE/hqXFr1165YLhMEajee6EAE/gwpLeEADoPr7B9wzmg0QTUtTzigvfX16FoDQlM4clY+DdzSwD8thYA8ESjQ4fExJaz561Ot4GMA8p3hZ2EI4fw1rAIomh1iTySgcTVtuKiswAURlZaXt7epyhVEMREBvd3bGTspeWaum2hm5pTAwIzFiz+s7S8UrrEe2xocxLW5DcPm+JGBACD5uMnxDi9NvqBkf89pSfFR0yHCvphzCT7OM7v8wc99Yw1lIHoSDQ4PWK5sf4CgkZrbQkBNoMAETsBRWPnhjYfS9e/ftjo7CgU+I+PF/584dt83kSUcvEicABJBjY+NabD0scM+5tOgvwh/AxfxTzC4JD1QEAH/6zGlLViRX8FmYt7V4L1tT7jNH87Fr1y4bUBODALxwvDt3jN/M0ryTHrTfJzssJTjO6tuECrNZ4KpSHOi++9Ut1jI/Ze2pcYVamif2cTrNqC27H04l7CF4E6r5ltCC46wM95KKYolZm7ZVHNdIfIuM7/Rplxq+HGiwASJQNBwCLwQcPAMuNOFHH3/stJevGLh5Ihwaa0TgxN374TtlcVdg5dnz78MV3nFnfvuzzz5zAPPuxAc4v/7mmyfGASir1H1g0FMsLz6+tbyXVWP6jNIEbVOT3qiBgBdQ8I6NvUWj47cFTDQYTTeomtZtUOsofSZmpTV7q5rsUVVzTrPKl4+HtGY04rkynbGrKa8tBUNWwbduVX9Ao3qBABjuXpiyN+f6bE591yAoAQD2Q+KkaWaPEoJ/EgFg/Jci3Ii30A/v3q1U2OB3UqCZLowHPzTrxb7jxnea79f+7jXXx4yASakEaItGg80aIcY1oEFQwYsazT7xxnTK3pgfcFsjaPS0qF3NsUbq+M8Lf6CywXpqt+h0Dg/XJXBOyCz0fyeSLgxJu2lOltC1ahV83v92GdGPLIzZNgZReTwhPNd3lKb0fDHAoM+23okR+ZEjR+yll18KVVbK3pT70mAgROebftLg4PLmkX4k4Eio5r8tTdYTb9A6SQw4Wjepq1fW+B1MVep5Rt/7K5vsQW2b7ZoZcZqT8FNq8u/M6xyiFJpRH4hPgy72o2fQliI+H02Pa8GxwtE90AeASNON7RBtwsX+GAYT5V6B45j+K/+QDyrba6+9ZseOHbO6Wk0ohIhCA0zKhCkwOvwc0jqnEW+uWZHa4r+ABEhY3FGzZ8jq9h6z8eatWpGuZlWgaZVpKKH+Y1y2zQkZ4b/sm7CH1z/XGUa5sfx4osqu1W2zbMt+RaZvgEymoZiAmVeM1jjSaws9n9qNvm674Vau55tZrzoVpkqDtbfPnrUzr/+dEyONPwR/UI5n97j47N346p+9P/+eC7H0t9Ddv+PDPwfD+udibkuxrgy7b/8+2xGirbue11ABkxF6u2x6zc0t9uc//7nk2ed1w+PWqCYbYAIHNv4PSaslda8VMDOjgzZ7/r/twZjMIG6RhDQfoKof1axOp8JIWzLDUyfzkI6JkSdpzaRtuX7Bst1f2d0JzeHLf5AQfH1DvR09etR+8MMfLJpUHDDl1QPDhwEg/lvwOegO8/BSjNYqXnjzYC7GR7m+LXXEysVBQbrM0f7krZ84oSLYYlf1xLC1POqxxsGHCp3TWSOazJhGs40NWsX96xYfeCRM5jr9xMHpb9WzU9b5+LpVpufdfqF4g2Z5BIy4/NUP91rrwxtWPT7koFKYLtq6o73Dfv7znzsDOE29a+5VERCsf/f34Lfgc9CdE0T8e+Edt1LhvN9S7s8TL3GEkUKlMSkgfiWis7PTXn/jdfv20rdF+3FZDVRaH9ywlDTerBZc5PZ2ZW1ah7Yt3L9ildcuaJS9MmuVC3N24P5lm9K5RjMSvHHK29ysJebnbN+XH1iNA2VxQTG3z6kVL7/8chjluOF4Wim9EGQRs9Evf/lLe/jgYVFgwmL15Iht6/5Cd9kABULsjwk127VDDy0xqM37RTQBmrFmdsIO3vvGUiMP3IJj4qIf2nH7kiUE0mLh8HPw4EF74803eIxoDUoglMBkrhggHH3pqJutYN1msSanRs127ejAsmJyB00VAaX3lNWgpk3dAPUR/Cd3D54Mt8xBL62trXbkhSN2+PDhQqfofZVKIHR9TPLpQfjWT95ys0L074qSAAigglcpjRcMD3iDYZ4EStJ+5ZVX7Hvf+56bPg3GEz2vXgmEEpg+u4cOH3LGX0bq5SAGQKwQevXkq7b/gMxMEa1ZCYQamIw+z7x2xl459sqi6WXNSkYJsTjjRz/6kZuyg5eI1q4EQl/aBw4csJeOvuTsm2tXLBweF3cLaLEOsHg2orUtgdADk/7m4RcOu0UGJfua33GZ0YTX19fbu+++a1u2bAnVuZHfcVZDG10oR+WFpYXR/dSpU3bh8wtuxThzvE8jwAX5gdTT/Ht3wrHVgTR/8Y+/cCuevFt0X7sSCNVR10/KNotcmUefmtRJwflpxhX+hcVSQHRALW47XxENwMSWGpmHVhTNmnyQDLWj2auWNUnyb08EdouBz2ejmBupPs39b+csiuG7KgFwue6A+V1lPoonvCUALkM/+Alv8UWcrWYJRMBczdKN4v6rS6Cso3L6fZiAuHhm0IH9UJp8MUMYuYOjcFa6s48m+A3PPg7CKirFo/WX8hsMz77rwp8MIZzfBEfaldrGW6Gdgj5O9o2z4xF/uFdozWiDTEnwSlp8Jw38QGx9ZV3p04jBHDsh2TNE3uGLbQ6sriLuUkTeCTevvUfwiX/yWUjwQxqUE2sP8MfeKgieSZe84c53/HB0T1iorMCkgNiewCkVFHiL9vwwBeiBCWDY8EUBAwoKl9XWfGNLqgcn8fhNX/6QAwqbvSwcqccWWYSP4PfvX5paJBxu3d035Z6We6PMRDvciBzh35YVgJPp2KNO/PBFvPDZ1dnp7nwnjcvffut4ZCHxTu36hN9iBGDuKF5+YW1UJ96RR3gj3kal39XV5Q5BKHVuEHvRP9bOS8oNMJ84cbyo9YD4z5//3JUdm81OnTrp+CWt8fEJ+9OfPnKHH5A+7idPnoyA6QVGIaFt2NeMgAEe37gATZ/2Y3NwgHNTbQa0ENtiqe3c8Yd/NAB6lme3eU2riAjntSYARJjMu2M8RysB+N7ex9qGq9MpFA8HfSW1hZefF7l27ZrbCUl8nlzc0jBUJK5DWgEFSCfFI5vTAApCDobxYbmTzxs3brjjpOGXszPxywXoiZOTMkifn6Au3PIA/w8fPnA/tkqlJAwrn/BHpQsSFevevbva1jvu9vOQHsRKrS+//NLOfXjOVexd+mlE4iAfYaKyakwKAqEAiiABVjZ8eVBS6Oyi9E0N/gEdYWk2uVwcepe03Hc9OK0FEAGxbzZv377tFvwCTMDKKRkIuEHbJtrb2+Rv3Hp6etzPBgJJ3KgQpI1w+TlBKgRae1ACrVbT7aGL31KEZiJtQEF4NGrn3k5p151OW/apcvDT01SWS5cuua4BWtPnmXgB7h39zqYvL+69vY/svo6nBshBcmWk5p5ySmuHKWUFD5e+uWS//6/fu7xQrm+++abTus/S/QjGv9rPZQUmhcUVJISPZgEACBot2iIAYPD25MOhoQAezZ+nYHweKGgDmn7AxAEFzOoAANKYnNLvAgkkzMnTnPIDq32P+7SbV6dz6P2kZpw6+Dk7PSNstNYXAhdxo6kaJVxOR34aoVFv3rzpAEE8b7zxhvvtc8ABzwBo5/ad9umnnzoeqTDfqntw5syZxag5YIEmGv8+b4/FKyd50G3x3wjgnlVPSIuag4Y9f/68nTt3zoGeON79+3ddOPrVYaOyAtMXhgcTwkGL0ZxBAIW5aoAVLPTCcLz7OLxb8I7GA1AcNMV5Rmhj+o1+ATLg4Ng9zhHyfdd6/fT08ePHHfArVQEgtCx+XxNYqE5894Me3Nnbvrya8VXbPZQvKgRNNJVpt05ToyIQF0Te+E7/FECi2dDy9EU9MOG1ry933Av+6TKQD/zlmv8Bd7iWi7DgD1wByls3bzmtS3kcV9+UbbvBCl8QrKyvoQAmJQCwKHzurv+lGo5mQ3ilBhJoAZpohOmByR1Ao2npSyJEAEWz2NHRrj7aI3flzi1PO423X0LGz7iacUDhw+/QQMjHG5QSI9gg4YdTMGLSvE5DBR31TKWAT5pwgIB2K9V07tmzxwGY5hnQwQ/95Ac6LY4DssgPJ7j97Gc/tffee89p4SGdoXT9+rUVwNR2NscJ2po+8+zMbO4kOZ0wx6a6UuVawH5ZXssOTIQKwLjoW3rB8h3hPanwADBCRxMFCZMNp8jRP0OQEEDlGwJncER6nGMJYHeqSQaY89rLznfS9CYYHz4Y//M+ky+0JnP8xEeapFeM4Jm0fbmgkQlDc83on7yhbWlFADHdkbHRMdcv/v73v++idDyr/FwbLm3puiaKgzjRzA06CJfKF2YqbtNYQ445vxLBAQgPSp88ggB4xYhC5vIgQpj+ovALBY8g0KCsreSZsGgvwJrIC4l+ZV7JrOClGA+F3wr59+4AxcWtD/ihQpF+MSosB3ilHOgKoD2prHQ7aL4xLwFkvg8ODLrBFVo5R1TIXKVMJLT9JJ8eWphBFtaBJb/FOCnvt9BUGwRGoaMRECR9Tfp7NO8Aje9Bwj9Cw9TR2dm5DEiAFbdCbcu3HeoecB4kggKonKjriTQqdcjW5IRG8RLg7GxKPFWsiMf7D97hGZ48AIJuNP1UmoRMWPihaYVvvhUSAJxQ+slkwrnTleEUtxHxrMhdH/GP5/7oKh5amIpL2oCTZYHv/PQd11z73q7ni31LdFXoEgzrZ2x+/etf269+9StXMfETNgqBxszN0tDsIKwujbA5lhBQIWQEhZkkKHCEi2ZBCSQFWt+fBGhcvBfrwyEArx0lTZdGELw0sczscFgqleIbHd8HOINEut3d3Q5cgMET/PnLf/N3AE/cdfV1GnTN2ldffeX6j0wGeCLspJb0dXf35AdJVSqP3K9GcGIxFgWAOJcftNGEU3nRvuSLJv/ixYu5ZYEqH0ZhlBNuDLbePvu2/fSdn1pXZ5ezemAhYEBE+YaRQqExKTzWk6BBECLCB5w0VzQ3aE2+A1wI9wUdCQPRDeCcI7oEQULQaFqAR/ye4qBZtPTFu+ioQ2nP1tYWN/ol3cuXLyvetO3ds9f9/AvaiT4qAAD4J06ccAM00gIEpEU4mssg4OlWbN2y1cVz5eoVd5ThBx98oNmWU26WB/aoCOdkysEuOa8DGLZs6VAl7RRQb2iGaMSBsrFRZ63r4AU0ryf6rQysACp3bKUcZUMGc3xlNejb4sqPY7Uxj926fUsHyk649OjaUK60JmGiUHBDAQbBA6AAJrZGbJpcENowqAkx+TzQoQjM3ngiLoh+1UsyvwA24vPk3d0979e7ASaEh2a6fv0GSseuXb1u16/dcH1EwLfAQEYVA7ChMb25yGunz85/Zuc/P++jdHcOCztx/ISzW6Kh7umk4fv3H4jvPgGm2jXbaEtAnZExHNvs0aMvqpndZu+//76reBjyT50+aT/+8Y+XgYh8YDT/7W9/65p1tDzWBFV1lzbuC3kDO/ljv/4777xjv/nNbxxI4ZcWhqY+KINlGSjDS1mBSaHlrlxz7guGOxcDE45tphlL62hATtjdt6/LFZPzoyeOteaCcpDMaQqAg2Zd/Oh88CfmwDUrUBUbhNDkHjhw0AHv9u076m+OO62c1bHaEPHyixSHdPoutkTeGZx4YC7+AJW884381eq4Q3jp7NxrP9SBXJ988qnC9DnN6isdcSeTcWngLtlPT8hvp/I96AYpxNHZ2eW0c6Fmoxxa21odL/DBue+Mwv2PnaZ0DA6tCnFAaMdXX33VTWv23Oyxi/q13fq6ejegCtOmu7IuFEZYNI/0lSBAgVb0zSCFOTCQa6J4ZiCCJqXPSXM5P8951R6OxCCTCO98ksC2q5mqlc0P8ECkx0+S0BzT10OTAf6gRnUe9Qdhkg5G96npKZmS9EOoGpDUSYhoNASM9gbcnHt++87tRY0Dr8ELjYRph3CAFU2LxhweHnL9Sr6RN7oRu3fvcVOgfKNCogEpD/LNRfkUEvE9kn2WrofTiocOOl7gCdvl9h3b3Uki3qCPZgbETH1OqWlnZouKtmvX7sKoy/Kuylb+FexegJQAtZ8rSN6dO0TB+2d/D/oPPuO3WHxek+HO9STCL007fVj6wWisYBjPH/6CFOQNHoql5c1khMOdCuL59fE6rS93Khdu3j2YFs+eT56JC3/BfPrwuEPEn8tXrhtFGF+Bcz7K91e8lx+Y5ct+lHJYSwBcPlldhJXziK8NXwIRMDe8iNdnBiNgrk+5bXiuI2BueBGvzwxGwFyfctvwXEfA3PAiXp8ZjIC5PuW24bmOgLnhRbw+MxgBc33KbcNzHQFzw4t4fWYwAub6lNuG5zoC5oYX8frMYATM9Sm3Dc91BMwNL+L1mcEImOtTbhue6wiYG17E6zODETDXp9w2PNcRMDe8iNdnBiNgrk+5bXiuI2BueBGvzwz+f7ATh70XZUnxAAAAAElFTkSuQmCC;" vertex="1" parent="1">
          <mxGeometry x="531.65" y="339" width="66.7" height="45" as="geometry" />
        </mxCell>
        <mxCell id="Dnd6SaUCVXXJT1RzdSpy-44" value="" style="rounded=0;whiteSpace=wrap;html=1;" vertex="1" parent="1">
          <mxGeometry x="620" y="290" width="90" height="100" as="geometry" />
        </mxCell>
        <mxCell id="Dnd6SaUCVXXJT1RzdSpy-45" value="CI/CD" style="text;html=1;strokeColor=none;fillColor=none;align=center;verticalAlign=middle;whiteSpace=wrap;rounded=0;" vertex="1" parent="1">
          <mxGeometry x="620" y="290" width="90" height="20" as="geometry" />
        </mxCell>
        <mxCell id="Dnd6SaUCVXXJT1RzdSpy-46" value="" style="shape=image;verticalLabelPosition=bottom;labelBackgroundColor=default;verticalAlign=top;aspect=fixed;imageAspect=0;image=data:image/png,iVBORw0KGgoAAAANSUhEUgAAAHoAAABiCAYAAACf3McSAAAAAXNSR0IArs4c6QAAAIRlWElmTU0AKgAAAAgABQESAAMAAAABAAEAAAEaAAUAAAABAAAASgEbAAUAAAABAAAAUgEoAAMAAAABAAIAAIdpAAQAAAABAAAAWgAAAAAAAACQAAAAAQAAAJAAAAABAAOgAQADAAAAAQABAACgAgAEAAAAAQAAAHqgAwAEAAAAAQAAAGIAAAAA5LarnwAAAAlwSFlzAAAWJQAAFiUBSVIk8AAAG6VJREFUeAHtnQl4VOW5x1/ZA4SEQNghCfsiIiK4gOKGl2rRulWtWlu9ta1Ll0dbe7tYe9tqvS6ttlfaPuVaq1JxRRFR2WQVZDXIvmRhSSAJa1jCev+/78sJMcxkxlqSmTAvz2RmznznO+e8/3f/3nMwS9ApwYHTuMpjolPiak/RizxNVO8UvfZT7rITQJ8ikCeATgB9inDgFLnMhEYngK45DhxNxPwnndkNTvoRqjnA9v1mm3aZ5ewwW1tkVrzPrGlDs1ZNzQZ1NBvQ3u+cpG0J+mIcqBWgjxw1m7jKbNp6s0VbzHYI8F0HzFxSr+vRz4aWpzQ2u6KX2dV9zS7M+mIXeqrvXeMFk1xp79srzV7/1GzjTrN6OoNmjcwaKFpoLmDr6/tOAb9tr4DXZ7b3b2f2pZ5m3xhk1liiyT4Jip4DFExqVKOpv43LNhs9TwDWN+vTxuySbmYjunswARY6LJXeslsCscLslWVmK7bp+x4P/OU9zLLSjmu/3yPxNxIHHGtrqgT60GSzV6XJ+w+ZfVPaOaq398P1q4n9lxWY/W2B2XhZAWK2R//D7Jp+3pdHurjE754DNVoCHbvU7FlpcnOZ6esE1E1neJABb7f8czjqr4DsxgF+nwYSS0z+G3olqvPhOBZ6e42Y7p0C8s/zzYie+7U1+8Ul3i9vVMQ9K8dswiqdnBD/4TCz8zJOPNHztS1NkfjHG82yC81aNvFa3URnX501OHGmU3dLNUbz38eU+flmq5Q+QSPlY1OTzBrKR8/V9kc+FICbzOYJxJvHmf38fbMiBWJVKb2Z2b3nm/VsZUZatkQmfe/BqqMS38NxoEaAHvuJ2T755UEdzC5W8AVheveWmR1S4AV4rQXkwcNmzy02G/5Xs+cX+nEEZlCqtPiG/mYZLc02K1AbL/MdSiD86MTfqhw46UAfEMBLlSuTEn1FvhnAAhLWliTzO7iTTPi3zX58oVmyfDg59U8+kPY/5017sTQcE80L80/6hUYfkGAkKDoOnHSgC0t9xQuABnc80acCNgUUKmI/kI9+7w4VRzI1ToKxYqv89kT5cEXcQZmUeUjDSlRFSwAdHciMOulAbxcgZdI8NLeVzHOkYkemTPM/b1ZkfasCMPnyIglKgXLoo+UmnHkayb8fPHIc/Ogv99QdedKBBhS0E60FHDQ4Em0TuJRId8mHH9EOTjg0B8R3tJuvzJug6Dgg/Ti5RFrUWOaWCJlqV/tkASTwT6By0F5W4PbwVOXWAhkgh2X6qlkAKsUWArgWjaMTmhOOc4puOOlAd2ihSDlVwZMCspk5Zme096lVBb+lnWjpks1mD00x+0RBFoSJ/u45CuC0oNExxftltuOXAb2ztlEbT1B0HDjpQHMaQzN85D1etWsi756tPXAARtr1wVqz1z71mnpM2jo00+yXl/riCmYa043Zp4JGRE4qRhGFCD1B0XHgpPtoTuP2gapmKbBi5eqt5ceDqLYy4+TFVM7Q1PbNlR/fpoWMr3mQ2TcI3siZ/zDbF16wEghMSqVUjbEJCs+BGtHoLBVE0OrZeWYf5QssrUZ1kTkfnmXWVStRc3KlnTLDX+4d2hzjl/O1pPmm0qzD0uwhnbw7YAkzQdFxQEaRKtXJXyJYsMns+hc9kID8kEzzwA5m1KsD8xzqlKmMvSmz/ndVzD5VXn1VH82jChlCkqDoOFCjq1dUv/7+VW/CWV/+/Wy/CoXZdtIW5pyfUyn0haXeZLeS+afj5ILMMIMTm8NyoMY0OjiDV5eZ/Xa6T7dIkXqnm13a3Wso5hti0YJVLTpRNmz3/jtLvvy/R5j10nh6yhIUPQfQ6BoHmsh5bYnZ03N8ylWq/Jroe6/8MO+0CmGuSbn4TpsR5vomrUn3b6ttCb8cPcLlI2sFaI5NRJCn4IrAjAbBHGntGoFP2QyQyxRwoe0Xd/XRNb6cvDlB/xoHag3o4HQPCdA90ugCVcxuHaf0S+DfoLTpR8N9kYQFDGrc4bSYIA4f79a7i81K9ZletO6K8smz2yl9wyp8XtqjqhxRPoJICzKRPuvhZ7QzO6ujtzqfd87aHA/QMpS1RzQf0NKbpBSLVAlN3y6weqigElAokNF6CicvLDH741wJi4DB5IMptfV6mquDQKa3jN40zH+oeYJjVH6nQvfOKrMXFQAG9Xl+R6jc2rnO7ekvKy2UMFVecq08Ryx+FktihxrqbOg2yVNhpTpaXWT2m2lm/1DKRcUMgSEiJyen6kbKhkby+wPv+tZhgKqOqMUv0rEfnaEu1fk+AGyrAg61edwGwkJEQ9HnqhfM3pUwbC2tbsbY+k0siR2CkRRHHptp9swor+VVz46WJNanx6vChpZerUDtPwf76L2JTD13fVBF+9vHZuTuM3N9KvfV/mZnK8ULR/m7tB4+0S+80Nd2y5neVFObx9pwk8FHeWb/o3MjmHxytsy6jvO9oeFmjK3tuoTYIeHsFjMmSVumrvPnVbWU85rSM1qTGklEf3KRTPdVZmcqWANkiDSMBocnrjC742yfxv1jidniAv97qL8oO61JhXuUvskiXC+Tf9tZKuhonqD6Rgn3ClXu3rndCxUCyQLMStUE4qEBIqaAhuHUtg/pw30TVBfXIsgO+WLAxvTyTr8YPvr0dr5w4hPE4/Dhu1kpIxcn576yp4/gC7VfOFOLq8DMA96tAvjOIT6IQ/AC4viL5b9J+8be5AO+7K1m//uRjxeCcbH6HlNAA+DNA7Sg0cZr4n1vy4x/6Jc36VRZVuhNaLc0s28NNmsjH1qZhIHNyzf7znizn74vYKWhd5/vFz9oE55WbiUq78Nn+sQRKAK4dBVjAi0OxpEdPCCzPmKMf8d3E4XT3EjvGh00sU4x5aMBOlMgYpKve9HXtl9fbjZlva+G0fy/ptibVHJrAPi/Bb59+NrT/Zr2YzMUfJVqjHxr+xZeGND61dqPpVB6zSCEAiJKB2gaJIZ3NWNFbY3iAGKAr2hOgrun5I+5NQj3wJwQwrZOc5IeRgr0/B61+zemgIYVh6QdLD9OuF0mUinOG2I4ETTMJ6cmxcEMAdDktVq3nuqj4Q9z/Lo2TKfR4Y7BCr7kY8mDMcF0jnIDwHy93IYAaf2Iu2gjDSXvJmJfLpP8u1m+15y5Xl/hizjX9jV7cLj2FyEYyTpPOmHigWIO6IBpFEvuFFgXScvQYlauFgikFQI88NkASVl0oXwnGggRJf9mhDSu1fHcmfFN6vuGBQoqCEOwzk2uTPSMNaE8S3EEQcOMfyJzz9wIF2XY0V/RfkiZiNItPj1eKGaBDhgIYOTH53bxL1a9yHnXCvzebaTxt+nerLFa087zJpwCCTfQY64x7cHdHD3T/a233O1RlX45WenYQj8Hd3dS/RpzrW9tQsCGZSi6H3UcZMmJW2yhQ7Wp3EnVgLDq/LHwvVw+Y+FUwp8DjGRli6VOgiCKFkTJBGiY2jHXmf3qMpnYW8yu7Xec8VgCmg33STC4x/pyReChCP+OK1gpa0EfOi1K5Nz3nufjhWelyQAaUKnMNWVbzotyK4WeWKeY1+iAgUTCvFrLN2I2p2+Qhvby2k4P2T0CpTJhnhfJ7I6RplIipdmBwCoUYe5pQqQQM2m1qmAN1e0iUz1Kr1D0c1kA4gYKK98e4k19qHGxtC1ugA6YdpUAwZ8SBbOuva7E7C4xmxIlRHC0R772eWk8RReEA4EgZQtHUkxXCZu63mxWrs+L0VYie/rTAsJdcEyCwOby47iOC7J8zBCMidX3uAP6nM5+sYGK1LrtvhTJ4sZ58uHc2cFqFppMgEXghRbTthRpmZOnKNx/gZ7IIFNPweV7E+Srpemke9TSAZntLKHyYE3y+C/19LDGg4+OO6BhLZr2tIIjbqx/OdtXvNw91vqNdmHSJ3z5SAFx+yCzTtJKfHB1RNfK7Wd5YXlzuayBtHvuRqVjEpqAiNCJ1n863K+TV9b2YEysvscl0KRe3KP1Xxf7evb7a3x+jC9GM3k2ChrO58+7lIiZHyKrQacqNxxgHVghw8fzZCSeoUJMQMoWTxSXQMNgzCWmmhfABkTOS7NBkCcH26N9x6dT4qS8OkzAhmtciAdzXfma4xboyhdR+fO/K9WRrIQFufLx4uVzTACN9gUVp8/DuKDCxfrzekXfBGJUwDCz1Kwx8f+KZjMvkT3zUnAJqmVoOYFZPFKtAw0QtAGlqiCC32ORIBIBBCtGdKPQ9z0715cp2Z+mQuajwoU/Jf0hEIsWcNIzUjZWwWg2IGdnBQRTTSFlkAop3HXCnPEEeq0DHfg6NJBoObsgEsy+WDFxtdlLSqt4lihrxIDP46noOmEhg+aExUqHlm1VwKbImwfkVEdoMMEcOTI3GNBMAJjM7YDWO/drk5vPzfPLqQSECFU8UMycJk38VKbQUtaRHfAhOIh5htH0hVPLJj+mk+S8DFWopM0Av175NV0llECfX+SDq2GZflUrxJRuE/O+vsynamgqq1bUvDtpfoRnh4SH9XAWOcilifSJzqnBxwNJBzCZtZ8s7BQjh/3Vd5B8Z4ia9EaGZh+5M3d7AChly4cvO14V89fitZD0CK1+aamvRXMbLu1B4YjGQO4MoXbunj3ay5v7wOIE+9GDjhAhZIyjUtdYghGtawjmqcl32n0lq7FBqU390wG5AZ4GAbQWwnJCgShSEeNhsRRBvi7ggtKnH+V9KSkSrUb4aerRpFw8ByVYyQrGBu8sN07b4PNl+sFZGkWLq4LMeHJzVsgoyGzZbe7WoXhYrowZoGEi68+01wIIbUQ05rNGDOEzWbXCxLJsiblupyi4OsL0PnihXwhZLgGhABKKWIqkK4WSKQ0FkZ6kgDlnNY3+NASPgkqsU0wBTVr0zFXeFKKB14/1y4z4RgIsOkSKBQjaxIPp6PBAAGjuI5iCEBK6UXjnUZKsQ6OdGxRJU+WCGEtEzYsnLnyq+QmqaA8KbvTzI0P/xUwjELQW7dX+BIKxTrq82CJSl1dv0fLfmz4w+vU0s75t/OIEUe9mCQD5LO23BE08YZDI+uYz/Q3yaNgr2WZf03dWlwCFQIQ0KegXo0WJ/nAn5foRoOhH44kLuI5oiMCP5cxEK1E03AozhkV/wH58htqHpIVEzzQFABpBEMgFWkR0nr/bR9xM10wAtNG2pgKhonyp8ewbfA+030lApXM4LMDLDUOlraE/cvzgHEKPiK2tUcpvzZ80fnj0Nb5Rb8YG7195GnCRTDjFEqLuzjL1V/b2680ACfVo5denAbpCMLQdU9tR4yFWqbAOBHhE2TxEh4ZAImp6waOhEpl98m7cQjxQzJ8mUfPd58lEf1XR+K26S7KLom6BzB0btBJBAch8JuKmOsY7wjAjxwsGd2CwLwQ4LIawNEnUzp0dLEFukmVwlTA/LOxfxtJVSjEFFxJYirA7xMAPMQ90wCOCJSJyNJN+LdqASW+qI4Iv7pXiDg3u0KTAEYpoQCRoQzjQatqEqqM5eT76Z5XrXM0Z3A5U3T61/VvcAB0w6oJMX43C9NLWU7VkGnR+vprttZ62okyZbCL6cuseTFXxjoZfqHl5RzhwFWhs1bRJCuyeifbOSv87QA/o4LOEisli9IO79liojEXLH4Ck++PhKT6KphhyUZYvcqDtAES6RAGE+6/oz/7dSF84wcyGI/JzbtnhTknMNz7+LIHYUnOi6aRizEuXKFUcXAp5OhlBrBOVsbgDGqbCdBYenpzlc2t8dBABo5X4UK6MCtedZ3uTDXDVEfuz39w8f5ck/pp50WJI0zriOw/YoROFfL5yfFA+JObe4hZoOAko3FkJMNSziZpZbOie5n05TxY8p4s3216co+M/5poqGfk4y5UEfggBa9toL82JuAG2xQPIXHVcA10ZNphOvZlGfTSa6hbm9vMAXHk+PqO5CBM5N/OzcMHc8Uh1Buh4ZH5NnjNAx6mM1iSb6saxEkDXDRwjXkUC6IgsqhsDEkDXDRwjXkUC6IgsqhsDEkDXDRwjXkUC6IgsqhsDEkDXDRwjXkUC6IgsqhsDEkDXDRwjXsW/pZXoyJEj3ARg9fVf1KnaFvGgX3QAxzrKQ8d0rPr/yt15X/QE4nD/ajX6qBi6b/9+W75ytc2cM8+WLluuQr8YXIXW5+TZ7HkL7MCBA7rzUMs/VajqjSDMm5u/yTYXFFogJOxSVFyil1o8IlDp3r22Zt0G27ylwAMeYXy4n7mWvI2brHh75GNWnYNrOnTokO3ff0CLHiyBnEhlZQft+Zde0THUzVDLVC3Qubn5NuHdyfbWxA9s7vxFNu61t+yxJ/90wilv3VZkq9eut7KDh05g/PSZc+yRJ/74GQE5KmF4f8p0mzV3vt+nnFH/fHW8vTPpgxPmr7ph7959lqNzKyjc5ixJ1d+j/V64dZs98LNf2+O/f/YzAhfN/oCMsE2fNcf27StvXquyI1ZntcbsLd1b5Zea/xrSdLslOoGxdkOurVi1xr7+tRusW1aGOzu0G61tIDMN7ZcWn9Gvj/Xv19uSk5trjfY0x/zAhJfqIgu3bnXbGY+U15O5RROaNG6ssbIQ5QoB3uUfGeoIZjGe9wNlZdaooe8gqKfF4MaNGjlXEYwJ9on2fcknn1qPblmWm7dRgKy3Xt27OfcT7A+YDXU8NL+qi+C6imV9Cgq22p49peJHA2vQgJfnC3MkJTWxR375k2C6incsAJYMHkCNGjV0vKgYUOnDzp27LKlpkjXU3PABOqL10/paM+Ud4nMkCgk0Grdp8xadyH7Lyuhs7dqqpaKc+vVRa0UlmjR5mtOs5ObN7ZpRI3XCTcSYI5abu9GeGT3GCcVeSfz3f/yQ2+vG66+2IYPOdJ8dsFrsPSqw66uHIxAOfgSEV9582370/butZWqKlWzfYc+PfcW+PHKEpaa00EUe0zkW2IT3Jjvtbp2WZt+7+07r1L5d1AvRH328yEZedpGNf+d9m/PRAuuWmemARnAOHT5sk6fNtInvTXXCnJKcbHfdcYtx/S+MfVXr1Efd8feU7pEAHnQC06dXd+vcSf1FotF/e8FWrlnjPt/zrW9Yrx7d3GdM/pYthTZDrrCouNiOCqw26a3txuuullB5OB5/erQUK1NWdIG1atnSMrp0siFnD7TuXTOdEi1bsdJeeuVNKyoqlrA31vYMu+eub1pTCUQ4Cg20LgJzzMV27NBe2hheYgYPPNM+nDXX+dyygwclnY2c9GVldbGHf3a/TZk+0+bIf//0gfvcORCwoba8r9uQY/94+XW3oJ/SIsU25OXbgNP7uHH7JO2bNhc6v6/2fJnH/bY0e4UNPWewAxowFmcvsxEXX2inf7e3/f3FcfbI43+0Xzz4A2vfLnIjV1FRieXLd/bq0d3OHVJs8+YvdALKwYkVFi7JdoDcf99d1k7zLV+5RvGK18BRV14uJpcIyHWWp1hj6LmDrW2b1taihRrUyumGa660nTuH2WN/eNYOlO/HTygPx/144RK7SeAePnLY1qzdYC+/Nt5uu/l6tzcupaRkh/3w3ruc1Rj3+lvWulWaAxq3NXfeQuvft7ddd9UVLoZaJ8sbiUICjfncf6BM5vKYNWnS2JmGVbqoSZOnu883XDPK2rf1zOzcqYOlp7dygVWgkYDIC0lt3qyZNLWepbdu5bZxQod4hK+IuVu1THHm7ph6NKsN2BXMa4Tbjz/1ZSKHDBpog88a4MzrTbIU997/M1mCZQL60opx4T7MVHzQrFlTB9DQcwaJ8Yv16KpjTmNg9NvvfmA/uOdb1l2mHTpHGhVQakqKJcntbN+x03bt3G1dM7t8BmTGAQymO3Bxwb6bt2w1gskrR15mvWUBcA1t0tPt0SefcVqNGddZ2GWXXGAdZZ3SUlPdXJhtXCZuhPcUCRXnzwveRqKQQMNOfCH+9pACLExs06QkS2uZau++P9Uuv3i4AEp12ssBnAmu5kjH4Tk+CB/VRWZu1BWXC/Am7lhbxISqEfrxPfhUyYProCkpyRV+q4VMK4zdtXvPZ3cJ8Q1LtXhptjv+JkXuaBkWpUBWrEO7tk4Qd+3a7SxTiN3dJncmXLiDJdyoE7fvlqnH8mGa4TEC26RJI+evEYC0RqlOoOG3IzGvvvwzSkSc0FzA9urW1cZPfM/eeW+KZXXpLKG4sMIdnnhEvyWkTUZ6kBICgK3yA5iXLp07yj9e5rQQiavE8nBzV2wPNxZQ3UuaBFUG2Wu3P07I/cWAg04I/a8ETof1VBk0IhLtkCZyXYVbi+ypZ/5ifxnzonxdA1sgc1pcUuKYSlAVSkAr5tZhOXLIc6sYdOIHeApgpKK4H7SE68YCEswFFOrYDmyNu3j4UPvTE7+1hx78obOmz/x5jHMhwb6h3o/PXOlXgAZYbH/2ilW2U9LdrGnTCu1hKBEvxMnyOoZJEaMPS1uIQINIMEmSiRvA3HAxaHI0lNy8mZhxUFF6mdKTUtstTSXIC3JWzOx6nd+5gwc5Bq1dn+Mi+kwFLpEIH1mvXn176tGHKpi7YtVa++tzL7qgKkXBXu9ePW2TgqZuCoACQhOD6+ZasAxFysE5x8NHxB9JZxAZs4//LIejDMHxSICmt27tTP48uQr8OvNs1nE6tG9rLZS1hKZA4BW4KnhjLgQat/nNW2+0BYuW2s7duy0j9M5ua0igkRwuKENgE32Pn/CeJcm84ruQyJbyG1D28pW2bVuxrV2XI7+z32bNmW8AlKlIPYgyBw443V4bP9F+/bvfO5990QXnW9/ePdz8nKzz6+XiS/TNRUA9u3fV+FY2c/Y8F0UDNCae4+PzT5MwFisSf/wPo62rAr+pM2bL712qNK+v27+6P4vlx0/v27MCZMYmJzdTmrTHFUG6iIG33XStjXtjgn0sJvJ9ma516HmD7UsjLnFTN5AFQBPz8jbZZAWcpJ9ZGV0EXroLZN+YMElu77BcyW6bMGmKbVPwBrAEtwRty1estjT5+lJlJIWqB3zjlhsrTpm0KRBo4hIiayJyFIm07sNZH9kWFZvgzycqYjVXxpPZuXoBdyzWCYe0QGinr0LluFA+VWnO2QMHWOPGXpt3KMfbkJPvtFjcd1rtAqy0lk7agjMn+NpcUCANLXP7ZuikKHg0FNAEHEg+gFMAIT+GWRBR7vwFi1x+TlBC8EPg01TWBQYSnpUdLLNln660nj27WY+uWc6UhjJ7bsLyPznKm0nRSNsCIqqnZoCQEkjBkvxNmx0IxSXbLUvH7dOrhxfM8p0QPrITLB7gEXwyJ9eZm7/R2XUEklpBaek+a906zdKZW//Yj/SwviwL23v37B6cilFpZC6UBgtInp+sGIRxpL5E+tuUGWyXoLdXTHHmGf0+Y0kqJir/IN6Ku6JwQFfdoTa+w3B/lpHgq42z+2LHDPSrHIYvNlk1e4NzSNNdzT41/tPJZkKNX1ClA9bktYWMuiudS+JjHeFAAug6AmSky0gAHYlDdeT3BNB1BMhIl5EAOhKH6sjv/w9SyIkJJDN03QAAAABJRU5ErkJggg==;" vertex="1" parent="1">
          <mxGeometry x="635.12" y="326" width="59.76" height="48" as="geometry" />
        </mxCell>
        <mxCell id="Dnd6SaUCVXXJT1RzdSpy-47" value="" style="rounded=0;whiteSpace=wrap;html=1;" vertex="1" parent="1">
          <mxGeometry x="720" y="290" width="70" height="100" as="geometry" />
        </mxCell>
        <mxCell id="Dnd6SaUCVXXJT1RzdSpy-48" value="..." style="text;html=1;strokeColor=none;fillColor=none;align=center;verticalAlign=middle;whiteSpace=wrap;rounded=0;" vertex="1" parent="1">
          <mxGeometry x="720" y="290" width="70" height="20" as="geometry" />
        </mxCell>
        <mxCell id="Dnd6SaUCVXXJT1RzdSpy-49" value="" style="rounded=0;whiteSpace=wrap;html=1;dashed=1;dashPattern=1 1;" vertex="1" parent="1">
          <mxGeometry x="460" y="190" width="90" height="70" as="geometry" />
        </mxCell>
        <mxCell id="Dnd6SaUCVXXJT1RzdSpy-50" value="CI/CD" style="text;html=1;strokeColor=none;fillColor=none;align=center;verticalAlign=middle;whiteSpace=wrap;rounded=0;" vertex="1" parent="1">
          <mxGeometry x="460" y="190" width="90" height="20" as="geometry" />
        </mxCell>
        <mxCell id="Dnd6SaUCVXXJT1RzdSpy-51" value="" style="shape=image;verticalLabelPosition=bottom;labelBackgroundColor=default;verticalAlign=top;aspect=fixed;imageAspect=0;image=data:image/png,iVBORw0KGgoAAAANSUhEUgAAAHoAAABiCAYAAACf3McSAAAAAXNSR0IArs4c6QAAAIRlWElmTU0AKgAAAAgABQESAAMAAAABAAEAAAEaAAUAAAABAAAASgEbAAUAAAABAAAAUgEoAAMAAAABAAIAAIdpAAQAAAABAAAAWgAAAAAAAACQAAAAAQAAAJAAAAABAAOgAQADAAAAAQABAACgAgAEAAAAAQAAAHqgAwAEAAAAAQAAAGIAAAAA5LarnwAAAAlwSFlzAAAWJQAAFiUBSVIk8AAAG6VJREFUeAHtnQl4VOW5x1/ZA4SEQNghCfsiIiK4gOKGl2rRulWtWlu9ta1Ll0dbe7tYe9tqvS6ttlfaPuVaq1JxRRFR2WQVZDXIvmRhSSAJa1jCev+/78sJMcxkxlqSmTAvz2RmznznO+e8/3f/3nMwS9ApwYHTuMpjolPiak/RizxNVO8UvfZT7rITQJ8ikCeATgB9inDgFLnMhEYngK45DhxNxPwnndkNTvoRqjnA9v1mm3aZ5ewwW1tkVrzPrGlDs1ZNzQZ1NBvQ3u+cpG0J+mIcqBWgjxw1m7jKbNp6s0VbzHYI8F0HzFxSr+vRz4aWpzQ2u6KX2dV9zS7M+mIXeqrvXeMFk1xp79srzV7/1GzjTrN6OoNmjcwaKFpoLmDr6/tOAb9tr4DXZ7b3b2f2pZ5m3xhk1liiyT4Jip4DFExqVKOpv43LNhs9TwDWN+vTxuySbmYjunswARY6LJXeslsCscLslWVmK7bp+x4P/OU9zLLSjmu/3yPxNxIHHGtrqgT60GSzV6XJ+w+ZfVPaOaq398P1q4n9lxWY/W2B2XhZAWK2R//D7Jp+3pdHurjE754DNVoCHbvU7FlpcnOZ6esE1E1neJABb7f8czjqr4DsxgF+nwYSS0z+G3olqvPhOBZ6e42Y7p0C8s/zzYie+7U1+8Ul3i9vVMQ9K8dswiqdnBD/4TCz8zJOPNHztS1NkfjHG82yC81aNvFa3URnX501OHGmU3dLNUbz38eU+flmq5Q+QSPlY1OTzBrKR8/V9kc+FICbzOYJxJvHmf38fbMiBWJVKb2Z2b3nm/VsZUZatkQmfe/BqqMS38NxoEaAHvuJ2T755UEdzC5W8AVheveWmR1S4AV4rQXkwcNmzy02G/5Xs+cX+nEEZlCqtPiG/mYZLc02K1AbL/MdSiD86MTfqhw46UAfEMBLlSuTEn1FvhnAAhLWliTzO7iTTPi3zX58oVmyfDg59U8+kPY/5017sTQcE80L80/6hUYfkGAkKDoOnHSgC0t9xQuABnc80acCNgUUKmI/kI9+7w4VRzI1ToKxYqv89kT5cEXcQZmUeUjDSlRFSwAdHciMOulAbxcgZdI8NLeVzHOkYkemTPM/b1ZkfasCMPnyIglKgXLoo+UmnHkayb8fPHIc/Ogv99QdedKBBhS0E60FHDQ4Em0TuJRId8mHH9EOTjg0B8R3tJuvzJug6Dgg/Ti5RFrUWOaWCJlqV/tkASTwT6By0F5W4PbwVOXWAhkgh2X6qlkAKsUWArgWjaMTmhOOc4puOOlAd2ihSDlVwZMCspk5Zme096lVBb+lnWjpks1mD00x+0RBFoSJ/u45CuC0oNExxftltuOXAb2ztlEbT1B0HDjpQHMaQzN85D1etWsi756tPXAARtr1wVqz1z71mnpM2jo00+yXl/riCmYa043Zp4JGRE4qRhGFCD1B0XHgpPtoTuP2gapmKbBi5eqt5ceDqLYy4+TFVM7Q1PbNlR/fpoWMr3mQ2TcI3siZ/zDbF16wEghMSqVUjbEJCs+BGtHoLBVE0OrZeWYf5QssrUZ1kTkfnmXWVStRc3KlnTLDX+4d2hzjl/O1pPmm0qzD0uwhnbw7YAkzQdFxQEaRKtXJXyJYsMns+hc9kID8kEzzwA5m1KsD8xzqlKmMvSmz/ndVzD5VXn1VH82jChlCkqDoOFCjq1dUv/7+VW/CWV/+/Wy/CoXZdtIW5pyfUyn0haXeZLeS+afj5ILMMIMTm8NyoMY0OjiDV5eZ/Xa6T7dIkXqnm13a3Wso5hti0YJVLTpRNmz3/jtLvvy/R5j10nh6yhIUPQfQ6BoHmsh5bYnZ03N8ylWq/Jroe6/8MO+0CmGuSbn4TpsR5vomrUn3b6ttCb8cPcLlI2sFaI5NRJCn4IrAjAbBHGntGoFP2QyQyxRwoe0Xd/XRNb6cvDlB/xoHag3o4HQPCdA90ugCVcxuHaf0S+DfoLTpR8N9kYQFDGrc4bSYIA4f79a7i81K9ZletO6K8smz2yl9wyp8XtqjqhxRPoJICzKRPuvhZ7QzO6ujtzqfd87aHA/QMpS1RzQf0NKbpBSLVAlN3y6weqigElAokNF6CicvLDH741wJi4DB5IMptfV6mquDQKa3jN40zH+oeYJjVH6nQvfOKrMXFQAG9Xl+R6jc2rnO7ekvKy2UMFVecq08Ryx+FktihxrqbOg2yVNhpTpaXWT2m2lm/1DKRcUMgSEiJyen6kbKhkby+wPv+tZhgKqOqMUv0rEfnaEu1fk+AGyrAg61edwGwkJEQ9HnqhfM3pUwbC2tbsbY+k0siR2CkRRHHptp9swor+VVz46WJNanx6vChpZerUDtPwf76L2JTD13fVBF+9vHZuTuM3N9KvfV/mZnK8ULR/m7tB4+0S+80Nd2y5neVFObx9pwk8FHeWb/o3MjmHxytsy6jvO9oeFmjK3tuoTYIeHsFjMmSVumrvPnVbWU85rSM1qTGklEf3KRTPdVZmcqWANkiDSMBocnrjC742yfxv1jidniAv97qL8oO61JhXuUvskiXC+Tf9tZKuhonqD6Rgn3ClXu3rndCxUCyQLMStUE4qEBIqaAhuHUtg/pw30TVBfXIsgO+WLAxvTyTr8YPvr0dr5w4hPE4/Dhu1kpIxcn576yp4/gC7VfOFOLq8DMA96tAvjOIT6IQ/AC4viL5b9J+8be5AO+7K1m//uRjxeCcbH6HlNAA+DNA7Sg0cZr4n1vy4x/6Jc36VRZVuhNaLc0s28NNmsjH1qZhIHNyzf7znizn74vYKWhd5/vFz9oE55WbiUq78Nn+sQRKAK4dBVjAi0OxpEdPCCzPmKMf8d3E4XT3EjvGh00sU4x5aMBOlMgYpKve9HXtl9fbjZlva+G0fy/ptibVHJrAPi/Bb59+NrT/Zr2YzMUfJVqjHxr+xZeGND61dqPpVB6zSCEAiJKB2gaJIZ3NWNFbY3iAGKAr2hOgrun5I+5NQj3wJwQwrZOc5IeRgr0/B61+zemgIYVh6QdLD9OuF0mUinOG2I4ETTMJ6cmxcEMAdDktVq3nuqj4Q9z/Lo2TKfR4Y7BCr7kY8mDMcF0jnIDwHy93IYAaf2Iu2gjDSXvJmJfLpP8u1m+15y5Xl/hizjX9jV7cLj2FyEYyTpPOmHigWIO6IBpFEvuFFgXScvQYlauFgikFQI88NkASVl0oXwnGggRJf9mhDSu1fHcmfFN6vuGBQoqCEOwzk2uTPSMNaE8S3EEQcOMfyJzz9wIF2XY0V/RfkiZiNItPj1eKGaBDhgIYOTH53bxL1a9yHnXCvzebaTxt+nerLFa087zJpwCCTfQY64x7cHdHD3T/a233O1RlX45WenYQj8Hd3dS/RpzrW9tQsCGZSi6H3UcZMmJW2yhQ7Wp3EnVgLDq/LHwvVw+Y+FUwp8DjGRli6VOgiCKFkTJBGiY2jHXmf3qMpnYW8yu7Xec8VgCmg33STC4x/pyReChCP+OK1gpa0EfOi1K5Nz3nufjhWelyQAaUKnMNWVbzotyK4WeWKeY1+iAgUTCvFrLN2I2p2+Qhvby2k4P2T0CpTJhnhfJ7I6RplIipdmBwCoUYe5pQqQQM2m1qmAN1e0iUz1Kr1D0c1kA4gYKK98e4k19qHGxtC1ugA6YdpUAwZ8SBbOuva7E7C4xmxIlRHC0R772eWk8RReEA4EgZQtHUkxXCZu63mxWrs+L0VYie/rTAsJdcEyCwOby47iOC7J8zBCMidX3uAP6nM5+sYGK1LrtvhTJ4sZ58uHc2cFqFppMgEXghRbTthRpmZOnKNx/gZ7IIFNPweV7E+Srpemke9TSAZntLKHyYE3y+C/19LDGg4+OO6BhLZr2tIIjbqx/OdtXvNw91vqNdmHSJ3z5SAFx+yCzTtJKfHB1RNfK7Wd5YXlzuayBtHvuRqVjEpqAiNCJ1n863K+TV9b2YEysvscl0KRe3KP1Xxf7evb7a3x+jC9GM3k2ChrO58+7lIiZHyKrQacqNxxgHVghw8fzZCSeoUJMQMoWTxSXQMNgzCWmmhfABkTOS7NBkCcH26N9x6dT4qS8OkzAhmtciAdzXfma4xboyhdR+fO/K9WRrIQFufLx4uVzTACN9gUVp8/DuKDCxfrzekXfBGJUwDCz1Kwx8f+KZjMvkT3zUnAJqmVoOYFZPFKtAw0QtAGlqiCC32ORIBIBBCtGdKPQ9z0715cp2Z+mQuajwoU/Jf0hEIsWcNIzUjZWwWg2IGdnBQRTTSFlkAop3HXCnPEEeq0DHfg6NJBoObsgEsy+WDFxtdlLSqt4lihrxIDP46noOmEhg+aExUqHlm1VwKbImwfkVEdoMMEcOTI3GNBMAJjM7YDWO/drk5vPzfPLqQSECFU8UMycJk38VKbQUtaRHfAhOIh5htH0hVPLJj+mk+S8DFWopM0Av175NV0llECfX+SDq2GZflUrxJRuE/O+vsynamgqq1bUvDtpfoRnh4SH9XAWOcilifSJzqnBxwNJBzCZtZ8s7BQjh/3Vd5B8Z4ia9EaGZh+5M3d7AChly4cvO14V89fitZD0CK1+aamvRXMbLu1B4YjGQO4MoXbunj3ay5v7wOIE+9GDjhAhZIyjUtdYghGtawjmqcl32n0lq7FBqU390wG5AZ4GAbQWwnJCgShSEeNhsRRBvi7ggtKnH+V9KSkSrUb4aerRpFw8ByVYyQrGBu8sN07b4PNl+sFZGkWLq4LMeHJzVsgoyGzZbe7WoXhYrowZoGEi68+01wIIbUQ05rNGDOEzWbXCxLJsiblupyi4OsL0PnihXwhZLgGhABKKWIqkK4WSKQ0FkZ6kgDlnNY3+NASPgkqsU0wBTVr0zFXeFKKB14/1y4z4RgIsOkSKBQjaxIPp6PBAAGjuI5iCEBK6UXjnUZKsQ6OdGxRJU+WCGEtEzYsnLnyq+QmqaA8KbvTzI0P/xUwjELQW7dX+BIKxTrq82CJSl1dv0fLfmz4w+vU0s75t/OIEUe9mCQD5LO23BE08YZDI+uYz/Q3yaNgr2WZf03dWlwCFQIQ0KegXo0WJ/nAn5foRoOhH44kLuI5oiMCP5cxEK1E03AozhkV/wH58htqHpIVEzzQFABpBEMgFWkR0nr/bR9xM10wAtNG2pgKhonyp8ewbfA+030lApXM4LMDLDUOlraE/cvzgHEKPiK2tUcpvzZ80fnj0Nb5Rb8YG7195GnCRTDjFEqLuzjL1V/b2680ACfVo5denAbpCMLQdU9tR4yFWqbAOBHhE2TxEh4ZAImp6waOhEpl98m7cQjxQzJ8mUfPd58lEf1XR+K26S7KLom6BzB0btBJBAch8JuKmOsY7wjAjxwsGd2CwLwQ4LIawNEnUzp0dLEFukmVwlTA/LOxfxtJVSjEFFxJYirA7xMAPMQ90wCOCJSJyNJN+LdqASW+qI4Iv7pXiDg3u0KTAEYpoQCRoQzjQatqEqqM5eT76Z5XrXM0Z3A5U3T61/VvcAB0w6oJMX43C9NLWU7VkGnR+vprttZ62okyZbCL6cuseTFXxjoZfqHl5RzhwFWhs1bRJCuyeifbOSv87QA/o4LOEisli9IO79liojEXLH4Ck++PhKT6KphhyUZYvcqDtAES6RAGE+6/oz/7dSF84wcyGI/JzbtnhTknMNz7+LIHYUnOi6aRizEuXKFUcXAp5OhlBrBOVsbgDGqbCdBYenpzlc2t8dBABo5X4UK6MCtedZ3uTDXDVEfuz39w8f5ck/pp50WJI0zriOw/YoROFfL5yfFA+JObe4hZoOAko3FkJMNSziZpZbOie5n05TxY8p4s3216co+M/5poqGfk4y5UEfggBa9toL82JuAG2xQPIXHVcA10ZNphOvZlGfTSa6hbm9vMAXHk+PqO5CBM5N/OzcMHc8Uh1Buh4ZH5NnjNAx6mM1iSb6saxEkDXDRwjXkUC6IgsqhsDEkDXDRwjXkUC6IgsqhsDEkDXDRwjXkUC6IgsqhsDEkDXDRwjXkUC6IgsqhsDEkDXDRwjXsW/pZXoyJEj3ARg9fVf1KnaFvGgX3QAxzrKQ8d0rPr/yt15X/QE4nD/ajX6qBi6b/9+W75ytc2cM8+WLluuQr8YXIXW5+TZ7HkL7MCBA7rzUMs/VajqjSDMm5u/yTYXFFogJOxSVFyil1o8IlDp3r22Zt0G27ylwAMeYXy4n7mWvI2brHh75GNWnYNrOnTokO3ff0CLHiyBnEhlZQft+Zde0THUzVDLVC3Qubn5NuHdyfbWxA9s7vxFNu61t+yxJ/90wilv3VZkq9eut7KDh05g/PSZc+yRJ/74GQE5KmF4f8p0mzV3vt+nnFH/fHW8vTPpgxPmr7ph7959lqNzKyjc5ixJ1d+j/V64dZs98LNf2+O/f/YzAhfN/oCMsE2fNcf27StvXquyI1ZntcbsLd1b5Zea/xrSdLslOoGxdkOurVi1xr7+tRusW1aGOzu0G61tIDMN7ZcWn9Gvj/Xv19uSk5trjfY0x/zAhJfqIgu3bnXbGY+U15O5RROaNG6ssbIQ5QoB3uUfGeoIZjGe9wNlZdaooe8gqKfF4MaNGjlXEYwJ9on2fcknn1qPblmWm7dRgKy3Xt27OfcT7A+YDXU8NL+qi+C6imV9Cgq22p49peJHA2vQgJfnC3MkJTWxR375k2C6incsAJYMHkCNGjV0vKgYUOnDzp27LKlpkjXU3PABOqL10/paM+Ud4nMkCgk0Grdp8xadyH7Lyuhs7dqqpaKc+vVRa0UlmjR5mtOs5ObN7ZpRI3XCTcSYI5abu9GeGT3GCcVeSfz3f/yQ2+vG66+2IYPOdJ8dsFrsPSqw66uHIxAOfgSEV9582370/butZWqKlWzfYc+PfcW+PHKEpaa00EUe0zkW2IT3Jjvtbp2WZt+7+07r1L5d1AvRH328yEZedpGNf+d9m/PRAuuWmemARnAOHT5sk6fNtInvTXXCnJKcbHfdcYtx/S+MfVXr1Efd8feU7pEAHnQC06dXd+vcSf1FotF/e8FWrlnjPt/zrW9Yrx7d3GdM/pYthTZDrrCouNiOCqw26a3txuuullB5OB5/erQUK1NWdIG1atnSMrp0siFnD7TuXTOdEi1bsdJeeuVNKyoqlrA31vYMu+eub1pTCUQ4Cg20LgJzzMV27NBe2hheYgYPPNM+nDXX+dyygwclnY2c9GVldbGHf3a/TZk+0+bIf//0gfvcORCwoba8r9uQY/94+XW3oJ/SIsU25OXbgNP7uHH7JO2bNhc6v6/2fJnH/bY0e4UNPWewAxowFmcvsxEXX2inf7e3/f3FcfbI43+0Xzz4A2vfLnIjV1FRieXLd/bq0d3OHVJs8+YvdALKwYkVFi7JdoDcf99d1k7zLV+5RvGK18BRV14uJpcIyHWWp1hj6LmDrW2b1taihRrUyumGa660nTuH2WN/eNYOlO/HTygPx/144RK7SeAePnLY1qzdYC+/Nt5uu/l6tzcupaRkh/3w3ruc1Rj3+lvWulWaAxq3NXfeQuvft7ddd9UVLoZaJ8sbiUICjfncf6BM5vKYNWnS2JmGVbqoSZOnu883XDPK2rf1zOzcqYOlp7dygVWgkYDIC0lt3qyZNLWepbdu5bZxQod4hK+IuVu1THHm7ph6NKsN2BXMa4Tbjz/1ZSKHDBpog88a4MzrTbIU997/M1mCZQL60opx4T7MVHzQrFlTB9DQcwaJ8Yv16KpjTmNg9NvvfmA/uOdb1l2mHTpHGhVQakqKJcntbN+x03bt3G1dM7t8BmTGAQymO3Bxwb6bt2w1gskrR15mvWUBcA1t0tPt0SefcVqNGddZ2GWXXGAdZZ3SUlPdXJhtXCZuhPcUCRXnzwveRqKQQMNOfCH+9pACLExs06QkS2uZau++P9Uuv3i4AEp12ssBnAmu5kjH4Tk+CB/VRWZu1BWXC/Am7lhbxISqEfrxPfhUyYProCkpyRV+q4VMK4zdtXvPZ3cJ8Q1LtXhptjv+JkXuaBkWpUBWrEO7tk4Qd+3a7SxTiN3dJncmXLiDJdyoE7fvlqnH8mGa4TEC26RJI+evEYC0RqlOoOG3IzGvvvwzSkSc0FzA9urW1cZPfM/eeW+KZXXpLKG4sMIdnnhEvyWkTUZ6kBICgK3yA5iXLp07yj9e5rQQiavE8nBzV2wPNxZQ3UuaBFUG2Wu3P07I/cWAg04I/a8ETof1VBk0IhLtkCZyXYVbi+ypZ/5ifxnzonxdA1sgc1pcUuKYSlAVSkAr5tZhOXLIc6sYdOIHeApgpKK4H7SE68YCEswFFOrYDmyNu3j4UPvTE7+1hx78obOmz/x5jHMhwb6h3o/PXOlXgAZYbH/2ilW2U9LdrGnTCu1hKBEvxMnyOoZJEaMPS1uIQINIMEmSiRvA3HAxaHI0lNy8mZhxUFF6mdKTUtstTSXIC3JWzOx6nd+5gwc5Bq1dn+Mi+kwFLpEIH1mvXn176tGHKpi7YtVa++tzL7qgKkXBXu9ePW2TgqZuCoACQhOD6+ZasAxFysE5x8NHxB9JZxAZs4//LIejDMHxSICmt27tTP48uQr8OvNs1nE6tG9rLZS1hKZA4BW4KnhjLgQat/nNW2+0BYuW2s7duy0j9M5ua0igkRwuKENgE32Pn/CeJcm84ruQyJbyG1D28pW2bVuxrV2XI7+z32bNmW8AlKlIPYgyBw443V4bP9F+/bvfO5990QXnW9/ePdz8nKzz6+XiS/TNRUA9u3fV+FY2c/Y8F0UDNCae4+PzT5MwFisSf/wPo62rAr+pM2bL712qNK+v27+6P4vlx0/v27MCZMYmJzdTmrTHFUG6iIG33XStjXtjgn0sJvJ9ma516HmD7UsjLnFTN5AFQBPz8jbZZAWcpJ9ZGV0EXroLZN+YMElu77BcyW6bMGmKbVPwBrAEtwRty1estjT5+lJlJIWqB3zjlhsrTpm0KRBo4hIiayJyFIm07sNZH9kWFZvgzycqYjVXxpPZuXoBdyzWCYe0QGinr0LluFA+VWnO2QMHWOPGXpt3KMfbkJPvtFjcd1rtAqy0lk7agjMn+NpcUCANLXP7ZuikKHg0FNAEHEg+gFMAIT+GWRBR7vwFi1x+TlBC8EPg01TWBQYSnpUdLLNln660nj27WY+uWc6UhjJ7bsLyPznKm0nRSNsCIqqnZoCQEkjBkvxNmx0IxSXbLUvH7dOrhxfM8p0QPrITLB7gEXwyJ9eZm7/R2XUEklpBaek+a906zdKZW//Yj/SwviwL23v37B6cilFpZC6UBgtInp+sGIRxpL5E+tuUGWyXoLdXTHHmGf0+Y0kqJir/IN6Ku6JwQFfdoTa+w3B/lpHgq42z+2LHDPSrHIYvNlk1e4NzSNNdzT41/tPJZkKNX1ClA9bktYWMuiudS+JjHeFAAug6AmSky0gAHYlDdeT3BNB1BMhIl5EAOhKH6sjv/w9SyIkJJDN03QAAAABJRU5ErkJggg==;" vertex="1" parent="1">
          <mxGeometry x="475.12" y="210.67" width="59.76" height="48" as="geometry" />
        </mxCell>
        <mxCell id="Dnd6SaUCVXXJT1RzdSpy-52" value="" style="rounded=0;whiteSpace=wrap;html=1;dashed=1;dashPattern=1 1;" vertex="1" parent="1">
          <mxGeometry x="560" y="190.67" width="90" height="70" as="geometry" />
        </mxCell>
        <mxCell id="Dnd6SaUCVXXJT1RzdSpy-53" value="Logging" style="text;html=1;strokeColor=none;fillColor=none;align=center;verticalAlign=middle;whiteSpace=wrap;rounded=0;" vertex="1" parent="1">
          <mxGeometry x="560" y="190.67" width="90" height="20" as="geometry" />
        </mxCell>
        <mxCell id="Dnd6SaUCVXXJT1RzdSpy-54" value="" style="shape=image;verticalLabelPosition=bottom;labelBackgroundColor=default;verticalAlign=top;aspect=fixed;imageAspect=0;image=data:image/png,iVBORw0KGgoAAAANSUhEUgAAAK4AAAA6CAYAAAAp+2K7AAAAAXNSR0IArs4c6QAAAIRlWElmTU0AKgAAAAgABQESAAMAAAABAAEAAAEaAAUAAAABAAAASgEbAAUAAAABAAAAUgEoAAMAAAABAAIAAIdpAAQAAAABAAAAWgAAAAAAAACQAAAAAQAAAJAAAAABAAOgAQADAAAAAQABAACgAgAEAAAAAQAAAK6gAwAEAAAAAQAAADoAAAAAb0Y/OwAAAAlwSFlzAAAWJQAAFiUBSVIk8AAAIV9JREFUeAHtXAmYVMW1Pt093bPvwDDAwMywgwiICsgiqKBgVOBh1MTvGX1qTPKiT+U9t8Q9+sXEqIlGjZ8aP2PcvrjGLe4gKors+86wzcLse/dM9/v/U327b89048giELrg9r23llOnTv116tSpuiMSD3EJHIUScAQQjkK+4ywfwxJwIDiP4fbHm34USyAO3KO4845l1hOiNv5brIeAI1xKH2ls2OLCqft48ncsYxHYl+WCPFa2fZCOJ/37SyAqcBvX7pLmjWXiaGoP4gRgcjgEBrEEcCe0CF5iyBHEWWOiiXcCkEyz0iUI0AAy2tPSfMxEQkEClqz5innA0Y66nKQZEL/LgUsk4+T+kpSfLQ5XfKKwxHWs3qMC17ehTNreXS3uKq/BFU1hAMoP8DmASAtqgJRBGX5TgrGeJqYS4MhLaCuCmY+BdEyaLxlIVOhb1AyQA068E8x4dTIv3gNZSRIYXygOHQRIiIdjXgJRgeuCtvN4/eJubQMEncARwQXAWOqVYGQgkkK44wO1I7WhyatJ+oO4UF6miSR425GdeZndIsIXQ4d31uLN8IgU5UruzNHiykoWB7RwPMQlEBW4iiyFTVC7KrAscBF41jMFaD1bd0RFpPPd0rhWWjBvKB/fLUDy2aR7XQFxDcuXtLNHiSMnFWjHILLlxGM8HKMSiAFcSMNgJ4pYOiSEwBfMagcpidjTI9KY306Lz9Zl0hIG54tnwkBxD+spAsuC0LbgzRzxcOxKIDZwD6NM/B6ntGQkSMYPjhP3yAI1jcMgj0P3MHbNEVP1EQfcAG3kXlmSPmuUeIb2EmcqbNwIzXzEyC7OyGGUwBEFXPgPxJ+fKc6xRZIyaQA0LbQr3G9xA+EwIuQIrTq4rD/c3NG2bZe2XI+4TimS5NOGqA+XBi1N5LhxcLj758ir/4gALv3DrU6fJEwZJIkT+ktCj3QbWuk7PvIEF+fo8ErgsJsKfmxitGODoX1IgSSdMkjcvbEzpsNJty9UOkcHbsmlxekRoQ8OL7IOce2HDbjsYnqJ290AaHGuZF8ySdxZKeJI4I6acSRYMLDumnCQfripEjrRiQpoX+O0nDid3w107e1+lDHGjHXYLkSX2+TgV/dvcFdz/SDxf6yTOWzAZY+2udrFPaqveE4bJu78jJAtqzAAmAwc2ONhXXagHUZQEaC33/EbWfzNUvH52sXf5pNJk8bLWWdOk7HjxsasotXbKlf9/GpZtmyFeBISdXR165YrU0+dLDPOmi7DhsE2B9+333Gn5mn1+cTr9cr5c+bImWeeIf37Fyvtjz7+VN58621ZsXyluDC95ORky4wZZ8oll1wcs+54QqQEDg9wAUQ/dsXaoWkTJw+UxJMLVfvxAE8IrBafnSKshAO719c1SWVlnXjbsCj0eaWxqVUampr2SfS+3z0kS5etkgRXIvh1SQDaNi0lTaadcboMHjRQQUvNXdfQKFU1ddLa6sPAIO0maUM9VvAC0I0NzVJb2ygJDre43a3Sgu31eOi6BL7bvNh1ujFzctp3+AHanGRJOXu0eEYUSABbuZxHiVHrCj+YODJ6cDEMatB2PPvgwtXu94vLFXscP/LwY/LC8y9i1zkBfDilzd8myUke+eUvr5Li4n6S4LbKsh0uc+EsBg8ldRyO+q52g1P8yOP3gxcKJh66LAFL2l0ucKAZHQG/NLv8kjJzpCQf11uc2TxXxn/2cHAhaqdsPVO7cyioxwLgAVudAGbl/eSTBfLXZ5+XpJR0jC9oWmbGovK3990j48eO0dmCeZUk7gkYiB5PAgDpRxzOW8But+xg5jMoNS2mnX/oW2tq/Xf6/V6B60JHNre3iP+CsZI8fZg4E6mZ2IHWZcBk3g9+d9prMbAJg8bU1rnOVavWyHXzbsBZiURoZ56UA2Shbe+++1YFLcFAm9kKfJoJe/eE0SOlHafs2trb1fbNzc21soTvADUHclzdhkXS1afowMW8HMDhbU6j2iXoLB4id2BKa2caqIe7at9VWScgWarJ3SaO2SdI/o/HGxqKHgs8NAZIt6uU911vtFQ7ZaNpwzEJbjfs0Eg7s7S0TK6+Zh5IuWBOGBk0NDXKlZf/BIuxaUE5qD9CubYAPGXKZAW4kZKRlg3b2kqTxmGrhBFnO0EXjfkDjCMXKm7c2epwyw+Q8GEqHhW4q72Vsrp5k0hTM2w6l6S7PJLjTpHsRFx+t6T4nZKgUyu4DiPTnBm3pNOhQX6vT+SkPpJ90XhNUU2r6KEIYQt2yH/oXzlggsyCD4LW5TKuONbd3Nws111/o9Q31Ivb41ZzIIAZ4+ILfyj/c83PguwZsHUcbARwGKjRWhasFzflQl+DcTEaztRolGJk32f0ftMKFtzv8vvk6rslRgXuxuYKebN6rdTU1kKy0AnoBRdsuwRHgmQ5E6XQkylDk3NlYGo36eVPkTSA2QVtrB8vdKjfgc72O9qlYXRPKbj5HBGYByZYzbd3hxXXgcgheLVqte6Wm4xV+XxtcvW1/ysr162VZAxWBq+3RUYMHy7XXvcLfTc/LE2eo4cwzWjtYhz1LT+PCqe3w3TYsnmbbN6yVSrKKyQzK1PdaIX9+kpqSnL0ijrEWvU2wruxrWSn7NpTijb5JC01TYoK+0ifPn32OQpY3qJB0tZMwgXsntJS2bBps+zetRselVQp7NdPBg0eKMnJMKXCo7UDR+FXyraqqlrWb9gopWXlkGurJHsSZRC8MgV9+0gW2tuVEBW48GyKDwJtwUWdYgTLLxZ8Uu1rkh3ealnYWCJS5ZT+rmw5PjlPpuT0lwHtqeKAZuUiObSF4PdJc580yb9mhgEthGJTRzYeTUeaCAtOtuTv8fHRx56QxUuWSaI7WWeRNrSJQv3L449oBxlW7PwGY9g2hLvuvFf9uC2treL1tcp/zJkl06eH/bgmN34V9/xxwnXWJtu3l8gfH3lMVq1aK7U1tUim5AOq8YcAHHNB58QTT1C/byyQ1NXVy/IVK+Wxx5+U5ctXYBZxY1PHLD79cN+1tTZLbrducv28X8rs8861DRnD1foNG+Sjjz6RV159Hb5qj/TM6yHj4Nuee/4ceeLJp+Wzzz6X8opKcAYTB0D2JHqkX2E/+cXPr5QhQwZKZkZGqHnWAweBFzL8ctFX8t6778uCBV/CK+M3gwMic2LG4+J14MD+MnXqqTIb7UyCxyYhISo8lWyMFHycCMboqqHgdEJE5WBV372KK8Ti/0p/pazw7pVX6zbKkOQcmZ7VXyYmF0giPoZ0YXRVZ7kl78ZZ4u6Rqit37SytmtTsgUSVsD3yED4H6zJYgxfALSU7dshTT/8NAH1KUtLSwA5k0OaHFsiWRx/+o4KW2c1ANk/ReK6pq5OKymppbgFwsQHR0Ag/LhZp4RBsK8wsypbX8hWrZO26NbIGoG0G4LkLZ1hzSGuLDyBcJStXrJbLfnKxnDHtNCkq6hcc/0aO9GBQI/79hRfk/Q8+lu0l0IjQsAHMlCSka0BkDbiTpKnVKzfdfLvme+gPvxM3ARIUBzVifX2jlJXulaTEJAA/UVasXCdLlt8uG9ZvQloD6gVN5A+Ax2b4qjdt3iK33XG3XP3fV8lU2PfJyeGZgXw1wY/9LLwyH370KQbnToDUzLrBcW4UHfKtWLVOdu0uw7VH5sw5D1p4QFhkHZ6iAtcIDDnJnLbIdFJA7Vm20MTSjFA0I6pBvLK4eY8sbtgtvQMpMqPnUJnco1CKr50lnsLsIGhDlDuwcfhfa+saZNnSVdAKi+D2wmdC6Bx6BZxYpN57z53Su3e+AomtNyH8ZMVQsxBNHOKUkP5jtk5TKPKFROGUOgC9vqEO9eEbP3QgO9YUwWKYNCF31XAg9cJLr4gPg2Du3FmS16OHVbVUVlXJBx9+hOsT2bp1B/h2Y0BgYIAmtRk1tH7sijt369LTs+Srr5fIa6/9U84/f1aIjvKl/cw2uEC3Fhsla2DzNyoeHODNyUEFvlQCoNcGTV6+t1I+W/il9ABPJ44ZHaJXsXevLPpqsbz7rw+ktLQCfAG04CcF4E5JhisUPv0mLHi5K0ke6zAwXn3tTSnGLmNObo50wxUtxAQuv9KlLqDdymDYJKuMQOcgne0LJhv7FhULKO4EjJ8omS/Fl0yR4SN6c0YBU1ZOUjtyAtvA8xG0ufx+7KJxkQa3lw8d48KXGH/4/T0y9qRROkbZ+mBvRWmAJSgS5EVNyBK4FAh8tkIw3hDTOilP+n579+6jgyQzPQNA9svmrdvQ4WXQdPWauxb3LxZ9DYB0l/PnzlaC7QDybmipF19+WaqwG0hgcZOHnpJLr4AHZMYZysNb/3xbnnzqr9jxI3bQUYEEbKq8hEFwnoImkjvwDza9bV7xtaH3AbbCfoWwj3tJSkoS1j91sgm2Lu+oCr5qt6yDDNesXRcCLvnaBvPn7y++KJXVNQB4myQmJUpWboacPmUq6PVVXjeDzsKFnyuwScvr88uqNeukV698mThhnMVWxD0qcJkjEmaWoO2xiMMrU/QHD3xW5zwY/NVdt8hZs85W0GK/QRMD+MMKdDgl6M4SHo6AoLoMHU2NSx3DQzY0j/Qz/DaHNDe0KpfEYlgq+tKJe5UOksJS4ku0vKqLTZoO6IBkpKdiB65QLr74Qhk6dLBkZ2XB7vXKhg2b5I0335KFn38Bu7cOgypBdpTskq+hLWfPOlfHCE2E1NRUOQ1gaGpqwXZykyz6cpHMm3cdbOupyg95+umVlynPDz70MBZ6OBuCdm/FwFizZqMMHz7I1h7ybAwiKq/UtFTp17dAfnzRD9U/nZ6RJjXg5ZlnnpP58xdKBbQtGamqrJHSPWXoc8gv2OxsLLYmTZggTdjibmppkUTYxMOGD5ZTxo2T3JwcgB7S5oV/8z+l/VwF08Utu3bu0sFoYyriMQZw7YxHEzxooEOsplk9pUZ4S7P86KK5Muc8eBBMNu07H6bcf1XskAnZvSQbGk7LxCCtBb+vH/Qop6v8/HzYiD6cX9iLmjkxo3UAxI033CKZjz4oY0/m9EeGOQoZ9sW86Qj+YgR0ymqwSvmRDCEVkCIscAja0aNHShqAQtkmJCThfYQqA5oRb7/1L9icHmnBuQpqYdqWfXr30vzFRYXy0ysu10WQD3Z1zp2/InUNrMfidsrUyfLwI4/r7MIdvhbk3VGyIwK4hiNyZebZ7t27y2WX/qeMOG6o5GRnKc28Ht1k3Mknys4du9Q7QF+3z9smjY3N6kpMgmale3FA//7SD54HLs6aAVxu4qSlJmN2gRcClOixookwaOBA2bhhq5SXV+l7NdYItI1jhRjAtWdnM2yBgtYo/ljiwBMeA4E2Ofe8mXLTTXTam4AZRtqB00e2r5UbNyyW4zzd5dETJ8oYLBysydTKe7juNBGKiwskMzNdPv5kPgTmBWjQJhwEYlt//es7MMX+WQoAEnubY/KrYqF8eEUJCmasqvnVM7ReclKS9C8ugkkyRhJgLhiFYEBDGgP6F2H6PUHefed9gAHyhAnBTt2AqTkXJ8sIdM4U1GYet0d8Ho9qa9qL1ZyiYf6kpqaoNyIlKRmLrmRpx6KTwQGC3FQJBfKug6kd/YOVPWzl3OxsaNrjsdLHiThb4Mk4nmyjSUDzyo8VIJ95qb2PvMoX+PEErxp4S1ZhEVYHE4MzCmeK7t1z9ZQeeVeZQSbNsHnb0S+xQheAy6LaGkND+8LeKRAzGG7D0cDjjx8mv77l/yLqYskPqsrktq1rpd2TLUvgZJv2xTvy+6FjZFb33tIdI++wBzSHh2ROGDNKJk6cgI2HmyFwDy4sZHDwphKj/5abAd4n/4xpDMg54ED5ETj02DgkIzNT8uB2IjCMD4fpkJyaGQEFZl5edx1YdJtxpU6/7B74Z+m1sIfFi7+BO2u+vPH629LY2qSAYjqwpGZGXs883JPE4caGEKtAGoZQmIQ+cqo3fc72J2FgpWNw0AQIcqb5KTM3BxqymvykhxbYyDEjgbwMRzjfe+99Wbx4KRZ79QpyXXCiMA85JcA8aIUXhnTIDzVzRzphJnUpZX+N9mwaYFIsjiLjEpPcEG6mPPynB4KjMty8pfU1ctE3C6UebhWdFmDh1mO43LZlhfgwsmfm5EthknHyR6v90MVZbbFqCOg0eOqkCXLLjdfL/X94EAkEKYQKrcMzuNdee4M89NB9ITBYJTvdgytuI6WgPdsxkybiBy7HJE9yyIXEaEVU6IbupTaFuy41LQULpXokAx7o1Rbs7hHEDHTqfwG79sUXX5HN2MDgtoYHgGM+gsHFrU40uZL2KDwDAbo6sUqD34J/Z6VDoM43F8sSRAx4NMrYMBlik3SJMl2wh8RqMlVWVsGVt1LoG9+5czdAjHyoG+SVnhI2TdAI1sG6wSTyaWrUn04sR82lkSTGq2Pwww47Xm664TpMQdwaDadvhb0756tPpIbuHdREd4y2HK6mCqxo792+Xl4oK5E9rS3hQt/Tk8UmlRovCsJq3YUXzpaTceqrFf5UE+vAajhZHejP/e2lGBwam5XdbaelaNGetRVjx+E8Lytmne04tMMVd2SwuDGxNA9oQ9IlqR1LLYVpnsCiKUB796EHH1XQ0hdL+7wNh+S540fc8fJhM6St3QcaFlKsGiPrUoGQNwqmY4iIohSNJNkSTbIEixTysQbegQcefNh4DFAtXX30nmRkpMPdlS3duuVgdzBdvQ2c4aixlSZ4jKiqAx9dMBXYSIuEdTdUaIOMPH6ITDv9VJk08RSj3iFI6qlSdMRFyxbINpZWxYWOAXp5ABtSxXTglN2tAXmudLe0olP+r3CIuFE2gUPuewrc4eMVEn9w1FHDPXD/b+WKn/5C1q7ZoD5ROvI5tT3w0J8kDavqObN+EJPL0PiMmcPWu7Bz6cOthsY0q3EAICQD5nNIS4sX02sDVvINeCfoacK4JBu2J3eXdmD79ZulK7DpUYt4M/V6fTgMdNWV8qML5qpXgEDmQFy4cJHceuvdUJBGE5PXiEDxgycHtulpRGhQuYSkxAwmXn+tZ5PXbKmYvOXl5bJq9Vop2bkHtjdmXACzZ8/u+NpkopxxxhQpKOitbaWH4o033pIFcIlt3bZd4+h/tijbKgs9QgrfFrQlyGQng21I2DdcGMyZfZ5MBiMUpJ5pQM5K2DQXQtMuqsdZB3S45ZA3NbFRdDkxOGRtc5O8Xlkmz+/ZLuUwyE28Jh7aH1tz7LMEKyUPtDfvvecu2J+pmN582noC1wXf6O/vf0BWo0OiBQKhcxtslYUKMRfAg0FMH+22khLZhk7jgqUjgdLSPdhVW4cdrxbdKqXcaHcWYUHHe2VlpezYsRPR7E6HJKekAByT5WdXXCqp0GzGVnfpQuhE2PHsOwKZ+o35zYUbgzIf1OpMCzXG8KvvobjIslYrzd0BN1kVXFr4c7VGc2Ed4ZGBgwbJ1Th8P3TYUGjaLD2LUVRYICNHHSe9sMlD1x7rcLJMqB7Dmv13v4HbE4uFyy69WJ3N2XCR2A38m9d+I5+hM4TfZakwUQ21CKceRQlyq9bFKhRRGwDee7euky9rq3EWgouNfXBs5/5Anm1VhBRckJ4RvMDVlC9333UnplwsZDArsB+d8KN6sUC6dt5NusvTkQWdXdlMXppoUbPl1ChO+CYHt4PXb9okL7z8D4CwCgMlqOlQpBarb+5Ifbpgodl1Qhm6sTKzMnDOd7DuQPngamqhqyn4t9m4O5WWnqYVcgPJCWbo3mO16zdsMZsZOsJsQrDYU76Z00CDT0EjwOQwEcHcfGEwd1IzF1qGKC4cORBxKFSz6NcmWNy63OZgvV3uJXDJVUBDa604fchZx+LOumtVwZ8umAqRxQi4Pr17YkSPk/POmSFuuGA47fgwUhrRAfevWyV/wfSP5Sbazg7glINWhHvSXr+2tBE0N/m98tzurZKK6eT0XKx8UcSIIzL7wXojbdOpqAdNjFXXKeNPkt/cfSv24u8RZ7tbbTSutHly68rLr5L7fnev7mJR81mhg8QQ3SEGFepCBimsl51UXr4X27UfS2N9Mw6rDILtl6vboFzYLF22XHbt2gOZIDdknYs0fuOWCW8ESbNu2oxmandiA6JR3nn7PXygOV1OnTgW8SYsXrxcbrnlNu0zBQbZitZwxKk+xkAwfDITIdXRPWXaRbuUPc3BoQoKz+QrBafZ0uCG88NN6gy4YaN7ZeuWrfIStq3HwgecmZkhVdXVWLwtlw/R9m3bd6A47UrSDQ9skusYughcq4VwHmNlO3HiOJx4Ole3/sxJMJEKGP7PYrp6oLwEW6VoCO1ZdBCbrD49AndfAfk/rKmQfOxf90pOlePwEWJICPsqd0BpRjiWpgr1otVc0GanzJgxXb7+Zom8+so/4XPFjhP60AOTYTOm9qeeflb+67JL1F7rMiukH+pkp7ihIQmVeuze8QtguowSExNV89bW1WIL1JgPhA7mKP2i4tRTJ6lcKdU8bP8O7F9svDbIRDeSC7PdvHk36gBIhkzrampgI9dqHidOxbNPYukSDg5jq1rzqOk7rksszY1qgwF5NZk/1mWgRxdfUVFfyAslOVjBGD0Lzzzzd/ikP1C/cxPOQOytrMDWcb0uPo2JAPzQZDCEQZcC40UJmNAF4FpZ8YFju1fOmn62TJt2uvSBYW2A6ZRSb5N8VrdL7t6xWlrQoQEnRmbQVgkfzLHoxLrjgAXa/WnNXsmHs/q4omGUX5j3WMX2O546grA0gyuCjHaEieE0Sfv91l/dJHt2l8s3S1YEV/PoRDD48Sef6nG8KVMmSS/svlG8JvCJdZh6jOCDSbhpFQQP5FQ0sL8qhA3r1+vUWlNTjRzoJLqsSBEdaBZsft1ynX7GVOxiQT6MR86e8M2OGjlCBg8egHOyZbp7RYixfNXeGtxxISO3eKnleOa3rr4OUfjXUaGwOpUJdS5ginTOSNFDMEHLBIVmy5uNNdBw7LZx82Tjxs3gy3ztXFldi8Uo1j8IXKb7sGPZPbcbNkXacOCIp8/APbwPnQOJm3rCEO6cKyKGuzMU1tkzp+vWHwcDx2MjXDkfVJbLNctXS5MToNVWkqytBRGUor2AmLqIHLK5uUXeh523urlB6kH7u1CJRjlWnAN2ghM7Y3rhme3hFSu4oKXu++1dOK2UJc2N9QBYC2w4w98br78hX+Gsadh9RnqgTTEozc6Dgz5UwRTqxxnn9LRkeGXG6RfDOTn4o38wl3jRJtQ7pMCzDKNGHS8/u+pymYCDJzyKaHUevSBFxYVy+223IM9wzISJqje0cgCP2rUZX7N0h4nx9DNP6GZCc2MjbPUWmCPNuvi02m3JwUmZoF62wzogZZoT7hEjLqKAbQletoFKvgYPGSw3wFU6dOgg3b3jKCBt3kmXh+OLi4plLhb5J+OssRPmCScgN+xg7sZFBlvdaFT4LZjrqb8+h5NGr+LQBEY+khPQaSNGDMO+/fWSB3cGKyO7HNWvlJbIM7t3yls4VudHjYGEoD/SsiE6UY9kxf6m5jik0duTJLOz8+TnBYUyOBVf1gZHmT3v/j+TIXgzcIqpGtMnpy/a7fyYkVNbDg5+7CvsxaCqQls5vXNKLi0rg4z8esQwr2dPScWiaPVaHgSvU23KKa+gT29N57YrQ3lFhZ41qMWhb2BTbdX8/J6wUzNw6GW78KvipUuXw+4t112zoUMHy/jxY2GinaJTvdG+0bnk8cYlS5bLp/MXYu9/g85aQ4cOkXPOORuab6QW2rxtq/5NCMqV27R5eXkYGLSRRRdu5bDfd+3eDeBgEYV28quEobC7zexBuJqrEeDnFxGlZRUAIaghOhfHEIuLilAO6AhqAiKMZ3x5ZJSbJJs2b8Yhdbf0LSiQMWPGyOmnTcYg8koZ2suL9BMx63Im6duvAO+MYb8ZIKMuYD4qcP8G4L4mPOhAHkdiK/fcH8xE42egOAmAEfjZtkEr/mrdavm4tkoaODpo/OGv02gWC7iau2s/BrhgGrQyILTHh4yU07O7STpW8gc3sA0U/ncPOsyNCCIKax+BJMHMYK+BafbamEY5UvQEj3a6ljLlDAn8AlREA/8Zk0tf8RYrcLvVVGa62FBi7aZOljM9SJomT2da4bxhvu0UTCxjDC2lYJkcIebYtnB589a5LiuGeS1uGRciE4oNxxC3URFhKsR5VACoL46zzTzrTDkNo4I02Ale9M46fER475bVsqi5HqBlTSyFDGyAnQNy0eXAsg6lX47P2L+sLpcBOIU/PDXLkO8ynW/LSF73L2gz91GcGpTNZ5ZY2UyagQJBaw9WOQNUCFZlTnDbc8V6Bhgj8oVfLLqxuQrTDOcNx5kni565myEVzGMlhYpERkS+hTJFPDBPZ+hELxlj0BnzIDU1SS744WwZf8pJkoKjaJZrZFVDrbxcDvOgvloqqTXUkGaVuDrXHMHct78YOnT9LKiukGWooz3on/z2skdGDoo6urgj+esIWnsqgcr0feWx5z/0z1arutKy/efGquXbKEQHLuyynjhqNmf2ubpn3w3PQVjKpqYG+Uf5bnm+bBc+qDQ7YKxMle4BgxaE0FmcVmCiyxocil5WXy8V8P+16Rz9bc2Jpx8rEogK3O7du2ExcDIONl+gPkL+bQU6dXC0QJ7ZtUVer9gtZdhsoEFHO00vpFtmzv4KTweHRQ/3OpokWA2vwjdZdOFYg2d/6cfL/ftIIKqNOw4rWIKRq1wrlMN18k5FqbxZUy7r4UKhM1onRCIaKleV7UGeRfzQvlvhI/6yoUom5/BPGGktpkL8xsOxK4GowO3WrZsCl2IhVOrgGP4cnoObN61U7wEdYUa9QttaYLXuB1WWAT3yuBxnevG9nrhxWS6Wg1pNnNhRJ4GopgJbYS0KfJii38UXDI/iHEE5HMc+uLkc3NFRoAJJvEcDLRdUsRZVcDwbnyBr6hCYpukmvhGDZid2XHbh0HQLzZN4iEsAEogJXELLi92Q+XvL5YU9JbIAGpd/9I57RfiiCBoXW4IAmMEZNbB1Ua4szUBEswrbpWBGOSQZdwp3v80OuFmWBWlqqhN/rQFfj6LG5U3VsHlxSise4hKABKKaCpRMK7RbOf5cz7M7NsoKuL/4TWYKgGsgScOWTxZAcUAEz3wjGENpmhzMS4SrpmYOv+CUKPIxWOkoBzVuStOvQComzYnPPdbjbO/oNHxhikNn8RCXQEzgtuHrhjosyE7KxhZeeiaAhD9UHNSyBpgW0HAHKD3WF5n8wiEIOxUvAauQNsC1lLxPPeU8RUZwMhh6zG1AizvS+J6OY4QDktNwdzNjPMQlAMjRfRAlMDKoC4Oa1IKrPTshZkICQG1COC4YgZtVJpzG4+IMZrHFdJNmPZm7+WUKn6whgcd4OIYlgPVX9LMKx7BM4k0/CiRA3FqG5lHAbpzFuATCEogDNyyL+NNRJIH/B5UA/mgi98azAAAAAElFTkSuQmCC;" vertex="1" parent="1">
          <mxGeometry x="563" y="217.98" width="84" height="28" as="geometry" />
        </mxCell>
        <mxCell id="Dnd6SaUCVXXJT1RzdSpy-55" value="" style="rounded=0;whiteSpace=wrap;html=1;dashed=1;dashPattern=1 1;" vertex="1" parent="1">
          <mxGeometry x="660" y="190.67" width="90" height="70" as="geometry" />
        </mxCell>
        <mxCell id="Dnd6SaUCVXXJT1RzdSpy-56" value="Monitoring" style="text;html=1;strokeColor=none;fillColor=none;align=center;verticalAlign=middle;whiteSpace=wrap;rounded=0;" vertex="1" parent="1">
          <mxGeometry x="660" y="190.67" width="90" height="20" as="geometry" />
        </mxCell>
        <mxCell id="Dnd6SaUCVXXJT1RzdSpy-58" value="" style="shape=image;verticalLabelPosition=bottom;labelBackgroundColor=default;verticalAlign=top;aspect=fixed;imageAspect=0;image=data:image/png,iVBORw0KGgoAAAANSUhEUgAAAFoAAABaCAYAAAA4qEECAAAAAXNSR0IArs4c6QAAAIRlWElmTU0AKgAAAAgABQESAAMAAAABAAEAAAEaAAUAAAABAAAASgEbAAUAAAABAAAAUgEoAAMAAAABAAIAAIdpAAQAAAABAAAAWgAAAAAAAACQAAAAAQAAAJAAAAABAAOgAQADAAAAAQABAACgAgAEAAAAAQAAAFqgAwAEAAAAAQAAAFoAAAAAW0RqIgAAAAlwSFlzAAAWJQAAFiUBSVIk8AAAEwdJREFUeAHtWwl0Fed1/oSQEJJAgBYEYouQAAFmC5vYDDEcwCcNcZ2YGkIToEtIOfVJ3JzQ1MeNa/ekbeyUpK1P0+M9LCa4aWwKphQwktnMZhbZYBaBJEBoQSxa0drvm9FIw+M9LY8386B595zRzJv51+/e/7v3/jMCQuIKAmHqpYniSm+/p52EUbr8ns7d9WmHgHYJ8hDQIaBdQsClbkIWHQLaJQRc6iZk0SGgXULApW5CFh0C2iUEXOrm4bXoxgagusIlmO6/m67330QQWqi8Caz7e6CyDPj6M0DqmCAMonNdPnxA36kCXvwGcHY/IKu+eh5Y+U/AiMlAmLFH1jkEXCr9cO3eNTYCa+YCOR8B4c0IEWuMmgV8/3Wgf5pLsHWum4dv927TPwKfZ7eCrPkK8FO8t/014E515xBwsfTD4wwvfQ58tI70IBP2kAj+3vkOcPksUF/LHz621+vrqAxSj1HGow2Hfz74HK13EhU3CPIG4OYV33DcKgQ2vQSMnAn0HQwk8eiXCkTFAEV5QMEZni8xUrkNDMgApi3y3ZYDTx5sjhZAx3YApw8AJ3cDZQU0VvK0L7GMPS4BSBkGDP0y0CsJOHeEzvMwFUVlNFJxI2YAP34XSEjx1VJA74ujg2PRN4sYLeQSOE68lrzaLRro05/gpAE944G6O8BWcu7B/6IlngJul+h9G2mjnflbDrKiFDjD49whcjh5Re2BClJ9lblxmcATfJeA1qjdA7quBji6E8jeDOQRvKpbQAPvKZLowtmHdwNiCfKwSWbIdvEo42RShgCStAeyWar1r8o31ptH613zqqYcuHbR866jv90DupjL/ndrgc8+4oSawfOcWmkukE+Atbx9OTR7HRVTU1ZzAlfuXee2FCPlNlg8w7IuiHtAazJNnJw4tj0QfE6cFcNo/WK83qSawaPMI2Eg1yZXxJ1KoPgC6eY8V81JoLzY7FOJjV0iItEU07PNYdiLB+LaPaA5OXT1szuB24O0kpwGTFgATFoIDBkNREb5xqCa9HD+GHl+i+lIrxF83ZOSbxUjbOebZuo+bKJJXb5bCsgTw7Zc+a6jgvsTa1cCn9DBdYQWrOlFxpC3pwCzlwKZDMnkLDsrV84Cu9cDB+RcP2Ntrqomcszkr5npuzJKB9N3dzPDmDggcbC5xDsKVHfWmbMMWPVvwPwV/oGsvhTqLXsBWP0rYCYVFsEoJ4xgH90G7FpHx8zY2mGR63BHZDGp4xlZ9OlYf+Gkmq8sB5Y8Dwwa0bE67ZUamUkLZhr/te8zpOxhZog7XifFfEoLl2d1TtwDWnN4ZCbjZSYJIiz1bJ11bT9obPgyl/VTP2L5fvwRQIlP5tbqXwJPPAtEE2xlm9to6Q11Aezk3qbcBTp5CDD2K3RijBDUM33cXQBbYMf04jL/V4JMUAIu1G6vRFr1aq6YP6ZlM6E58j73Sb4IeE/2BmVT7n7kWHYVeJbOrYJnb9JAc36WSc107jl3RPQS4FQWI4s9wPUC1uCURE+KSsbMAQaSdrr4iHaK84FffpspPus/9j3ge1SuAyJnyFG5DLQ6fPcnwG9foFPSD5uIJgdPBX56wHbTy6Xi4qILQBYd2Udvmim1tRpUXO2IfhRvDx5Hy/0TUhFDwvgBvKeCNtlHpa77AVBzB3i9kErRMgusuBt1WGNvYFqs9JrsYVCH5tVyEIT5f2aV9H5WwpOzC3iVy37Li4wYLnOHjkXpO40NBWJrKFDtR7Kvq0eAX9NaX10GnPjQ3CbloxaZsogvDmj51SXAJcbdDomHeh3qxd6sqOMqJyRrFijWIbCV4WlnrS05sZ2Wt4Lx8CemslRfsxDvd4/lmYjrt9qzQI+kcnKzgX9fwnCOjk/7LJZ0Zfl5fw7EUFsXDlt3A37WUNyVAoVSFSYI9p611IdPbzv8yz8O/IbLvIqRgiw4jNrqP4b1aJGJqQSe8XEN2y48TdD2AldOsRAbNghSl7cZYZCyGkkTCxjiKW2XpNFnpE9j+ZPmbwf+ug90ITOzLrWmxdknJF7V/nG3GPvd1mtRzq5fMhw7ZyqpG5OZzJU8SAkJQ0gfDNXEr+LvKjrIkovAcUYT+1+j473W2o7A3k+rjufqyVxq3g8nDLO+w6x1Y2u5AF+5C7T4tfQ8LYyg2XsWyNoHSfwSFeDpIZtnnE+6ydvH5zJ9AjqLy/3xvzEBbjFZPhLY2m6N6UNrZ8SRPJR7289TQQXNls3OyvOBQ28CX5rA5xlmB4/QWR7/z+bOAn8Sm7kjSgzepgWd2GACTTxanKBAV+wcQ4B8ef1ze0gLxWad5JHAopcIck9WtHiBl3ZRQNWNnJ35HWDuD5mcsGxLn1RWwX6Gdf9DGpPiKD0SGN79zrx24K/zQGvzPXcv8OYfMtZ9l0CSHwWs5xHdnQ7ShzUrXisjZTTxxarkD/6WoPkqaxa56+/M75KWMu/us6ma0c8ehoZ5dxV16oezQGv/IO8gw7Bn+EbjkBklCB/PQ6DL2nyJ3lrXXqeS6tgGLXXYPF8lvd+XUqb/hWn89r6v0TGXXWIdjtNh0RSdEzmhXX/H5IL8qgm2KTWcL63fmyjJkLV3JciRpBeDMrwVbONe+myTPhroDC1R9HKb3C0H6it7tMre59lZi97/C76a+l8zFPOkCs/f9QSg5kYrZ9onJouMG8B2FI5RIf5YoHbrEtLNlWP1DQJcTrDrSWcOi3NAl+Rwv/dVkxfVS3tHEydbyvjX16QHkmOj6TDry81szx9goukcRVHWWHRdT97XKzaHxTmgDxHkJoJiWU97Zxot8neTi21L2z75tMf4YQxDMSUqWXSG9bLsTko942vPcRhfPjnP0c4BncEoQ60LwI4cArBwD+PdXF54ke69GTu/YNLHFdJR1vMs1AmAGulIq8nHnmNRyq53kg6Lc0CnzgX+aBf3HxifyolpLu0dYYwujv7c95QHzeCGPZOKrgwFT5L/3/sq95H3mqtAFn77Euvzfm3lvW0Un+CGUtndY5Byj/yMYd5W6qw5nr63ZkDuEAH24dg/3dPirjK8O/ATfgbADZu6Wx2YEHW/cBNDuCc5MmN4GuLdUnKSmd0/MJphyFjPeDiqN8GPZvvk26SJTFBIW3ovaIlAzPorZn7/7L3J6IHAN3fzhUCaVSOgZ/f2oysLgS82MqbexgThDJdwEUMqhnI+cERUIvDVD8jJ3Owxt8zvnbhePV0/RQdKS62tINBRLD+Jafy4e8uWHOdm0jcYYVy495nuiIFGr+KLYCrIAXEPaGvwt3OZuHxiglNRQOB/a34WZj23nxMn84vPl/lF6Ez73c5fVxdzRf2Qu3lcJQ1thHERcXxTzjFFMgwMsAho+WD3pGcqPxngMZS0UEsaEWfnbvBu2TeOAIf/mu8Y1/At+EKWUeFOSg2zyZx/IY//N+sTZF+zlUWHk7Jqyx0BWqN2mKPbAab0KLnzW3RipBNvomwtdij3ir/NYzkda7K3Ul7uEblKWmcOOfnCr00n6C1CEcARPblq5gEZ3+X5UUZKCksCK+5Th+f4GxllXNrMfWDyoxIRr5zNm12YEcaNJth/yq3NJQQn1rOlu38XkN9PvshQkU6ziX3YReB2S+I3JlRcAjk9bgR3DZl1RpAyPN8n2uvdx3XwgdbglZmdoeXlEBi9+WhLGvhQr56SaYEpC/ih4xhaeYoZyVTlk//3kIrW0+ld9E0TsthUKnbyL9rqKaDPHgygNaX83/DL/tXkyBIfVm2btyxSorN1bdzgH60I67Du2c9NfJg0n06WEVAk03mXRED7cg8uDYHd6GP0KoZdDaW+rfB+RyOFhHfnBzmMYCa95irI1tAfAKCZcNQWEQiiIWt0QrrGk2rI7SOfJ8gJTvTQbpvBB1pblWDyEc4TI6yAi6w5MZOfMfwoaCBrTsEHWvGxHJxG4suiVUZva5RK+yqj2XgTAd2LTrMrE5IgSvCBDueeRFRf7yoXSFFD+FnXDxhPM7y7xf2SGwcYI3/BaKWAvK7QTYWYzt/jGXnLECqpx1iuGKboQZTgA60YOTqNsS25s54OUbjpiCCv9mfcPOgZPmtOVOLntEKlvY4mHbTyvJ/x45efMzysaH2uK7UTO55AZ3AlBHeqwe3dgqUXE4fB5NA6Ah01kMBMNa2wrfd4xltwxsSS1B8TSFp10a9o5Td4g+BLwmjFyU9Tkenm7yD+NRjPuW1SF2emF7slWwn2fzDlJrXoJWxProAhP2VSw/2VIMqDk7AEEgRRyq1sbsWe5aqYSLC5WoIsAQW69s4d3Lx1i/8I24iePXsiOtq28R7kiQa7+4BkhpWVlcjOzsbnn32GGzdvtgCdnp6Gxx6bi169Ap/qXr58GaWlpfSDjUju1w/9eDzocl8cfZPArl27Fvn5+YjkBy4DBg7kt4pdceXKFdyidaekpGDZsmUYOXJkQHBo4L8Vb9iwAYcOHUJNTQ369OmDxYsXY8KECQFp36lG7suiq6ursWbNGgjsBQsW4OtPPIHYmBhjrHV1ddi3bx/eeustvY8M2Pg/OXgQW7duxaBBg/Dkk08aq2X48OEBa9/JhvwO7zZu3Ihr167hqae+iSVLlt41Rln13LlzMXPmTHTrxji5WcTfAr5Lly4Gxeia2kZ4OJMKip7by6icpShd55Ce6uvrDQX37t3bqKP6EpWTxdvb1LUO1ZXoufqy+lBdPbPaMArxj+pYZXRPZXSovrfyVr22zn4BLX48duyYYVmLn1rss307yCp0/PhxnDx5EoMHD0ZOTg5k+UOHDsXChQtRVnadlHDYeC7eH5qairHjxqGgoABxdK6zHn3UKC+g1q9fb4Ajy14wfz6qSSNq7yAtvri4GEmJiZg0eTLq2X4hjWE+y9TW1uKNN97A7NmzjT6uXr1qUNv06dMxYsQI/keGvj1gZEinfu7cOYOeLl68iKioKIwfPx4ZLLN12zbDeMaOZabZSfEL6PPnz6OiogKLFi1CuD4gp8jSioqKcPs241cP6Upw+iYno7CwEHv37sU2Djilf3/0olVKGbr/zjvv4MKFC+jbty+6d++OE1TIxyyriU4maNNpTZaob4noSw5427atyMrKNjhbEY/AFW1FREQgPj7eAEecfvjwYZw5c8YoJ36XcqT4FStWYOLEiYYl79+/H5s2bTKuk5KSUF5ebih2IP2PxukvVfkFtHhZy0igWFJVVYUdO3bg008/vWcpKtR7ghyuZaclqcF+a+lSxCckGBP64IMPDJAtuunRowfy8vKwZcsWnDhx4q72tKxXr15tWKCupbi9e/dhHK1f1p3EMV2/fh07d+4k+FkG0BY1qH9RzsqVK43VePbsWWzcuAHbt283rFbzeu+99xAbG2uMNy0tzVgJUpDAv5+Q1S+gZTVawiUlfCPSLLK8KVOmIJVLXhMTCDq0nAWaJbo3b948DOdSlGh5yrJGjRplLPFELnuJAJFScnNzjd/2P7JUrQStHoEVQyf8+OOPY9iwYUYxWavKiHbUnyVqTxRgLf1JkyYZFCFlakXKurVaRGXTpk1rUXB/rj7RyenTp62mOn02vUQnq4lXpV3Fzxq8RByXkZGBWbNmGUtV58zMTCPMi4uLM/jQmrQ41xJxopZnSkp/yJItkbISaPGKw6161jPrbNWVctSHXfQ7mXRlr6tru1XKwqUwzUGHqE8GM2DAgBaQ1aaMSnNTGWt12PvqyLVfQIsyRo8ebVijwi1LNAj7IS6WVaWnpxtA28tZ11KQwkI5WHGuXfRby9nX5ASSlrnqCnS7qK4oxLNuq323lpYCdIiT1Y4A9xT5DynGX/G7phIRaV8RgHhNEYQlulZi8fbbbxs8LqfpSzS50Y88go8/3osjR460rBBZ+ebNmw1r91VXFCYlCugPP/ywBWxFGNnZWQYlWUDbLdtbe7JWOV35nt27dyPv0qWWYvIDe/bsMZTWXjstlTwu/OJotaFl/sorr+Dll1/G+++/bzgfLTmJMkU5R4GwatUqgwKMB81/7FYli5w9ezaUVksxcmLiWEU2AiyGz9ua3NSpU42VtY/RwqlTpwwnJ4tUmCdF2KWtdlROY1m+fDnWrVuHF196CYo0FK1oPspyNSd/xW+g1aH2GJ577jns2rXLCJtkhbKgIUOGGLGpnJ6dd+XgBL6cl13k3TVBWZKcX1lZGXRvzJgx5PibLB9rLFv1p5jXvoQF5tNPP22MRXG6rFv35MxELdoOsGJkbQVoBdlFPK4xiYc19hkzZhiAy/+IepR8zZkzxzAGRR7+7t3c116HfcDSvMWnGowm6SmiFFmpKEcT8yZqQzzZh0qJIH+rXQEgsFRXbUhRFiXY21CiI2XLMnXUqTyjCfUna5ZFqh372NSXIg45SXub6ktRjYC2HLLaV11FNJ0RtssZUDgI+2ruTBuhsh1AQDj77Qw70H6oiA2BENA2MJy8DAHtJLq2tkNA28Bw8jIEtJPo2toOAW0Dw8nLENBOomtrOwS0DQwnL0NAO4mure0Q0DYwQpf/DxD4P0kNwRMWmwIJAAAAAElFTkSuQmCC;" vertex="1" parent="1">
          <mxGeometry x="685" y="211.98" width="40" height="40" as="geometry" />
        </mxCell>
        <mxCell id="Dnd6SaUCVXXJT1RzdSpy-59" value="" style="rounded=0;whiteSpace=wrap;html=1;dashed=1;dashPattern=1 1;" vertex="1" parent="1">
          <mxGeometry x="760" y="190" width="20" height="70" as="geometry" />
        </mxCell>
        <mxCell id="Dnd6SaUCVXXJT1RzdSpy-60" value="..." style="text;html=1;strokeColor=none;fillColor=none;align=center;verticalAlign=middle;whiteSpace=wrap;rounded=0;" vertex="1" parent="1">
          <mxGeometry x="760" y="190" width="20" height="20" as="geometry" />
        </mxCell>
      </root>
    </mxGraphModel>
  </diagram>
</mxfile>
